<svg width="1846" height="524" xmlns="http://www.w3.org/2000/svg" xmlns:xlink="http://www.w3.org/1999/xlink" preserveAspectRatio="none" version="1.1">
 <defs>
  <g id="Layer1_0_FILL"/>
  <g id="Layer0_0_MEMBER_0_FILL">
   <path id="svg_1" d="m599.25,783.75l-7.35,-1.6l-4.75,0.5q6.45,0.75 12.1,1.1m-18.05,4.4l-4.15,0.25l13.7,3.2l0.25,0l0.65,0.15l2.75,-2.1l-13.2,-1.5m-64.8,-27.85l6.55,4.35q3.7,2.15 7.95,4.25q4.3,2 9.05,3.8q4.1,1.7 9.6,3.5q5.3,1.7 10.05,2.95q3.8,1.05 9.9,2.55q2.25,0.5 9.5,2.2q5.55,1.2 8.65,2q-0.3,-0.5 -1.25,-0.95q-1.1,-0.5 -2.35,-0.85l-10.4,-2.35l-9.85,-2.75l15.1,1.6q-5.5,-1.1 -12,-2.85l-11.8,-3.65q0.5,-0.3 0.7,-0.9q0.1,-0.2 0.2,-0.5q-0.25,0.2 -0.95,0.3q-1,0.1 -2.95,-0.05l-7.55,-1l-7.95,-2.9l-0.2,-0.05l-20,-8.7m-79.95,-60.45l-1.5,-1.3q8.2,12.3 18.35,23.5q-9.65,-11.1 -16.85,-22.2m-0.8,-45.5q0.06016,0.00547 0.1,0l-1.3,-2.4q-0.48438,0.47207 -1,0.95q-0.35,0.35 -0.7,0.65l0.35,0.05q0.6,0.05 1.1,0.1q-0.55,0 -0.4,0.25l1.05,0.3l0.8,0.1m-52.65,-125.9l1.55,-5.85l1.15,-2.55l0.05,-2q-1.9,6.2 -3.6,13.15q0.45,-1.05 0.85,-2.75m58.05,-126.55q0.95,-0.4 3.05,-2.25l1.05,-3.4q0.1,-0.3 0.05,-0.3q-0.15,0.2 -0.35,0.4q-0.8,1 -2,1.75l-1.7,0.85q-0.95,0.35 -1.8,0.55q0.5,0 0.65,0.55q0.05,0.2 0.1,0.65l0.05,0.7q0.15,0.7 0.9,0.5m16.7,-13.45l1.8,-0.95q1,-0.55 1.95,-1.15l4.65,-3.45q-0.85,0.4 -2.2,0.7q-1.35,0.35 -1.9,0.55l-1.45,0.8l-0.5,0.45q-0.55,0.55 -1.15,1.25l-1.2,1.8m296.4,338.45l-0.5,1.05q-0.4,1.05 -0.05,1.35q0.35,0.4 1.6,-0.3q1.5,-0.9 3.55,-2.95l0.35,-0.5l0.15,-0.4q0.1,-0.25 0,-0.4q-0.2,-0.1 -0.5,0l-0.7,0.15q-1.2,0.4 -1.8,0.65q-1,0.35 -1.35,0.2l-0.75,1.15m23.1,-21.8q-0.3,-0.4 -0.8,-0.35q-0.35,0 -0.7,0.15l-0.85,0.45l-1.8,1.35l-4.6,4.45l6.85,-5.2l0.65,-0.35q0.25,-0.15 0.6,-0.25q0.5,-0.1 0.7,0.3q0.05,0.25 -0.05,0.55l-0.25,0.9q-0.15,0.5 -0.55,1.2l-0.9,1.6q-3.5,2.9 -7.95,6.2l11.8,-7.95q-1.05,0.25 -1.4,-1q-0.15,-0.35 -0.35,-1.15q-0.15,-0.55 -0.4,-0.9m-335.9,-7.75l-1.55,-2.95l1.55,3.4l2.15,3.15l2.2,2.4l-4.35,-6m-52.6,-172.45q-0.3,0.1 -0.4,-0.35l-0.15,-1.25l0.1,-3.85q-1.05,5.8 -0.75,7q0.05,0.25 0.2,0.2q0.1,0 0.25,-0.25q0.3,-0.45 0.75,-1.5m0,0q0.05,0 0.1,-0.05q0.1,0.05 0.15,0l0.5,-1.7l-0.75,1.75m286.7,-160.8q0.3,0.05 0.7,0.3l4.4,2.15l-4.75,1.25l10.7,0.15q1.35,-0.05 2.5,0.05l4.5,0.55l4.4,1.3l6.95,3.6l16.8,9.9l-6.4,-5.45q-4.75,-4 -6.5,-5.4l-6.4,-4.75q-1.45,-1 -3.15,-2l-3.1,-1.55q-4.75,-2.45 -10,-4.75q-4.65,-2.1 -10.5,-4.35q-5.75,-2.15 -11,-3.8l-11.3,-3.15q-11.5,-2.8 -23.55,-4.25q-6.55,-0.7 -12.15,-0.95q-6.15,-0.35 -12.3,-0.25q-1.8,-0.05 -6.15,0.1l-6.15,0.35q-6.4,0.5 -12.3,1.25l-24.25,4.55l-6,1.65q-1.95,0.5 -2.9,0.8l-14.65,4.85q-11.45,4.3 -22.2,10q-4.3,2 -9.45,4.45q-6.25,3.1 -9.1,4.4l-5.8,2.65l-4.45,1.5q-0.45,0.1 -1.15,0.1q-0.5,0 -0.85,-0.1l-13.4,11.5q-3.75,3.1 -7.8,6.7q-5.15,4.5 -8.55,7.8l-0.05,0q0.4,0.35 0.6,0.8q0.25,0.75 -0.1,1.85q-0.35,0.8 -0.75,1.4l-0.25,0.45l-1.15,1.45l-13.05,10.2l0,1.55q-0.8,0.45 -1.35,0.85l-1.5,1.15q-0.75,0.55 -1.55,1.4l-1.55,1.75q-2.8,3.2 -6.35,8.45l-5.85,8.65l-0.15,0.1l0,0.1l-0.05,0.05l0,0.05l-0.05,0l-3.4,4.5l-1.9,1.95l2.6,0.3q-3.35,4.6 -6.95,10.8q-3.1,5.5 -6.4,12.3l-5.75,12.05q-3.35,6.85 -5.25,10.1q1.3,-1 1.4,0.05q0.15,0.5 -0.1,1.35l-0.05,0.25l0,0.25l-3.65,12.45l4.85,-6.25l-0.6,1.5l-0.95,3.6q-0.1,0.9 -0.15,1.85l-0.25,6.4q-0.1,0.95 -0.2,1.2l-0.75,3q1.05,-2.7 1.9,-4.45q1.1,-2.1 1.4,-1.65l-0.3,2.7q0,0.35 -0.15,0.75q0,0.55 -0.25,1.5l-1.45,4.8l-0.15,0.2l-1,2.85q-0.4,1.3 -0.6,2.3q-0.25,1.15 -0.3,2.7l0.15,3.35l-2.65,-1.2l2.3,29.4q0,0.25 0.45,2.85l-0.8,1.55q-0.25,0.5 -0.75,1.2q-1.55,1.95 -1.65,2.1q-0.85,1.1 -1.4,2.6q-0.2,0.9 -0.25,0.95l-0.25,1q-0.2,1.3 -0.25,2.65q0.3,0.45 1.05,1.1q0.7,0.65 1.05,1.3q0.55,1.05 0.85,2.95l0.45,6q-0.4,0.2 -0.7,-0.25q-0.3,-0.45 -0.6,-1.35l-1.3,-4.25l1.75,20.65l3,16.75l3.65,13.3q2.75,8.6 6.2,15.8l-0.6,-3.1q-0.05,-1.05 0.1,-1.2q0.4,-0.35 1.65,1.45l2.45,3.15q1.25,1.65 1.6,1.05q3.6,10.05 8.15,19.8q-0.2,-0.5 -0.85,-2.4l-6.25,-18l-2.3,-9.65q1.45,1.25 2.6,0.45q0.65,-0.55 1.7,-2.05q0.95,-1.05 1.9,-0.3q1.2,0.95 3.4,5.45l0.05,1.55q-0.1,0.4 -0.3,0.55q-0.2,0.1 -1.05,-0.35q-0.7,-0.3 -0.75,0.3q-0.05,0.55 0.1,1.35l0.65,2.6l0.9,1.2q0.15,0.25 0.85,1.3l1.5,2.8q1.95,4.15 3.05,6.55q0.35,-0.35 0.35,-1.5l-0.25,-3.2q0,-0.6 0.05,-0.8q0.15,-0.8 0.8,-0.55l2.05,5.6l0.65,4.4q-0.1,1 -0.3,1.35q0.3,0.2 0.6,0.05l0.55,-0.3q0.4,0 0.8,0.35l1.5,1.7l0.85,1.6q0.65,1.1 0.7,1.3l0.8,2q0.45,1.35 -0.1,1.9q-0.25,0.35 -1.25,0.55q-0.85,0.15 -1,0.4l6.15,4.8l2.8,2.65l2.35,3.45l0.55,1.35q0.4,0.95 0.5,1.5l0.25,0.75q0.12656,0.3375 0.15,0.65l-0.9,-8.2l0.75,1.15q0.2,0.25 0.65,1.05l2.3,4.6q-0.45,-0.95 -0.55,-1.45q-0.15,-0.6 -0.05,-0.95q0.1,-0.35 0.5,-0.35l0.45,0.1l0.7,0.25l0.85,2l3.65,5.25q1.9,2.3 5.85,6l4.05,4q0.55,0.6 1.1,1.35l1,1.3q0.45,0.7 0.75,1.4l0.55,1.4q0.25,0.95 0.25,1.45l2.05,-4.8l4.45,4.45l0.75,1q0.95,1.35 0.85,2.65q-0.05,0.65 -0.05,0.95q-0.05,0.65 0.15,1.25l0.3,0.75l0.55,1l1.35,1.8l0.65,0.65q-0.6,-0.75 -0.7,-0.95q-0.25,-0.4 -0.3,-0.7q-0.1,-0.25 0.05,-0.8q0.1,-0.4 -0.05,-0.9l-1.45,-1.85q0.55,-0.1 2.35,1l0.85,0.55l12.25,9.6q3.6,3.05 8.75,6.75q4.4,3.2 8.8,5.95l0.2,0.15l2.05,1.25l0.3,0.1l0,0.1l1.9,1.1l0.25,0.2l0.8,0.45q0.8,0.45 1.15,0.7l2.25,1.25q3.7,2.1 8.9,4.9q7.95,4.15 18.35,8.95l9.5,4.3q2.85,1.3 10,4.4q0.25,-0.45 0.9,-0.6q0.45,-0.1 0.95,-0.05q0.4,-0.05 1.35,0.1q4.4,1.15 10.35,2.65q3.95,1.05 9.3,2.25l8.6,1.95q5,1.05 8.2,1.6q4.35,0.75 8.45,1.2q5.1,0.5 9,0.6q4.5,0.15 10,-0.15q5.65,-0.35 11.3,-1.25q0.55,-0.6 1.6,-1.05l2.4,-0.75l9.9,-1.55q2.35,-0.35 3.6,-0.65q0.45,-0.05 0.9,-0.2l2.55,-0.75q1.9,-0.65 3.15,-1.25l1.6,0l0.1,-0.05l0.1,0.05l0.1,0l0.3,-0.05l7,-0.7q4.85,-0.75 10.05,-2.05q5.05,-1.35 10.4,-3.35q5.1,-1.9 10.5,-4.3q5.2,-2.45 10.05,-5.05q4.7,-2.5 9.4,-5.35q4.55,-2.75 8.6,-5.4l7.5,-4.9l-18.3,7.6l-20.35,7.55q-8.05,2.65 -14.5,4.5q-8,2.3 -15.05,3.9l-10.05,2.15l-20.75,3.1q-2.5,0.25 -7.55,0.6l-7.5,0.4q0.45,-0.35 0.8,-0.95q0.2,-0.2 0.6,-0.35q0.25,-0.1 1.4,-0.25l-21.35,-0.8q-2.4,-0.2 -7.2,-0.7l-14.3,-2.05q-7.05,-1.3 -14.1,-3.15l-8.85,-2.6l-13.7,-5.15l-11.15,-5.3l-15.15,-9.35l-0.35,-0.25l-0.55,0.6l-2.1,-1.2l-5.65,-4.1l-2.25,-2.1l0,-0.05l-1.95,-2.15q-1,-1.2 -1.7,-1.85l-4.7,-4.4q0.1,0.2 0.4,0.65l2.25,2.55q1.8,2 -0.15,1.75l-4.3,-3.1q-2.25,-1.75 -6.55,-5.2q-5.25,-4.25 -7.2,-5.75q-4,-3.1 -6.4,-4.45l-1.5,-2.45l-0.1,-0.6q-0.1,-0.3 -0.25,-1.6l-0.05,-0.8q-0.1,-0.35 -0.5,-1.05q-0.65,-1.25 -2.7,-3.8l-1.35,-0.3l-0.35,-0.15l-3.7,-0.95l-9.65,-11.7l-2.25,-3.6q-1,-1.65 -1.55,-2.9l5.25,4.45q-3.25,-3.4 -6.3,-7.85q-2.05,-2.95 -5.2,-8.1q-1.65,-2.7 -4.8,-7.95q-0.98672,-1.53281 -1.95,-2.9l-3.5,-0.35q-1.2,0 -1.7,0.1q0.45,-0.3 -0.35,-0.5l-1.65,-0.3l1.2,-0.45q-0.8,-0.05 -1.25,-0.4l-0.5,-0.3l-0.8,-0.15l0.75,-0.05l0.35,-0.15q-0.65,-0.3 -1.65,-0.3q-0.9,0.1 -1.55,-0.35l0,0.65l-0.95,-0.55l-0.2,0.2l-0.1,-0.35l-0.75,-0.35q-1.3,-0.45 -2.05,-0.85l-2.1,-0.95l1.9,-1.25q0.05,-0.25 0,-1.05q-0.05,-0.55 0.3,-1.15q0.2,0 0.55,0.05q0.25,-0.05 0.55,-0.35l0,-0.05l0.05,0q0.15,-0.2 0.4,-0.5q-0.1,-0.2 -0.95,0.35l3.15,-3.8q1.28184,-1.45508 2.45,-2.65q-2.25781,-4.34375 -4.45,-9.55l-4.35,-11.05q-1.35,-3.85 -1.9,-5.65l-0.85,-2.65l-0.1,-0.2l-1.35,-4.8l-0.1,-0.1l-4.8,-20.5q-0.95,-4.65 -1.8,-10.6q-0.75,-5.25 -1.3,-9.75l0,-8.35q0.05,-2.85 0.25,-8.6q0.25,-4.05 0.6,-8.7q0.4,-4.25 1,-8.55q0.6,-4 1.45,-8.05l3.2,-11.8l2.1,-5.2q0.35,-0.8 1.3,-2.6q-0.45,0.55 -0.6,0.85l-2.2,5.15l-0.45,0.75q-0.5,0.6 -0.85,-0.2l1.9,-7.9l2.75,-6.5l4.35,-6.9l3.3,-7.55l0.9,-2.8l0.7,-0.5q0.25,-0.25 0.4,-0.15q0.15,0 0.2,0.2l0.05,0.55q-0.05,0.4 -0.9,3.55l-0.5,1.75q-0.2,0.7 -0.15,0.95q0.05,0.15 0.55,-0.4l1.5,-2.35l1.85,-11.25l0.6,-2.2l1.85,-4.1l2.5,-4.05l0.75,-0.95l0.05,-0.1l3,-3.75q0.6,0.35 0.15,1.8l-0.95,2.2q-0.45,1 -0.1,0.8q0.25,-0.15 0.95,-0.75l1.85,-1.9l0.05,-1.4l0.4,-2.9l1.55,-5.45l3.9,-9q2,-3.85 4.2,-7.55q2.5,-4.25 4.6,-7.35l11.45,-16.4l1.35,2.6q2.6,-2.35 6.1,-6l10.6,-11.65l2.6,-1.9l4.45,-2.3l14.6,-8.95q4.55,-2.8 6.85,-4.05l6,-3.15l0.15,-0.1l4.75,-2.1l5.4,-1.75q1.5,-0.35 2.8,-0.55q1.65,-0.2 2.55,-0.2q0.6,0 1.2,0.05l1.05,0.2l6.2,-4.55q4.6,-0.1 7.3,-0.15l-0.85,-1.65l7.95,-1.65l1.05,-0.05l0.2,-0.05l2.95,0.05l0.05,0.05l0.45,0.05q1.35,0.25 2.4,1.05q0.35,0.3 1.35,1.5q0.8,1 1.55,1.45q1.05,0.7 2.75,0.95l2.2,0.1q1.15,0 3,-0.15q3.3,-0.3 8.85,-1.15l-1.1,-0.75q-0.7,-0.45 -1.35,-0.7l-1.85,-0.45l-2.15,-0.25l-0.35,0.05q0.35,-0.3 0.4,-0.3l0.55,-0.35q0.6,-0.3 1.45,-0.55l2.4,-0.55q0.15,0 0.55,-0.1l2.35,-0.3l9.35,-0.25l0.55,-2.9q1.75,-0.25 3.2,-0.15l1.35,0.1q0.7,0.1 1.15,0.2l2,0.55q1.35,0.4 1.75,0.55q-1.7,-0.8 -2,-1.4q-0.25,-0.6 0.8,-1q0.45,-0.25 1.15,-0.4l5.8,-0.7q2.1,-0.1 4.75,-0.1l9.7,-0.2q0.5,-0.1 0.85,-0.2l-1,2.7q0.4,-0.4 1.1,-0.9q0.85,-0.5 1.35,-0.65l3.5,-0.95q2.75,-0.45 10.15,-0.9l2.75,3.55l3.65,-0.3q1.45,0 2.2,0l4.65,0.5l1.6,0.45l0.25,0l0.25,0.1q1.3,0.55 1.8,0.85q0.3,0.1 0.75,0.5q0.45,0.3 0.6,0.5l0.7,-4.35l2.9,1.55q1.05,0.5 2.1,0.9l1.6,0.45q0.25,0 1.45,0.2l1.45,0.25l3.25,1m-244.45,295.25q-1.5,-0.4 -0.7,-0.5q-0.05,0.1 0.7,0.5z" fill="#C1282D"/>
   <path id="svg_2" d="m506.15,661.2l-0.9,-1.05l-0.05,0.65l0.95,0.4m-12.55,-17.3l0,0.25l2.7,1.75l-2.7,-2m14.5,15.2l0.7,-0.85l-1.6,-0.9q-0.15,0.65 0.2,0.95q0.6,0.55 0.7,0.8m-54.4,5.15q0.15,-0.05 0.55,-0.3q-0.5,-0.1 -1.45,0.15q0.55,0.3 0.9,0.15m-4.1,0.25q0.14883,0.34727 0.05,0.45q0.45078,-0.4498 0.95,-0.35l-0.4,-0.4q-0.7,0 -0.6,0.3m5.95,-46q0.15,-0.45 0,-0.65q-0.65,1.95 -2.9,5.2q-2.4,3.75 -2.85,4.95q0.55,-0.6 1.4,-1.85q1.35,-1.9 1.4,-2q0.65,-0.55 0.95,-0.8q0.35,-0.3 0.55,-0.3q-0.2,-0.1 -0.35,-0.1l1.85,-3.4l-1.5,1.8l1.45,-2.85m0.6,-0.15l0.55,-0.5l0.35,-1.15l-0.9,1.65m-1.35,-0.55q0.35,-0.75 0.7,-1.25l-0.65,0.05l-0.85,2.05q0.5,-0.3 0.8,-0.85m29.15,-4.8q-1.00117,0.04219 -1.05,-0.3q0,-0.05 -0.65,0.5q0.3,0.4 0.8,0.15q0.60156,-0.32383 0.9,-0.35m-2.8,-1.3q0.4,-0.55 0,-0.65q-0.55,-0.05 -0.8,-0.15q0.1,0.5 0.8,0.8m-13.8,-28.05q-0.2,-0.45 -0.35,-0.05l-0.4,1.15l0.8,0.75l-0.05,-1.85m-37.05,75.2q-0.8,0.1 0.7,0.5q-0.75,-0.4 -0.7,-0.5z" fill="#1A1A1A"/>
   <path id="svg_3" d="m492.25,656.95l0,0.05q-1.35,0.8 -2.15,1l-4.95,1.4q4.19434,-0.75352 8.25,-1.8q-0.46113,-0.49883 -1.15,-0.65m-24.85,-70.85l0.4,0.45q-0.09863,-1.2623 -0.2,-2.55q-0.09434,1.05508 -0.2,2.1z" fill="#FFFFFF"/>
  </g>
  <g id="Layer0_0_MEMBER_1_FILL">
   <path id="svg_4" d="m500.8,712.35l1.1,3.3l4.4,2.8l0.4,0.3l9.5,5.5l-1.75,-1.7q-1.1,-1 -1.7,-1.45l-7.25,-5.05q-1.65,-1.05 -4.7,-3.7m10.05,1.35l-3.7,-3.75l-7.1,-4.55q5.75,4.7 10.8,8.3m16.1,9.3l-0.35,-0.25l-7.55,-4.3l3.45,2.5l0.1,0.05l0.1,0.1l10.45,6.9q-4.2,-1.5 -13.9,-7.4l-9.05,-5.05q-1.15,-0.4 -1.6,-0.3l12.85,7.5l0.05,0.05l0.05,0l0.05,0.05l0.15,0.1l12.05,6.55l0.3,0.2l18.55,8.4l13.3,4.45l5.15,1.3l0.3,0.1l4,0.8l0.3,0.1l4.15,0.65l0.15,0.05l0.15,0l4.9,0.5q1.4,0.1 2.05,0.1l-14.85,-3.55l-17.35,-5.7l-7.9,-4.5q-2.97852,-1.98574 -3.25,-2.7q-0.04414,0.18516 -0.15,0.45q-0.1,0.45 0.15,0.95l-16.8,-8.1m-87.9,-160.65l0.7,21.4l1.65,14.8l0.05,0.2l0,0.2l1.7,9.35q0.5,2.05 1.45,6.15l4.55,14.9l0.15,0.35l0.05,0.2l0.1,0.15l0.15,0.45q0.72559,-0.93594 1.2,-1.6q1.05,-1.45 1.8,-2.75l1.05,-2q-0.02539,-0.0334 -0.05,-0.1q-0.10508,-0.28262 -0.2,-0.6q-0.30215,0.27891 -0.8,0.7q-0.05,0.1 -1.4,2q-0.85,1.25 -1.4,1.85q0.45,-1.2 2.85,-4.95q0.19941,-0.28789 0.35,-0.6q-2.53867,-7.03574 -4.7,-14.6l-0.3,-1l-0.05,-0.1l0,-0.1l-0.1,-0.25l-3.25,-12.8l-0.1,-0.25l-3.3,-16.75q-1.15,-6.5 -2.15,-14.25m3.25,-34.6q-0.15,0 -0.3,0.25l-0.25,0.4l-0.25,0.6l-0.75,3.7l0,0.25l-0.05,0.3l-0.05,0.9q-0.05,1.5 0.35,1.6q0.3,0.15 1,-0.9l1.15,-2.5q-0.2,-0.25 -0.35,-1.4q-0.1,-1.4 -0.2,-2.05q-0.1,-1 -0.3,-1.15m9.35,-28.35q-0.3,-0.05 -0.9,0.2l-0.95,0.35q-1.15,0.45 -1.25,-0.7l-2.55,15.55l2.35,-10.95l1.8,-3.05q0.75,-1 1.05,-1.1q0.6,-0.2 0.35,1.95l-0.5,2.7l-0.05,0.15l-1.4,6.45l2.55,-9.25q0.1,-0.45 0.1,-1.1q0.05,-0.3 -0.05,-0.7q-0.15,-0.5 -0.55,-0.5m5.15,-17.25l-0.05,0.4l-0.05,1.6l6.7,-12q1.55,-3.45 -0.85,-1.05l-5.55,6.7l-0.2,4.35m243.2,251.25l-2.05,0.6l-14.05,6.65q-5.475,2.2875 -10.95,4.25q6.17207,-2.06855 12,-4.5q7.65,-3.15 15.05,-7m-10.8,0.1l4.2,-1.85l4.5,-2.95l-8.7,4.65l-1.65,0.7l1.4,-0.5l0.25,-0.05m119.35,-165l-0.15,0.6q-0.15,0.5 -0.35,0.3q0.45,2.8 0.7,1.95q0.15,-0.45 0.3,-2.3l0.1,-5.5q-0.2,1.45 -0.5,4.2l0,0.2l-0.05,0.2l-0.05,0.35m-47.95,-140.5q0.08242,-0.53535 0.65,-0.4l-2,-0.75l-1.8,-1.05q-1.2,-0.85 -2.25,-1.9q-0.35,-0.35 -0.4,-0.35l0.1,0.25l1.65,3.35l3.4,2.5q0.7,0.3 0.7,-0.35q-0.1,-0.9 -0.05,-1.3m-28.95,-18.75q1.5,1.15 2.9,2l6.5,3.85l-1.55,-1.8l-1.35,-1.2q-1.1,-0.85 -2.2,-1.35l-2,-0.65q-1.25,-0.35 -2.3,-0.85m79.7,153.2l-0.1,0.55l0,0.3l-0.05,0.25l-0.1,1.15q0.35,1.25 0.6,3l0.55,9.95q-0.15,-7.6 -0.9,-15.2m-142.7,-175.15l-17.95,-4.3l-4.25,-0.7l-0.25,0l-0.2,-0.05l-12.05,-1.3q-1.2,-0.1 -1.75,-0.1l-17.35,-0.15q-6.55,0.3 -13.8,1.15l-18.55,3.2l-0.1,0l-0.1,0.05l-13.65,3.55l-8.55,2.8l-0.4,0.1l-12.25,4.85l-0.4,0.2l-0.2,0.05l-0.15,0.1l-16.15,8.15l-11.55,7.3l-14.15,10.95l-8.75,8.15l-0.25,0.3l-0.3,0.25l-2.75,2.85l-0.1,0.15l-0.15,0.1l-8.3,9.45l-7.75,11.9l-0.05,0.15l-8.35,16.35l5.1,-7.4l0.15,-0.15l0.1,-0.2l9.95,-14.35l2.45,-2.85l3.75,-3.4q0.2,-0.2 0.35,-0.25l7.3,-4.7l3.95,-2.05l0.3,-0.2l4.85,-2.65l-4.95,1.45l5.1,-5.25l0.15,-0.1l0.3,-0.25q1,-0.8 1.8,-1.35l1.45,-0.95q1.8,-1.1 2.8,-2l0.45,-0.35l4.05,-3.9l1.65,3.15q0.4,-0.65 1.1,-1.4l1,-0.95l0.1,-0.05l0.1,-0.1l0.45,-0.35q1,-0.75 2.05,-1.4l2.25,-1.3l6.25,-2.7l2.25,-0.7l2.1,-3.85l10.85,-3.25q2.35,-0.5 3.9,-0.55q1.75,-0.05 2.95,0.35l-1.65,-1.8q0.8,0 2.45,-0.5l0.4,-0.15l0.45,-0.1l15.7,-4.55l5.4,-0.8q1.25,0.1 1.1,0.55q-0.05,0.25 -0.5,0.7l-1.3,1l3.8,-1.95q0.45,-0.2 0.6,-0.25l0.15,-0.1q-0.04863,0.00156 -0.1,0.05l0.05,-0.05l0.05,0l0.05,0l1.8,-0.65l3.75,-0.8l1.25,2.05l1.4,-0.4l10.15,-2.05q5.6,-0.8 7.55,0l-2.7,0.75l-1.85,0.8q-0.9,0.45 -2.35,1.7q2,-0.2 2.95,-0.35l10.25,-1.35q0.5,-0.05 1.3,-0.25l1.1,-0.3q1.85,-0.45 2.8,-1.2l0.75,-0.7l0.15,-0.2l0.15,-0.15l0.25,-0.4q0.7,-1.05 1.1,-1.4q0.85,-0.75 2.35,-1.25l3.45,-0.65q1,-0.1 1.6,-0.1l1.8,-0.05q0.35,-0.05 1.05,-0.05l0.8,0l0.25,0.05l3.9,0.15l0.2,0.05l0.3,0l0.75,0.1l-0.5,1.4l7.4,-0.6l0.5,0l7.7,3.2q1,-0.25 2.45,-0.35l2.8,0.05q0.45,0 1.55,0.1l1.2,0.15l0.2,0.05l0.2,0l3.45,0.7l0.45,0.05l9.05,2.8q1.15,0.35 2,0.75l8.75,3.7l0.15,0.05l0.25,0.15l7.05,3.45l0.25,0.1l0.25,0.15l15.3,7.8l0.25,0.1l3.5,1.75l0.45,0.3l0.1,0.05l6.8,5.45l0.15,0.15l0.15,0.2l14.75,13.2l0.8,-2.3l15,18.45l8.3,12.95l2.35,4.45l0.05,0.15l4.5,11.15l0.9,4.1q0.2,1.2 0.2,2.4l1,1.35l0.1,0.1l0.1,0.15l1.35,1.7q0.3,0.25 -0.1,-0.85l-0.45,-1.25l-0.1,-0.15l-0.4,-1.15q-0.45,-1.45 0.1,-1.65l3.5,5.65l0.15,0.35l0.2,0.3l3.05,7.1l1.1,4.25q0.5,2.95 0.65,5.85l0.3,3.05q0.05,0.75 0.5,3.55q1.5,3.85 1.65,3.45q0.1,-0.25 -0.45,-3.05l-0.7,-4.1q-0.1,-1.6 1.1,0.3l1.55,6.6l0.1,0.3l0.05,0.3l2.15,6.7l0.5,1.15l0.05,0.05l0.05,0.2l2.85,8.35l0.05,0.3l0.15,0.55l1.5,11.1l0.1,2.15q-0.35,0.8 -0.65,0.05l-0.3,-1l-0.95,-4.65q-0.4,-1.65 -0.8,-2.55l2.15,10.35l0.9,9.4l0.05,11.45l-0.05,0.3l0,0.9l-0.95,10.8l0,0.15l-0.05,0.15l-2.7,15.6l-0.1,0.3l-1.85,7.45l-0.05,0.3l-2.5,7.45l-4.9,11.4l-0.1,0.15l-10.4,19.1l-4.05,6.25l-0.05,0.1l-0.05,0.05l-0.05,0.1l-4.95,6.95l-0.1,0.2l-0.15,0.15l-5.05,6.45l-7.85,8.8q-4.9,5.05 -9.3,8.9l-9.25,7.45l-0.35,0.2l0.1,1l-8.55,5.4l-0.3,0.15l-0.1,0.1l-6.1,4.05l-0.3,0.15l-0.15,0.1l-0.1,0.1l-13.25,7.7l-8.2,3.5l0.45,-0.1l0.25,-0.1l0.25,-0.05l6.4,-1.85l-5.95,3.55q-3.65,1.75 -5.55,2.45l-11.8,4.45l-5.85,-0.7l-4.55,1.8l-0.35,0.2q-1.1,0.5 -1.7,1.2q-1,1 -1.2,1.15l-0.5,0.4l-0.2,0.05l0,0.05l0.1,-0.05l0,0.05l-0.5,0.25q-1.9,0.8 -2.35,0.95l-22.4,2.8l-0.3,0l-3.5,0.4l-0.25,0l-0.25,0.05l-7.5,0.4l-0.45,-0.15l-0.3,-0.2q-0.1,-0.1 0.05,-0.3l0.25,-0.15l1.4,-0.45l2.8,-0.55l0.3,-0.1l0.55,-0.1l0.75,-0.3l-13.85,2.2l-0.15,0l-0.65,0.1l-7.2,0.2l-4.75,-0.45l-0.2,-0.65l-14.05,-1.35q-7.35,-1.15 -14.65,-3.15q-7,-1.9 -14.85,-5q-7.65,-3.05 -14.65,-6.65l-11.2,-6.25l-0.05,0l-0.05,-0.05l-0.05,0l-0.2,-0.15l-3.5,-2.15l-0.1,-0.05l-0.1,-0.1l-12.6,-8.65q-6.75,-5.1 -12.6,-10.25q-6.3,-5.7 -11.4,-11.05l0.7,1.05l0.2,0.25q0.25,0.5 0.25,0.7q0.05,0.15 0.05,0.5q0,0.35 0.1,0.65q-5.75,-6.15 -10.85,-12.95q-3.0627,-4.03574 -5.8,-8.15q-3.07207,0.29219 -6.1,0.3l5.95,9.5l0.15,0.35l0.4,0.6l0.55,1.15q0.55,1.15 0.6,1.95l7.85,10l7.8,8l5,4.5q0.2,0.1 0.25,0.2l2.9,2.3l0.2,0.2l0.15,0.1l0.1,0.1l7.7,5.6l18.25,11.2l0.3,0.15l0.15,0.1l16.8,8.9q2.55,1.55 2.45,2.45l16.55,5.5l0.35,0.15l16.35,4.35l11.8,2.3q6.85,1.1 11.25,1.5l1.45,0.15l0.35,0l0.35,0.05l16.35,0.6l0.4,-0.05l7.5,-0.35q0.55,0 0.8,-0.05l0.35,0l3.85,-0.4l0.4,0l22.25,-3q2.3,-0.25 2.9,0.05q-2.95,0.85 -3.15,1.55q-0.15,0.4 -0.4,0.6q-0.4002,0.32031 -1.4,0.65l2.85,-0.9q1.4,-0.65 1.85,-1q0.45,-0.3 0.95,-0.9l0.4,-0.55l0.05,-0.1l0.05,-0.05l-0.05,0l0,-0.05q0.8,-1 2.45,-1.65l8.15,-2.4l-1.1,4.35q0.95,-1 2.55,-1.9q0.55,-0.35 0.75,-0.4l2.45,-1.15l12.4,-3.8l8.85,-3.65l4.05,-2.55q1.7,-0.2 1.45,0.4q-0.12969,0.51895 -1.5,1.5l6.85,-4.25l-5.85,6.7l2.65,-2.3q1.05,-0.8 2.75,-1.8l5.35,-2.45l7.4,-2.2q1.55,-0.5 2.05,-0.75q0.05,-0.25 -0.65,-0.55q-0.7,-0.4 -0.8,-0.8q-0.1,-0.7 1.1,-1.75l0.55,-0.55l4.2,-3.15q2.55,-1.55 3.15,-1.25l0.3,0.4q0.15,0.2 0.5,0.1q0.1,-1.05 2,-3.4l0.3,-0.3l0.85,-1.05l5.15,-5.05q0.3,-0.05 0.4,0.15l0,0.25l-0.05,0.3l-2.35,3.65q-0.6,1.05 -0.5,1.4l10.2,-8.6l0.7,-0.45l0.15,-0.15l0.55,-0.3l2.35,-3.1l0.25,-0.5q0.15,-0.35 0,-0.45q-0.05,-0.05 -0.45,0l-0.6,0.15q-0.3,0.1 -0.45,-0.05l-0.05,-0.2l0.1,-0.4l0.85,-1.5l3.45,-3.1q1.1,-0.9 2,-1.4q1.2,-0.55 1.45,0.7l0.15,1.2q0.1,0.8 0.25,1.1q0.25,0.55 0.75,0.6l0.65,-0.05l0.45,-0.15l0.5,-0.25l-10.85,13.45l-12.8,12.65l5.75,-4.9l11.7,-11.6q0,0.3 0.55,0.15l0.95,-0.5l5.35,-3.7q0.65,-0.3 0.7,-0.1q0.05,0.2 -0.5,1.15q-0.45,0.9 -2.05,2.85q6.55,-6.1 12.8,-14.05l1.5,-1.9l0.1,-0.15l0.1,-0.1l7.95,-11.55l0.2,-0.25l0.05,-0.15l0.1,-0.1l2.3,-3.8l0.05,-0.05l0.05,-0.1l0,-0.05l0.05,0l0.05,-0.15l7.95,-15.1q3.7,-7.75 7,-16.95l-2.5,4.25q-0.55,0.9 -1,1.3q-0.05,0.1 -0.35,0.25q-0.1,0 -0.25,-0.15l2.5,-6.25q0.5,-1.1 0.9,-1.75l0.35,-0.65l0.35,-0.5q0.5,-0.65 1.3,-1.2q0.8,-0.6 1.2,-1.05l0.6,-2.85q0.15,-0.8 0.25,-2.2l-0.25,-3.1l-0.65,-2.55q-0.35,-1.5 -0.4,-3.3l0.45,-1.15l0.1,-0.2l1.5,-4l6.85,-26l0.05,-0.3l0.1,-0.3l0.7,-2.75l-2.3,0.8l0.7,-3.65q0.15,-1.05 0.25,-3l-0.2,-3.9l-0.1,-0.6l0,-0.3l-0.65,-5.45l0,-7.15q0.3,-0.4 0.9,2.05l0.95,5.3q-0.2,-1.75 -0.2,-3.4l-0.05,-2.65l0.6,-5.8q0.1,-1.25 0.05,-2.05l-0.3,-3.75l-0.4,-2.15l3.25,7.85l-0.65,-6.1l-0.1,-0.4l-1.05,-8.35l0.05,-1.5q0.15,-1.1 1.15,0.25l-4.1,-13.65l0,-0.1q-0.05,-0.05 -0.05,-0.1l0,-0.1l-0.1,-0.2l-2.6,-8.9l-0.1,-0.45l-1.4,-4.35l-0.05,-0.25l-4.65,-12.7q-2.95,-7.1 -6.3,-13.05l2.25,0.25q-0.95,-1.1 -2.4,-3.45l-5.4,-9.3l-0.05,-0.2l-4.75,-7.85l-0.25,-0.3l-2.3,-3.5l-6.05,-7.4q-1.6,-1.6 -2.9,-2.45l-0.25,-1.55q-6.8,-6.4 -14.05,-11.95q-1.05,-1.1 -1.65,-1.95l-0.6,-0.8l-0.4,-0.7q-0.55,-1 -0.45,-1.75q0.1,-0.45 0.45,-0.7q0.1,-0.05 -0.05,-0.05l-1.55,-1.4l-0.35,-0.25l-10.85,-9l-14.6,-10.85l-0.25,-0.15l-0.25,-0.2l-0.5,-0.3l-3.2,-2.35l-0.05,0q0.09492,-0.00176 -0.05,-0.05l-0.1,-0.1l-0.35,-0.2l-2.7,-2q-1.3,0.3 -5.05,-1.1l-13.45,-5.5l-0.3,-0.15l-0.35,-0.1l-8.1,-3.3l-0.35,-0.1l-7.15,-2.6q-6.45,-2.6 -12.85,-4.5l-0.8,-0.25z" fill="#A03232"/>
   <path id="svg_5" d="m506.15,661.2l-0.9,-1.05l-0.05,0.65l0.95,0.4m-12.55,-17.3l0,0.25l2.7,1.75l-2.7,-2m13.8,14.4q0.6,0.55 0.7,0.8l0.7,-0.85l-1.6,-0.9q-0.15,0.65 0.2,0.95m-53.7,5.95q0.15,-0.05 0.55,-0.3q-0.5,-0.1 -1.45,0.15q0.55,0.3 0.9,0.15m-3.5,-0.05q-0.7,0 -0.6,0.3q0.14883,0.34727 0.05,0.45q0.45078,-0.4498 0.95,-0.35l-0.4,-0.4m-19.9,-5.35q-0.8,0.1 0.7,0.5q-0.75,-0.4 -0.7,-0.5m25.85,-40.5l0.55,-0.5l0.35,-1.15l-0.9,1.65m-1.35,-0.55q0.35,-0.75 0.7,-1.25l-0.65,0.05l-0.85,2.05q0.5,-0.3 0.8,-0.85m29.15,-4.8q-1.00117,0.04219 -1.05,-0.3q0,-0.05 -0.65,0.5q0.3,0.4 0.8,0.15q0.60156,-0.32383 0.9,-0.35m-2.8,-1.3q0.4,-0.55 0,-0.65q-0.55,-0.05 -0.8,-0.15q0.1,0.5 0.8,0.8m-13.8,-28.05q-0.2,-0.45 -0.35,-0.05l-0.4,1.15l0.8,0.75l-0.05,-1.85m-11.8,34.85q0.15,-0.45 0,-0.65q-0.59238,1.77715 -2.55,4.6q-0.15059,0.31211 -0.35,0.6q-2.4,3.75 -2.85,4.95q0.55,-0.6 1.4,-1.85q1.35,-1.9 1.4,-2q0.49785,-0.42109 0.8,-0.7q0.07969,-0.04141 0.15,-0.1q0.35,-0.3 0.55,-0.3q-0.2,-0.1 -0.35,-0.1l1.85,-3.4l-1.5,1.8l1.45,-2.85z" fill="#1A1A1A"/>
   <path id="svg_6" d="m492.25,656.95l0,0.05q-1.35,0.8 -2.15,1l-4.95,1.4q4.19434,-0.75352 8.25,-1.8q-0.46113,-0.49883 -1.15,-0.65m-24.85,-70.85l0.4,0.45q-0.09863,-1.2623 -0.2,-2.55q-0.09434,1.05508 -0.2,2.1z" fill="#FFFFFF"/>
  </g>
  <g id="Layer0_0_MEMBER_2_FILL">
   <path id="svg_7" d="m788.2,458.7l-0.05,-0.4l0,0.05l0.05,0.35m-0.35,-3.2l-0.05,-0.7q0,0.075 0,0.15l0.05,0.55m1.45,-81l-0.1,0.7l0,0.1l0.1,-0.8m3,-17.05l0.15,-0.7q-0.1625,0.81133 -0.35,1.6l-0.25,1.3q-0.10664,0.63809 -0.25,1.25l0,0.2l0.65,-3.3q0.03984,-0.18184 0.05,-0.35m0.8,-3.9l-0.05,0.35q0.16602,-0.75781 0.3,-1.5l-0.25,1.15m0.7,-3.15l-0.05,0.35q0.12734,-0.54355 0.25,-1.1q0.06465,-0.28027 0.1,-0.55l-0.3,1.3m103.55,-163l-0.25,0.2q-0.02559,0.02559 -0.05,0.05l0.3,-0.25m88.5,-51.85l-11.1,4.8q-8.45,3.8 -12.1,5.55l-12.55,6.25q-7.6,4.05 -12.5,7q-5.7,3.3 -12.05,7.45q-6.3,4.2 -11.1,7.6q-4.85176,3.47949 -9.7,7.3l7.45,-5.55l20.5,-13.5l7,-3.85q3.90918,-1.99375 4.6,-2.2q-0.06855,-0.01855 -0.1,-0.05q-0.2,-0.05 -0.7,0.15l7.6,-4l23.5,-10.65l-19.4,8.05l29.1,-13.35q1.1,-0.55 1.55,-1m-0.45,1.85l6.2,-1.55q1.65,-0.6 4.9,-1.8l4.85,-1.8q-7.5,2.2 -15.95,5.15m-0.5,-3.1q1,-0.45 1.35,-0.55l3.7,-1.5l0.4,-0.2l4.1,-1.45l-3.65,0l-0.9,0.35l-0.25,0.15l-17.1,8.15l12.35,-4.95m210.9,6.55l-0.4,-0.15l-1.4,-0.4l1.8,0.55m-298.35,46.65l-2.15,1.7q-5.55,4.55 -10.9,9.55q-6.15,5.65 -10.65,10.2q-5.42031,5.46875 -10.45,11l24.3,-24.1l9.85,-8.35m290.9,-48.65q0.63984,0.13574 1.4,0.3l-25.75,-7l-25.55,-5.35l-12.5,-1.9q-8.5,-1 -15.05,-1.2q-7.45,-0.3 -14.2,0.15q-0.55,0 -1.65,0.1l-8.4,0.95l-0.25,0q0.04883,0.00117 0,0.05l-0.1,0l-2.25,0.4q-2,-0.5 -4.6,-0.65q-1.2,-0.15 -2.45,-0.15l-23.25,0.85l-1.6,-0.15q-1.55,-0.15 -2.45,-0.6l-11.95,1.25l-17.25,3.15q-6.55,1.45 -12.1,3.05q-4.8,1.35 -11.35,3.45q-6.9,2.25 -11.1,3.75q-5.7,2 -11.5,4.25q-6,2.3 -12.4,5l-17.6,7.85l0,0.05q-13.8,7.35 -25.95,15.4q-6.95,4.7 -11.9,8.4l-9.15,7.25l0.95,-0.7q1.1,-0.9 3.8,-3l16.35,-11.3q8.95,-5.6 17.9,-10.15l13.7,-6.4l6.1,-2.45l19.4,-6.65q0.2,-0.05 2.5,-0.75l8.3,-2.2l0.3,-0.05l9.25,-2.15q3.4,-0.75 10.2,-2.05l12,-2l15.6,-2q2.35,-0.3 2.45,-0.3l-2,-0.05q-0.2,0 -0.95,-0.15q-0.35,-0.2 -0.55,-0.3q-0.3,-0.2 -0.75,-0.3q5.2,-0.6 10.5,-1.05l14.05,-0.9l23.75,-0.5l35.2,1.05l39.1,2.2q2.55,0 5.1,0.15l12.4,0.75l11.5,1.55l0.3,0.1l4.45,0.95z" fill="#C1282D"/>
  </g>
  <g id="Layer0_0_MEMBER_3_FILL">
   <path id="svg_8" d="m1064.95,695.6l4.4,-1.1q0.65,-0.2 1.85,-0.35q-4.95,-0.35 -9,-0.25q-0.3,0 -3.45,0.15l-3.15,0.25q1.85,0.6 3.2,0.9q1.35,0.35 2.5,0.45l2,0.15q1.1,-0.1 1.65,-0.2m-43.4,-3.5q0.05,0.05 0.55,0.75q0.4,0.45 0.5,0.75q0.31992,0.67969 -0.45,0.95q3.01074,-0.78984 5.9,-0.65q1.95,0.05 4.05,0.55l0.8,0.15q0.1,0 -0.3,-0.25l-1.55,-0.9q-1.75,-1.05 -2.95,-1.9l-3.85,-0.45q-1.4,-0.05 -2.05,0q-1.1,0.2 -0.65,1m-167.25,-130.55q-1.8,-2.65 -2.7,-3.95q-1.55,-2.3 -2.65,-3.6q3.6,5.35 6.1,8.85l6.4,8.5l-1.35,-2.8q-1.15,-0.95 -3,-3.15l-2.8,-3.85m6.3,-0.9q-0.15,-0.1 -0.2,-0.1q-0.1,0.05 -0.15,0.05l1.95,2.2l-1.6,-2.15m-0.55,0.6q-0.15,-0.7 0.2,-0.65l-1.8,-1.85q-0.65,-0.5 -0.55,0.1l5.4,9.55l-1.35,-2.8q-0.9,-1.8 -1.2,-2.55l-0.15,-0.25l-0.55,-1.55m29.8,-311q-6.03867,7.40352 -11.1,14.6q-3.45,4.85 -6.55,9.7q-3.1,4.8 -6.1,9.95l1.95,-2.25l5.7,-9.35q1.95,-3.1 6.05,-9.1l6.45,-8.9q1.925,-2.475 3.6,-4.65m235.15,-82.15q-4.55,-0.6 -9.5,-1.05q-5.3,-0.5 -9.55,-0.7l7.2,1.65q6.9,-0.1 11.85,0.1m-6.1,-7.85l-3.75,-3.15q-6.55,-0.1 -11.75,0.05l-11.7,0.5l7.85,1.3l10.1,0.35q0.25,0.05 0.9,0.05l8.35,0.9m-128.05,24.55l10.45,-3.6q6.1,-2.1 11.4,-3.7q6.55,-2 11.95,-3.35q7.05,-1.7 12.3,-2.55l14.5,-0.3l1.95,0.2q0.85,0.15 1.25,0.35q0.10742,0.06719 0.15,0.15q-0.09727,-0.42617 -0.2,-0.7q-0.2,-0.7 -0.85,-1.05q18.65,-3 38.85,-3.45l-6.25,-0.4l-0.05,0l-5.6,-0.25q-5.35,-0.2 -12,-0.2q2.05,-0.4 4.5,-0.7l13,-0.8l0.2,-0.05l10.1,-0.2l8.8,-0.65q1.65,-0.3 2.1,-0.8l-23.3,0.75q-0.35,0.05 -0.95,0.05q-0.35,0.05 -1,0.05q-1.3,0.1 -1.95,0.1l-0.95,0.05q-0.35,0.05 -1,0.05l-24.2,2.2q-5.6,0.75 -8.1,1.15l-4.55,0.75l-24.45,5.9l-15.05,5.5q-6.1,2.6 -11.05,5.5m355.1,228.6q0.4,-2.85 0.75,-6.7l-4.5,-7.8l1.05,19.25q0.4,2.8 0.85,2.8q0.45,0.05 0.95,-2.15l0.9,-5.4m-11.5,-38.75q0.6,1.45 1.25,2.1q0.55,0.5 1.05,0.25q0.4,-0.15 0.95,-0.9l0.9,-1.2q1.1,-1.35 2,-0.1l-4.1,-10.35q-1.55,-3.8 -4.5,-10.05l5.4,14.8l0.1,0.8l0.05,4.15q-0.15,1.65 -0.45,2.1q-0.55,0.75 -1.9,-2l-4.65,-12.6l3.15,11l0.75,2m-11.1,-48.1l-0.45,-0.55q-0.4,-0.4 -0.65,-0.25q-0.25,0.05 -0.4,0.55q-0.1,0.35 -0.1,1.3l0.1,1.75l0.1,0.45l0.05,0.55l0.2,1.05q0.25,0.05 0.65,0.45l0.4,0.45q0.1,0.05 0.2,0.25l0.25,0.25l1.75,2.3q0.9,1.15 1.25,1.1q0.2,0 0.2,-0.5l-0.2,-1.55q-0.2,-0.7 -0.8,-2.25l-1.4,-3.4l-1.15,-1.95m-403.9,261.4l-0.05,-0.05l-0.05,0q0.05137,0.04844 0.1,0.05m385.2,-295.3l-0.4,-0.7l-16.45,-24.2q-10.5,-14.25 -22.45,-26.65l-11.2,-10.85l-8.3,-7.1l-14.45,-10.35l-5.95,-3.5q-6.65,-3.75 -13.05,-6.25q-3.5,-3 -9,-6.05q-4.1,-2.3 -10.35,-5.05q-7.55,-3.4 -9.15,-4.15l-3.35,-1.9q-1.5,-0.95 -2.15,-1.9l-19.8,-6.85l-17.7,-3.85l-8.65,-1.15q-6.05,-0.65 -13.4,-1q-6.2,-0.3 -13.3,-0.2l-15.65,0.4q-0.6,0 -0.9,0.05l-0.95,0q-0.3,0.05 -0.95,0.05l-27.4,2l-1.15,0l-2.4,-0.25q-0.95,-0.25 -1.2,-0.8l-24.75,6.1q-0.7,0.15 -2,0.55l-8.8,2.6l-23.55,8.35l-25.3,11.85q-3.3,1.8 -7.1,4.05l-13.6,8.75l-11.6,8.8l-22.55,18.85q-1.4,1.05 -2.05,1.4q-0.85,0.55 -1.4,0.65l1.05,-1.25l0.2,-0.2l1.05,-1.55q0.35,-0.7 0.2,-1.2q-0.1,-0.6 0.05,-1.05l0.5,-0.95l0.65,-0.9l-3.55,4.7l-0.55,1.15q-0.3,0.8 -0.4,1.7l-0.05,1.05l-0.05,0.15l0,0.1l0.05,-0.05l0,0.1q-0.1,0.9 -0.35,1.5l-0.85,1.6l-3.35,4.2q-3.15,3.5 -5,5.45l-2,-6.05q-0.2,1.05 -0.6,2.1l-0.95,2.05q-0.35,0.7 -1.25,2.1l-1.45,2.15q-2.25,2.95 -7.65,8.9q-5.85,6.7 -8.4,10.2q-4.45,6.25 -6.5,11.75q-1.9,1.45 -2.1,0.55q-0.15,-0.4 0.15,-1.35q0.3,-1.15 0.8,-2.3l3.4,-6.5q2.45,-4.2 5.2,-8l-3.8,5l-3.2,5.6l-5.8,13l-1.05,1.85q0.7,-5.8 1.9,-12.4q-1.1,4.65 -3.3,8.9l-4.6,6.95l-7.2,8.15q-1.5,1.85 -1.9,2.4q0.1,0.25 1.25,0.25q1.1,-0.1 1.55,0.35q0.6,0.7 0.05,2.9q-0.6,2.55 -2.9,7.9l-1.8,3.1q-0.55,0.75 -1,0.75q-0.45,-0.15 -0.65,-0.2q-0.35,-0.15 -0.75,0.25q0.7,1.15 0.2,5.55l-0.35,2.45q-0.35,1.95 -0.55,2.9l-1.75,7q-0.75,0.5 -0.9,-0.6q-0.2,-0.8 -0.1,-2.8q0.1,-2.3 0.05,-3.3q0,-1.7 -0.45,-2.1q-1.25,3.95 -3.25,10.9l-3.4,9.15l-0.55,5.45l0.1,0.75q0.1,0.55 0.35,0.55q0.2,0 0.55,-0.35l0.6,-0.65q0.4,-0.3 0.6,-0.25q0.25,0.1 0.4,0.75l0.1,2.4q-2,7.8 -3.15,9.45q-1,1.55 -2.25,0.25q-0.3,-0.25 -1.1,-1.3q-0.7,-0.85 -1.15,-1.15q-0.65,-0.4 -1.35,-0.15q-0.35,0.15 -0.75,0.55q-0.3,0.3 -0.4,0.5l-0.45,0.65q0.25,-6.55 1.15,-13.7q0.85,-6.8 2.3,-13.8q1.05,-5.25 2.8,-12.2q2.1,-8.25 2.25,-9.05l-6.7,24.5l-1.65,8.25q-0.45,-0.8 -1.85,2.1l-3.35,7.8q-0.45,0.8 -0.75,0.65q-0.3,-0.3 -0.3,-1.75l0.3,-4.95q-1.45,5.55 -2.8,12.85q-1.05,5.85 -1.9,13.45q-0.75,6.9 -1.05,13.85l0.45,27.8q0.45,6.5 1.3,13.55q1.55,12.35 4.4,25.4l-0.2,-6.9q0.1,-1.75 0.25,-2.3q0.15,-0.9 0.65,-0.55l1.9,10.75l0.1,2.35l-0.05,0.85q-0.1,1.1 -0.6,2.4q-0.6,1.55 -0.7,2.15l1.45,3.85q0.25,0.7 0.7,1.5l0.65,1.3l1.35,2l1.3,1.5q0.9,0.85 2.7,2.5l1.45,1.55l1.55,2.1q0.6,3.85 1.7,8.35l12.6,40.25l2.2,-2.65q1.15,3.15 1.9,4.85q1.05,2.25 2,3.75l1,1.6l5.4,6.9q0.65,0.7 2.4,3l1.2,1.8q0.8,1.05 1.3,1.95l2.8,4.8q0,0.4 -0.75,-0.15l-0.8,-0.65l-6.15,-6.6l3.9,5.55l5.2,10.05l0.8,1.3q1.2,1.75 2.15,2.9l3.1,3.55q-4.2,-2.8 -9.8,-6.85l13.25,16.35l0.7,1l0.4,0.8q0.65,1.45 -1.6,0.6q2.3,1.8 6.4,5.35l9,8.05l0.05,0l0,0.05l17.8,15.35l12.95,9.95q4.85,3.45 8.75,5.85q4.15,2.6 8.5,4.95l-2.9,1.4l2.55,1l31.05,15.65l10.75,4.2l7.8,1.9q1.3,0.15 2.45,0.15l1.4,1.7q12.55,2.4 25.7,3.65q0.7,0.15 1.9,0.55l2.85,1.05l1,0.5q1.5,0.9 1.85,1.85q0.2,0.6 -0.05,1.15q-0.05,0.15 0.1,0l18,2.55q7.75,0.9 16.15,1.55l14.85,1l0.45,0q0.3,0.05 0.85,0.05q1.2,0.1 1.7,0.1q0.3,0.05 0.85,0.05q0.25,0.05 0.8,0.05l1.55,0.1q0.3,0.05 0.8,0.05l0.05,0.05l0.8,0q1.1,0.1 1.6,0.1l3.1,0.25q0.6,-0.6 2.55,-1.35l3.05,-0.9l1.25,-0.25q3.1,-0.75 12.55,-2.3l23.7,-4.25l17.25,-3.65q3.5,-0.75 9.3,-2.3l18.4,-5.9q1.55,-0.5 4.55,-1.7l8.4,-3.5l0.3,-0.1l8.55,-3.95l21.8,-12.25q4.25,-2.6 8.15,-5.35q4.05,-2.75 7.95,-5.7q4.4,-3.4 7.65,-6.05q5,-4.1 7.45,-6.25l20.75,-20.3q13.25,-14.3 23.95,-29.95q10.75,-15.65 18.85,-32.65q7.9,-16.65 13.1,-34.25q5,-17.25 7.35,-34.6q0.9,-5.1 1.05,-11.2q0.2,-5.55 -0.2,-12.55q-0.25,-4.55 -1.05,-13.1l-1.4,-13l-0.15,3.3l-0.05,0.4l-0.8,26.9q-0.35,5.6 -1.4,12.35l-3.1,10.05l-0.25,0.45l-1.25,2.85l-9.95,17.7l4.85,-5.4l-0.2,1.4l-1.95,8.7l-0.25,0.7q-0.4,1.45 -1.1,3l-0.55,1.15q-0.25,0.7 -0.5,1.05l-0.95,2.05l-1.9,5.85l-1.1,5.05l-4.4,-2.6q0,1.35 -0.25,2.55q-0.3,1.4 -0.9,2.95l-0.65,1.55q-0.25,0.7 -0.75,1.6l-3.65,6.35l-2.05,2.85q-1.55,2.15 -3.6,4.4l0.45,6.25l-6.9,8.2l-4.7,4.75l-1.1,0.95q-1.3,1.15 -2.05,1.6q-0.8,0.55 -1.9,1.1q-1.1,0.5 -1.85,0.7l3.3,0.9l-1.05,0.85l-5.3,6.05q-5.6,6.65 -9.8,11.1l-3.6,3.6l-4.7,3.85q-1.45,0.85 -1.75,0.2q-0.1,-0.5 0.1,-1.2l0.8,-2.2l-3.55,5.95l-0.15,0.15l0,0.05l-0.1,0.1l-0.3,0.4q-0.8,1.1 -1.4,1.75l-0.75,0.85l-2.9,2.7l-3.05,-1.5l-12,11.65l-5.25,3.9q-0.9,0.55 -1.1,0.65l-1,0.55q-1.15,0.45 -1.65,0.55l2.65,-2.95l1.6,-2.35q0.6,-1.1 0.9,-2l0.55,-1.8l-10.9,8.8l-5.9,5.55q-0.9,0.95 -1.55,1.95q-0.45,0.7 -0.85,1.65q-0.25,0.65 -0.35,1.4q-0.1,0.4 -0.1,1.25q-0.15,2.1 -0.25,2.55q-0.4,1.45 -1.85,3.25l-2.15,2.15l-3.25,2.55q-4.7,3.35 -10.95,6.5l-0.45,-2.1q-3.85,3.05 -8.95,6.65q-5.65,1.1 -11.6,1.95l-4.2,3.3l-5.25,2.75l-5.1,2q-5,1.75 -10.55,3.1q-5.2,1.25 -11.85,2.3q-4.9,0.85 -12.5,1.65q-4.05,0.5 -12.45,1.2l-11.8,0.95q-6.1,0.55 -10.65,1.25l-3,0.05q-0.7,0 -1.05,-0.05l-2.25,-0.1l-30.3,-5.1l-0.4,-0.1l-6.1,-0.85l0.75,3.35l-0.7,-0.3l-6.75,-2.15q-7.9,-2.45 -10.3,-3.25q-7.85,-2.75 -11.9,-4.35q-6.35,-2.45 -12.45,-5.35q-6,-2.85 -11.9,-6.2q-5.8,-3.35 -10.4,-6.7q-4.75,-3.45 -8,-6.55l-0.8,-0.75l-3.65,-4.3l-0.4,-0.65l-5.5,-2q-0.35,0 -0.15,0.2l0.35,0.35l3.55,2.7q1.65,1.45 1.1,2.1q-4.2,-1.85 -8.4,-4.15l-3.35,-1.95l-6.5,-4.65l-4.45,-4.25l-5.15,-6.5q-3.45,-4.65 -5.85,-7.25l-3.6,-2.55q-1.05,-0.7 -0.95,-0.35q0,0.25 0.85,1.2l5.85,6.5q1.45,1.85 -1.55,0.45l-8.65,-8.4l-7.75,-6.25l-0.05,0l-0.05,-0.05l-0.05,-0.05l-3.2,-2.4q-0.35,-0.2 -0.95,-0.7l-0.5,-0.35l-6.05,-5.3l-1.25,-1.3q-0.2,-0.2 -1.3,-1.4q-0.45,-0.35 -0.7,-0.75l-0.7,-0.75l-4.5,-5.6q-1.55,-2.1 -3.35,-4.7q-0.2,-1.25 0.75,-0.6l1.1,0.95l4.65,4.85q0.3,0.3 1.55,1.45l1.3,0.95q-3.25,-2.85 -6.8,-6.65q-3.45,-3.7 -7.15,-8.45q-4.05,-5.35 -7.1,-9.95q-3.2,-4.75 -6.8,-11.15l-8.45,-16.65l-3.35,-7.9q-2.35,-5.65 -4.75,-12.75q-2.25,-6.5 -4,-12.5l-2.35,-12.2l-2,-14.35l-1.6,-32.5l0.7,-16.4l2.45,-21q0.8,-5.1 1.7,-9.15q0.6,-3 2,-8.9q1.2,-4.7 2.4,-8.6q2.6,-8.65 5.7,-16.25l-0.85,-1.15l9.9,-21.05l9.85,-19.45l8.35,-12.4q-3.9,4.15 -7.2,8q1.8,-4.15 4.45,-8.7q2.2,-3.6 4.7,-7.05l10.75,-14.15l7.5,-3.5l4.05,-5.5l0.3,-0.55q0.9,-1.5 1.1,-2.7q0.2,-1.45 0.5,-2.3l0.35,-0.8l0.15,-0.25l-0.05,0.05l-0.05,0.05l0,-0.05l0.05,0l0,-0.05l2.4,-3.55l1.05,-0.75l19.75,-16.25q5.7,-4.7 10.3,-8.15l2.15,-1.55l0.45,-0.4l4.2,-2.85l0.7,-0.1l0.45,0q0.25,0.15 0.2,0.45l-0.2,0.35l-0.35,0.45q-0.25,0.35 -1,1.1l-2.55,2.5q-1.4,1.35 -1.85,2.05l2.3,-1.9q0.55,-0.35 1.05,-0.85l12.3,-11l8.75,-5.8l5.6,-2.85l0.75,0.7q3.85,-2.3 8.55,-4.7q4.75,-2.4 9.15,-4.3q9.95,-4.25 19.75,-7.2q9.95,-3.05 21.35,-5.2q11.4,-2.1 22.4,-3.05l11.5,-0.75l0.35,-0.05l9.15,-0.2l0.35,-0.05l11.85,0.15l0.35,0.05l1.1,0q5.2,0.2 11.5,0.7q5.05,0.4 11.4,1.15q5.65,0.7 11.25,1.65q10.35,1.7 21.8,4.5l-2,-0.85q-0.6,-0.25 -0.85,-0.6q-0.4,-0.75 -1.05,-1.3q5.95,1.6 11.3,3.3q5.9,1.85 11.3,3.95q11.35,4.3 22.2,9.85q10.55,5.35 21.3,12.2q10.45,6.65 20,14.05q9.75,7.55 18.45,15.35l1.1,0.95l0.1,0.05l0.05,0.05l0.1,0.15l15.5,14.65q3.6,3.6 7.75,8q4.9,5.2 7.3,7.9q2.35,2.6 6.85,7.8l3.25,3.8q0.3,0.3 0.4,0.5l2.75,3.25z" fill="#FFFFFF"/>
  </g>
  <g id="Layer0_0_MEMBER_4_FILL">
   <path id="svg_9" d="m916.4,701.75q0.1,0 -0.15,-0.35l-2.45,-4.25q-3.5,-1.85 -4.85,-2q-1,-0.1 -1,0.9l0.1,0.95q0.1,0.65 0.05,0.95q0,0.79043 -0.7,0.95q1.25332,-0.06426 2.65,0.1l2.55,0.65q1.85,0.65 3.2,1.7q0.35,0.2 0.6,0.4m21.45,8.2q0.95,0.75 1.9,1.3l0.8,0.45l0.8,0.3l1.45,0.35q0.75,0.15 2.7,0.15q1.85,0 3.15,0.25l-5.7,-2.6l-1.6,-0.55q-1.45,-0.55 -2.95,-0.95l-2.75,-0.7l2.2,2m-146.7,-166.6q-1.1,-2.1 -2,-3.4q4.5,8.8 9,16.55l-0.7,-2.7l-2.35,-3.05l-3.95,-7.4m16.3,-244.85l1.55,-2.2q6.2,-17.15 15.65,-35.15q-10.05,18.3 -17.2,37.35m178,-160.85l6.5,-0.8l9.45,-4.5q-7.5,2.25 -15.95,5.3m2.6,-13.4l-0.25,0.15l-0.3,0.1l-17.45,8.6l5.7,-0.95l12.6,-4.8l4.7,-1.35l-4.4,-2l-0.6,0.25m-4.35,10.55q1.15,-0.9 1.35,-1.65q-3.9,2 -10.95,5.45q-9.2,4.5 -12.05,5.9q-7.75,3.95 -12.55,6.55q-5.95,3.2 -12.5,7.1q-6.85,4.15 -11.9,7.7q-5.75,3.9 -10.9,8.05q-5.1,4.05 -9.35,8.15l-7.4,7.9l24.05,-18l0.3,-0.15l9.8,-6.35l9.85,-3.75q2.5,-0.8 3.9,-0.95q0.95742,-0.14512 1.35,0.05q-0.23887,-0.37441 -0.4,-0.6q-0.5,-0.7 -1.25,-0.95l14.7,-8.6q8.15,-4.4 15.3,-7.7l-19.8,7l1.55,-1.05l10.75,-5.8l13.3,-6.45q1.55,-0.8 2.85,-1.85m298.85,57.05l6.4,5.55q5.3,4.8 6.25,5.7q3.85,2.6 1.9,-1.15l-6.05,-8.95l-8.5,-1.15m-21.15,-15.7l1.7,1.85q0.8,0.85 1.15,1.45l0.4,0.6l0.25,0.5q0.2,0.4 0.2,0.75q-0.1,0.55 -0.8,0.55q-0.5,0 -0.85,-0.1l-1.05,-0.25l-10.85,-4.8l7.6,4.45l2.85,1.3l1.3,0.35q0.5,0.05 0.95,0q0.7,-0.15 1,-0.75q0.2,-0.5 0.25,-1.4q0.05,-1.1 0.1,-1.6q0.1,-1.8 1.6,-1.75l-18.4,-7q7,3.1 12.6,5.85m-35.05,-17.35l1,1.25l1.35,1.25q0.45,-0.25 1.9,-0.1q0.85,0.1 2.6,0.3l1.05,0q0.4,0 0.6,-0.2q0.1,-0.25 -0.1,-0.55l-0.35,-0.45l-0.6,-0.6q-3.4,-2.1 -5.75,-2.85q-1.85,-0.55 -2.2,0.1q-0.35,0.55 0.5,1.85m-426.55,389.85l-0.2,-1.75q0,-0.65 0.4,-0.55q-0.9,-1.3 -1.5,-1.8q-0.25,-0.25 -0.45,-0.25q-0.15,0 -0.15,0.3q0,1.75 3.2,9.15l-1.3,-5.1m1.75,-0.2l-1.2,-2.1q-0.1,-0.1 -0.2,-0.05q-0.1,0.05 -0.15,0.05l1.55,2.1m18.8,-259.75l-2.2,3.95l-1.9,4.85l-1.05,5.1l1.25,-4.45l3.9,-9.45m375.25,-144.5l-11.65,-4.2q-6.3,-2.25 -13.2,-4.5q-7.25,-2.35 -14.35,-4.3q-7.35,-2 -15.1,-3.6q-7.95,-1.55 -15.4,-2.5q-7.9,-0.95 -15.05,-1.15q-7.4,-0.2 -14.15,0.3l-9.65,1.3l-0.4,0.1l-0.2,0l-0.05,0.05l-0.1,0l-2.25,0.5q-1.85,-0.45 -4.6,-0.7l-3.7,-0.15q-0.6,-0.05 -1.25,0q-1.75,0 -5.05,0.2l-13.8,1.05l-3.4,-0.25q-1.55,-0.3 -2.5,-0.9q-7.85,0.55 -15.55,1.85q-7.55,1.35 -13.45,2.95q-5.25,1.4 -11.9,3.65q-5.45,1.95 -11,4.25q-4.2,1.75 -10.6,4.75l-10.9,5.3q-6.8,3.35 -11.75,5.95q-7.6,3.9 -13.1,6.85q-1.2,0.45 -1.8,0.55q-0.65,0.2 -1.25,0.2q-0.9,0 -1.4,-0.5q-8.65,6.45 -12.05,9.05l-11.45,8.8q-12.45,9.7 -21.8,17.8q-6.1,5.35 -10.45,9.35l-2.6,2.4q-0.4,0.45 -1.3,1.25l-0.95,0.9l-0.3,0.35l-2.05,2l-0.1,0.05l-0.05,0.1l-0.35,0.3l-2.3,2.3l-0.25,0.3q-5.05,5.1 -10,10.75q-5.7,6.55 -9.6,11.8l-13.4,16.75l-1,1q-2.05,2.05 -2.85,2.1l0.95,-1.85l0.4,-1.15q0.1,-0.7 -0.2,-1.2q-0.35,-0.7 -0.35,-1.05q0,-0.4 0.2,-1q0.1,-0.3 0.65,-1.55l-0.65,1.15l-1.25,2.85l-0.45,1.45l-0.15,1.15q-0.05,0.85 0.15,1.7q0.15,0.45 0.45,1.3q0.45,1.65 -0.4,3.8l-0.7,1.55l-4.5,7.4l-4.25,-5.8q0.1,0.7 0.1,2.05l-0.3,2.05q-0.2,1.05 -0.6,2.1l-0.9,2.05q-0.55,1.25 -1.05,2.15l-4.2,6.65q-4.1,6.2 -6,9.9l-2.1,4.7l-1.1,3.55l-0.55,2.9l-0.8,0.55l-0.6,0.3q-0.55,0.15 -0.8,-0.3q-0.25,-0.4 -0.25,-1.25q0,-0.75 0.25,-2.15l-1.6,6.9q-0.35,1.15 -0.55,1.6l-0.65,1.8l-1.35,-11.6q0.05,0.6 0,1.15l-0.05,1.15q0,0.75 -0.2,2.15l-0.4,2l-1.25,3.65l-0.8,1.7l-2.9,4.45l-6.8,8.4q0.3,0.25 1.5,0.15q1.4,0 1.85,0.35q0.9,0.6 0.75,2.6l-0.45,2.9q-0.05,0.35 -0.5,2l-0.7,2.35l-0.4,0.95l-1.05,1.85q-0.45,0.6 -1,0.7l-0.8,-0.2q-0.45,-0.1 -0.8,0.25q0.4,0.35 0.8,1.7l0.4,2.3l0.15,3.8l-1,8.25q-0.8,0.45 -1.2,-0.5q-0.15,-0.3 -0.35,-1.1l-0.7,-4.4q-0.35,-1.55 -0.9,-1.85q-0.8,3.55 -2.05,9.75l-1.15,4.25q-0.6,1.65 -0.75,2l-0.8,1.9l-0.05,3.7q0.05,1.15 0.25,1.8q0.3,0.8 1.1,0.15q1.05,-0.8 1.3,-0.75q0.35,0.1 0.6,0.65l0.4,2.1q-1.5,6.75 -2.8,8.35q-1.1,1.35 -2.7,0.25q-1.85,-1.7 -2.9,-2.2q-1.8,-0.8 -3.35,1.4l0,-13.7l2.75,-26.1q0.3,-2.8 0.35,-3.6q-3,14.55 -4.65,29.25q-0.6,-0.75 -1.85,1.85l-2.25,5q-1.15,2.8 -1.75,2.45q-0.3,-0.15 -0.55,-1.5l-0.2,-4.35q-2.35,10.7 -3.35,23.15l-0.7,19l1.25,23.45l2.1,16.7l2.05,11.55l0.35,-6.1q0.15,-1.35 0.45,-2q0.3,-0.7 0.85,-0.5l1.25,8.15q0.2,2.65 -0.2,4.2q-0.25,1 -1,2.05q-0.8,1.2 -1.05,1.9q0.5,1.75 1.2,3.45l0.65,1.3q0.05,0.05 0.65,1.15q1.15,1.85 2.7,3.1q0.1,0.1 2.8,2.25q0.95,0.8 1.45,1.4l1.5,1.85q0.25,3.6 0.3,3.95l0.5,5.2l5.7,35l3.2,-2.4l0.85,4.5q0.55,2.05 1.25,3.55q0.55,1.25 1.45,2.9l2.3,3.5l0.25,0.3l3.45,5.9q0.6,1.2 0.85,1.9q0.3,0.55 0.4,1.05l1.25,3.55q-0.25,0.65 -2.35,-1.8q-1.75,-2.15 -4,-5.4l1.95,3.75q0.25,0.4 0.7,1.6l2.3,8.5q0.35,1.25 0.8,2.45l2.4,4.55l1.25,1.8l-8.5,-6.85l8.85,15.6l0.1,0.3l0.15,0.3q0.55,1.1 0.55,1.8q0.15,1.4 -1.9,0.5q3.65,3.75 10.3,11.9l11.45,14.4q6.6,8.15 12.45,14.5q6.8,7.25 12.8,12.35l-3.4,1.2l3.2,2.05l5.95,4.95l0.05,0l0,0.05l0.1,0.05l0.05,0.1l0.2,0.15l10.6,9.8q6.4,5.85 11.2,9.35l2.65,1.8q1.35,0.9 2.5,1.45l2.35,1.1q0.85,0.35 2.1,0.65l0.45,2.1l20.8,9.6l1.95,1.55l0.5,0.5q0.75,0.7 1.45,1.7q0.85,1.4 0.7,2.45q-0.1,0.7 -0.6,1.25q-0.15,0.15 0.1,0q5.7,3.35 13.95,7.8q6.6,3.55 12.65,6.55l21.6,11.2q0.4,-0.25 1.15,-0.4q0.9,-0.2 1.55,-0.2l6.45,0.55l8.65,1.75q4.25,0.9 13.6,3.05q7.6,1.75 14.05,3.05q16.25,4.25 33,6.4l21.15,1.95q1.4,0.1 4.2,0.2l8.55,0.25l34.05,-1.5q8.15,-0.8 16.9,-2.2l8.4,-1.45q5.85,-1.15 8.3,-1.75q8.25,-1.8 16.4,-4.2q7.45,-2.15 16,-5.15q15.75,-5.7 30.35,-13.15l0.45,-0.2l13.75,-7.6q6.5,-3.8 13.55,-8.5q7.15,-4.85 12.75,-9.1q6.35,-4.8 11.95,-9.6l3.65,-3.05q2,-1.9 3.6,-3.65l7.15,-8.45q1.9,-2.4 7,-9.3l6.85,-9.3l-19.4,18.6l-8.25,7l-5.5,3.1l-5.85,2.2q-1.5,0.5 -3.35,0.9l-14.35,3.5l6.85,0.15l-5.3,4.35q-0.5,0.45 -0.85,0.6l-4,2.35l-1.95,0.8q-1.5,0.6 -1.85,0.75l-2,1.1q-1.3,0.85 -2.5,1.85l-3.45,3l-2.3,-5.65q-0.15,0.35 -0.65,0.95q-0.5,0.6 -0.8,0.85q-0.6,0.55 -2.2,1.65l-0.3,0.2l-0.35,0.15l-2,1.05l-6.1,2.15q-1,0.3 -3,0.7l-4.95,0.8l-2.6,5.6q-10.05,1.8 -13.9,2l-4.95,-0.15q-0.75,-0.1 -2.05,-0.5q-1.05,-0.4 -1.75,-0.85l2.15,3.35q-0.45,-0.05 -1.2,0l-13.1,2.75q-3.55,0.85 -6.4,1.3l-7.95,0.95q-1,0 -1.75,-0.15q-1.5,-0.25 -1.35,-1.1q0.2,-0.95 2.2,-2.5q-0.5,0.25 -2.2,1.25l-0.55,0.35l-1.9,1q-0.55,0.3 -1.5,0.65l-1.75,0.6q-1.9,0.55 -4.4,0.75l-1.6,-3.65l-12.65,2.55l-3.25,0.35q-0.55,0 -0.8,0.05l-3.4,0q-1.2,-0.05 -2.1,-0.3l-0.85,-0.25q-0.1,0 -0.65,-0.3l0.5,-0.1l2.85,-0.95l2.3,-1.25q0.8,-0.5 1.6,-1.3l1.25,-1.4q-7.75,0.6 -12.25,1.25q-2.55,0.4 -4.05,0.8l-2.95,0.85q-2.2,0.85 -3.45,2.1q-0.85,0.85 -1.6,2.4q-0.95,1.95 -1.35,2.45q-1.15,1.35 -2.9,2.15l-0.6,0.25l0.05,0l-0.1,0.05l-0.15,0.05l-3.75,0.95l-0.25,0l-1.45,0.25l-11.2,0.3l0.55,-2.5q-3.55,0.8 -9.8,2.05l-9.7,-4.1l-1.45,0.55q-0.75,0.3 -1.55,0.45q-1.2,0.3 -3.5,0.6q-1.85,0.15 -3.95,0.15l-7.8,-0.7l-7,-1.3l-0.3,-0.1l-9,-2.35q-3.5,-1 -10.5,-3.3l-22.4,-7.45l-6.7,-1.65l-4.1,-1.75l-17.95,-12.3q-5.8,-3.8 -10.05,-6.1l-1,3.85l-20.55,-18.4q-3.8,-3.55 -8.5,-8.4q-4.1,-4.25 -8,-8.85l-8.1,-10.85l-3.8,-6.85l-1.45,-3.8l0.05,0.05l0,-0.05l-0.05,-0.1l-0.45,-1.75l-3.15,-2q-1.1,-0.55 -1.45,-0.65q-0.55,-0.15 0.35,1l1.5,1.95l0.5,0.8q1.05,1.75 0.35,2.4l-5.2,-4.05l-0.15,-0.15l-1.25,-1.05l-4.65,-4.6l-3.8,-5l-1.5,-2.75l-6,-14.55l-2.75,-2.65q-0.85,-0.6 -0.9,-0.35q0,0.35 0.5,1.2l1.2,2.2q2.15,3.95 2.35,4.55l0.15,0.7q0,0.3 -0.2,0.35q-0.2,0.1 -0.6,-0.05l-1.1,-0.55l-2.1,-3.45l-6.85,-9.1l-8,-7.9l-5.7,-7.85l-5.05,-10q0.2,-1.25 1.05,-0.55l0.85,0.9l3.4,4.75l1.2,1.4q0.3,0.35 1.05,1q-1.8,-2.15 -2.5,-3.1l-4.5,-6.35l-8,-14.75q-2.4,-5.25 -4.45,-10.45q-2.2,-5.6 -4.05,-11.15q-2,-6.1 -3.55,-11.5q-2.1,-7.7 -3.05,-11.5l-2.6,-11.2q-0.75,-6.2 -1.35,-13.5q-0.7,-8.25 -0.95,-14.75l0.05,-29.15l0.05,-0.15l0.35,-6.85l0.05,-0.25l0,-0.25l0.3,-3.6q0.2,-2.6 0.8,-8.2l2.3,-16.2q1.5,-8.4 3.35,-15.5l4.2,-14.5l-1.2,-1.05q2.3,-4.85 4.7,-11.55q2.6,-8.05 3.95,-12.2q2.6,-7.9 4.45,-12.55q2.7,-6.85 6,-12.5l-5.65,7.6q0.35,-1.85 1.1,-4.35l1.95,-5.6l9.25,-18.7l4.7,-2.45l0.4,-0.25l1.7,-0.85q2,-4.05 2.5,-5.95q0.25,-1.1 0.25,-1.6l-0.1,-1.1q-0.25,-1.8 -0.25,-2.25l0.05,-0.8l0.25,-1l0.95,-2.75q2.8,-2.6 7.2,-8.05q2.15,-2.6 7.85,-9.95q4.7,-5.95 7.2,-9l4.8,-5.55q2.5,-1 0.7,2.3l-2.2,4.15q-0.3,0.7 -0.35,1l5,-7.45q0.65,-1.05 1.65,-2.95l1.95,-3.6l-0.05,0.05l0.05,-0.1l2.3,-3.45l6.35,-7.3l2.45,-2.3l0.95,0.65l0.35,-0.45l17.4,-17.3l13.3,-10.65l16.85,-11.25l11,-6.25q8.9,-4.75 17.95,-8.65l9.8,-4.05l0.3,-0.1l0.3,-0.15l8.2,-3q6.3,-2.2 9.45,-3.2l28.4,-7.75q-1.6,0.1 -1.95,0.05q-0.6,-0.05 -0.9,-0.3q-0.65,-0.65 -1.4,-0.95l10.2,-1.85q6.9,-1.1 10.4,-1.55l28.8,-2.35l7.5,-0.2l0.35,-0.05l6.35,-0.05q10,-0.05 21.45,0.5q9.25,0.4 20.95,1.5l29.65,3.75l27,4.4z" fill="#C1282D"/>
  </g>
  <g id="Layer0_0_MEMBER_5_FILL">
   <path id="svg_10" d="m406.5,667q-0.25,-0.15 -1.1,-1.1q-0.6,-0.6 -1.5,-0.85l0.05,1.2q-0.3,-0.7 -1.75,-2.1q-1.15,-1.2 -1.2,-2.4l-0.45,0.3q-0.85,-2.1 -3.1,-5.8q-2.4,-3.95 -3,-5.35q-0.75,-0.7 -2.15,-2.45q-1.45,-1.65 -2.2,-2.35l-0.4,-0.35l-1.2,-2.3q-0.65,-1.3 -1.5,-1.85q0.15,0 0.65,0.5q0.35,0.4 0.7,0.05q-0.05,-1.5 -1.35,-2.25q-0.65,-0.4 -0.8,-0.65q-0.35,-0.5 -0.3,-1.35q-0.7,-0.2 -0.75,0.75q-0.1,0.7 -0.65,0.15q0.1,-0.45 0.5,-1.1q0.5,-0.8 0.55,-0.95q0.4,-1.2 -0.9,-2.35q-0.45,0.2 -0.5,0.75q0,0.3 -0.85,-0.15q1,-0.8 1.45,-2.2l0.45,-1.3l0.6,-3.85q0.35,-1.5 0.55,-1.9l-1.35,0.6q-0.25,-0.55 -0.25,-1.2l0.3,-1.15q0.45,-1.3 0.15,-1.7q-0.35,-0.3 -0.6,-0.75l-0.4,-0.95l-0.4,-3.25l-0.3,-0.95q-0.45,-0.85 -1.65,-1l0.85,-1.3l-1.2,-0.7l1,-0.15q-0.35,-1.2 -1.2,-1.5q-0.35,1.1 -0.75,2.3q-0.9,2.55 -2.15,5.4l-2.55,5.15q0.1,0 0.3,-0.05q0.1,0 0.3,-0.2q-1.65,3.8 -5.3,9.65l-2.85,4.7q-1.5,2.4 -2.5,4.4l-0.25,-0.15l-0.85,1.3l-0.6,1.9l-0.6,1.15q0.65,-1.45 0.05,-1.2q-0.25,0.3 -1.55,2.15l-1.65,2l-0.6,0.4q-0.2,0.55 -0.1,1.1q0.05,0.3 -0.45,1.25l-1.2,0.2q-0.45,0.7 -1.4,1.7l-0.65,0.8l-0.65,1.1l1.2,-0.75l-3.85,4.3l-1.45,1.1l0.15,0.25q-2.05,1.7 -6.75,6.05q-0.4,0.4 -0.8,0.75l0.4,0.05q0.7,0.05 1.25,0.1q-0.6,0 -0.45,0.3l1.2,0.35l0.9,0.1q0.65,0.05 1.3,-0.05q0.8,-0.15 1.2,-0.05q0.7,0 1.75,0.35q0.6,-0.15 -0.5,-0.55q-0.85,-0.35 0.2,-0.35l1.8,1.2q0.45,0.25 1.2,0.4q1.1,0.1 2,0.05q0.05,-0.2 -0.6,-0.45q-0.35,-0.15 0.55,-0.35q0.35,0.45 0.8,0.75l1.1,0.65l5.85,1.9q1.7,0.6 2.05,0.75l-0.1,-0.75l1.5,0.2l2.45,0.75q0.6,0.15 1,0.1q1.2,-0.3 5.4,0.1l1.35,0.1q0.85,0 1.25,-0.05q1.35,-0.1 1.9,-0.65l1.35,0.55l1.2,-0.5l0,0.45q0.9,0 1.45,-0.15l0.8,-0.35q0.4,-0.3 0.5,-0.85q0.2,-0.65 0.6,-0.95q0.45,-0.2 1,-0.25l1.6,-0.2q-0.3,0.4 -0.35,0.45q-0.3,0.35 -0.75,0.45l0.45,0.2l0.75,0l1.95,-0.35l0.15,0.7q0.55,0 1.05,-0.25q0.45,-0.3 0.6,-0.4q-0.9,0.9 1.2,0.8l1.65,-0.1q0.9,-0.1 1.1,0.05l-0.25,-0.7q0.45,0.45 1.15,0.65l1.8,0.3l0.55,-0.9q1,0.2 1.45,0.2l0.8,-0.1q0.4,-0.15 0.6,-0.35l0.1,1.15q0.85,-0.55 1.45,-0.55q0.9,0 1.85,-0.45l-0.85,-0.55l1,0.2l0.95,0.35q1.25,0.35 2.1,0.25q0.15,-0.05 0.4,-0.05q-0.35,-0.15 -0.55,-0.25q0.25,-0.05 0.8,0.05q0.15,0 0.2,0q0.1,-0.05 0.3,-0.05q0.15,-0.1 0.2,-0.35q-0.8,-0.65 -1.35,-1.3q-1.2,-1.1 -1.2,-2q-0.5,-0.1 -1.25,0.3q-0.65,0.3 -1.3,-0.1l0.7,-1.5z" fill="#FFFFFF"/>
  </g>
  <g id="Layer0_0_MEMBER_6_FILL">
   <path id="svg_11" d="m785.7,610.65q1.35,0.8 2.65,1.8q-1.25,-7.35 -1.95,-15.05q-1.2,15.05 -4.3,29.15q0.05,1.1 0.55,1.45q-0.45,0.7 -0.75,2l-0.5,2.6q0,-0.05 -0.3,-0.05q-0.3,-0.05 -0.5,0.15q-0.05,0.25 -0.1,0.5l0.35,1.95l-0.35,0.05q0.4,0.6 -0.05,2.3q-0.45,1.75 -0.25,2.35l-0.6,-0.35l-0.6,3.2q-0.45,2.15 -0.25,3q-0.35,-0.45 -0.6,0.15q-0.15,0.35 -0.4,1.35l-0.5,-1.15q-0.05,0.6 -0.5,0.95l-0.35,0.35l-0.25,0.6l0,-0.3q-0.4,0.95 -0.75,1.9l0.55,0.15q-0.55,0.4 -0.85,0.9q-0.6,1.45 -1.15,3q0.05,0.05 0.15,0.2q0.4,0.5 0.4,1.05l-0.1,0l0.05,-0.1l-0.2,0l-0.3,0.05q-0.3,0.2 -0.45,1.05q0.2,0.1 0.75,-0.55l-0.65,3.45l0,0.15l-0.05,0.1l-0.05,0.3l-1.4,3.7l-0.1,0.2q0.05,-0.45 -0.1,-0.6q-0.05,0 -0.35,0.15q-0.7,0.5 -0.8,0.35l-0.6,2.6q-0.1,-0.35 0.15,-1.7q-4.8,12.8 -11.2,25l-0.3,1.1l-0.3,0q-4.9,9 -10.7,17.75l7.2,-0.8q5.15,-0.65 11.6,-1.1l11.5,-0.35q6.15,0.15 11.4,1q1.6,-0.35 2.4,-0.65l1.2,-0.45l1.1,-0.65q1.15,-0.7 1.8,-1.75q0.65,-1.05 0.85,-2.65q0.85,0.5 1.85,0.8l1.05,0.1q0.55,0.1 1.1,0l1.1,-0.05l3.7,-1q0,-0.65 0.2,1.25q0.35,2.35 1.4,2.4q2.1,-2.85 3.25,-4.6l0.45,1.25q0.3,-1.4 1.45,-2.3q0.85,-0.45 2.3,-0.65l1.2,-0.25q0.65,-0.1 1.15,-0.35q1.15,-0.55 1.6,-1.9l0.2,2.55q0.25,0.05 0.65,0.15l0,-0.05l0.65,-0.45l6.15,-2.55l0.95,-0.7q0.85,-0.65 1.45,-1.55q0,-0.3 -0.1,-0.55q-2.35,-2.4 -4.6,-4.8q-0.9,1.1 -1.3,1.4l0.6,-2.05l0.1,-0.05q-12.85,-14.15 -21.25,-31.1l-0.3,1.15l0.7,1.3l2.5,3.5q0.5,0.8 0.7,1.6q-1.15,-0.15 -2.3,-0.75q-1.25,-0.75 -1.95,-1.4q-1.35,-1.2 -3.3,-3.9l-3.05,-4.15l-1.8,-1.8q-1.1,-0.95 -2.05,-1.45q1.15,-0.4 2,0.05l0.8,0.45l2,2.2q0.85,0.85 1.5,0.95l-0.4,-4q2,2.15 3.75,3.8q-2.3,-4.75 -4.15,-9.7l-0.7,-0.5q-0.65,-0.55 -1.65,-1.65l-1.3,-2.2l-0.6,-1.6l-0.2,-1.05q1.15,-0.75 1.15,-1.55q0.05,-0.55 -0.5,-1.5q-0.55,-1 -0.7,-1.65l-0.05,-0.9q0.05,-0.15 0.15,-0.45q-0.1,-0.4 -0.25,-0.8l-0.9,-0.4l-1.15,-0.8l-0.95,-1l-0.8,-1.1q-0.7,-1.2 -1,-2.5l-0.6,-2.75l-0.35,-5.5q-0.1,-3.05 -0.7,-4.7m-1.55,19.8q0.1,0.25 -0.35,0.65q-0.1,-0.8 0,-1.25q0,0.15 0.35,0.6m11.55,15.8l-0.55,1.6l-1.55,-2.6l2.1,1m-7.35,7l-0.4,0.8l-3.6,-2.45l2.5,-1.9q0.1,0.55 0.55,1.25l0.75,0.85q0.3,0.35 0.3,0.85q0,0.4 -0.1,0.6m-11.8,-4.95l-0.15,0.2q-0.1,0.05 -0.2,-0.3q0.1,0.05 0.3,-0.05l0.35,-0.4l-0.3,0.55m27.4,39.1q0.75,0.15 1.05,-2.65q-0.05,0.75 0.35,2.65q0.25,1.65 -0.6,2.2q-0.1,-0.35 -0.85,-2.05q-0.05,-0.2 0.05,-0.15m-4.05,3.7q0.4,-1 1.35,0.5q-0.95,1.7 -2,1.6q0.3,-0.55 0.65,-2.1m18.05,-5.1q-2.25,-1.25 -6.7,-3.95q3.95,2 6.7,3.3l0,0.65z" fill="#FFFFFF"/>
  </g>
  <g id="Layer0_1_MEMBER_0_FILL">
   <path id="svg_12" d="m1204.85,481.85q0,-26.45 -17.5,-43q-17.4,-16.45 -42.65,-16.45q-25.3,0 -42.55,16.45q-17.4,16.55 -17.4,43q0,26.75 17.5,43.4q17.4,16.65 42.45,16.65q25.05,0 42.55,-16.8q17.6,-16.75 17.6,-43.25m-60.15,-37.6q15.95,0 26.85,10.3q10.9,10.3 10.9,27.3q0,17.15 -10.9,27.8q-10.9,10.7 -26.85,10.7q-15.95,0 -26.85,-10.7q-11.05,-10.65 -11.05,-27.8q0,-17 11.05,-27.3q10.9,-10.3 26.85,-10.3m-221.25,37.6q0,-16.75 11.4,-27.2q11.25,-10.4 27.2,-10.4q16.45,0 27.2,10.75l17.05,-14.1q-17.05,-18.5 -44.25,-18.5q-25.3,0 -42.9,16.45q-17.75,16.55 -17.75,43q0,26.5 17.75,43.25q17.6,16.8 42.9,16.8q27.2,0 44.45,-18.6l-17.25,-14.25q-10.75,11.3 -27.2,11.3q-15.95,0 -27.2,-10.8q-11.4,-10.8 -11.4,-27.7m391.05,57.65l0,-177l-22.3,0l0,177l22.3,0m202.75,-48.9q0.25,-2.4 0.25,-8.75q0,-26.85 -16.05,-43.15q-16.15,-16.3 -40.85,-16.3q-25.05,0 -41.95,16.3q-16.8,16.3 -16.8,43.15q0,26.75 16.8,43.4q16.9,16.65 41.95,16.65q17.15,0 31.4,-7.8q14.25,-7.9 21.3,-22.5q-2.75,-1.1 -9.35,-3.6q-6.55,-2.65 -9.8,-3.85q-4.7,8.4 -13.45,13.05q-8.85,4.7 -19.4,4.7q-14.75,0 -24.9,-8.5q-10.2,-8.55 -12.1,-22.8l92.95,0m-33.3,-39.8q9.5,8.15 11.4,22.45l-71.05,0q1.9,-14.3 11.85,-22.45q9.95,-8.25 24.45,-8.25q13.9,0 23.35,8.25z" fill="#C1282D"/>
   <path id="svg_13" d="m1738.6,427.3l-11.05,0l0,114.55l11.05,0l0,-114.55m188.5,0l-12.1,0l-42.9,102.1l-42.4,-102.1l-12.1,0l48.15,114.55l12.95,0l48.4,-114.55m-316.15,0l-20.85,0l0,10.05l20.85,0l0,104.5l11.15,0l0,-104.5l26.7,0l0,-10.05l-26.7,0l0,-46.15l-11.15,0l0,46.15m115.05,-35.95q2.75,2.5 6.95,2.5q4.2,0 6.85,-2.5q2.75,-2.65 2.75,-6.6q0,-3.85 -2.75,-6.45q-2.65,-2.55 -6.85,-2.55q-4.2,0 -6.95,2.55q-2.85,2.6 -2.85,6.45q0,3.95 2.85,6.6m374.15,49.85q-17.25,-16.45 -42.5,-16.45q-25.3,0 -42.55,16.45q-17.4,16.55 -17.4,43q0,26.75 17.4,43.4q17.25,16.65 42.55,16.65q25.25,0 42.5,-16.65q17.4,-16.65 17.4,-43.4q0,-26.45 -17.4,-43m-42.5,-5.4q20.6,0 34.75,13.4q14.1,13.45 14.1,35q0,21.8 -14.1,35.5q-14.15,13.5 -34.75,13.5q-20.65,0 -34.75,-13.5q-14.05,-13.7 -14.05,-35.5q0,-21.55 14.05,-35q14.1,-13.4 34.75,-13.4z" fill="#A03232"/>
  </g>
  <g id="Layer0_1_MEMBER_1_FILL">
   <path id="svg_14" d="m1117.9,601.65q-12.5,0 -24.25,6.25q-11.6,6.35 -16.25,18.8l0,-22.5l-11.3,0l0,114.55l11.3,0l0,-64.35q0.2,-21.35 11.95,-31.5q11.65,-10.2 28.55,-10.2q15.45,0 25,10.4q9.6,10.45 9.6,28.4l0,67.25l11.05,0l0,-64.35q0.45,-21.35 12.1,-31.5q11.75,-10.2 28.65,-10.2q15.45,0 25,10.4q9.6,10.45 9.6,28.4l0,67.25l11.05,0l0,-67.25q0.2,-22.85 -12.35,-36.3q-12.7,-13.55 -33.3,-13.55q-8.65,0 -16.45,2.3q-7.9,2.15 -16.05,9.1q-8.25,7.1 -11.75,18.35q-4.55,-14.25 -15.7,-21.95q-11,-7.8 -26.45,-7.8m-157.8,0q-24.8,0 -41.95,17.05q-17.25,17.15 -17.25,42.65q0,25.5 17.25,42.65q17.15,17.15 41.95,17.15q15.25,0 28.55,-7.3q13.15,-7.3 20.1,-19.9l0,24.8l11.3,0l0,-114.55l-11.3,0l0,24.45q-6.95,-12.5 -20,-19.65q-13.2,-7.35 -28.65,-7.35m-34,25.2q13.9,-13.9 34,-13.9q20.4,0 34.5,14q14.15,14.05 14.15,35.6q-0.35,20.6 -14.35,34.05q-14.15,13.3 -34.3,13.3q-19.9,0 -33.9,-13.9q-13.9,-14.05 -13.9,-34.65q0,-20.6 13.8,-34.5m849.1,-22.65l-22.2,0l0,17.15q-5.4,-9.35 -16.55,-14.5q-11.1,-5.2 -23.6,-5.2q-24.3,0 -41.35,16.45q-16.9,16.55 -16.9,43.25q0,26.5 16.9,43.15q17.05,16.65 41.35,16.65q12.5,0 23.5,-5.3q11,-5.25 16.65,-14.7l0,17.6l22.2,0l0,-114.55m-60.4,19.3q14.95,0 26.45,10.05q11.5,10.05 11.5,27.55q0,17.65 -11,27.95q-11.05,10.3 -26.95,10.3q-15.7,0 -26.5,-10.8q-10.8,-10.8 -10.8,-27.45q0,-16.75 10.7,-27.2q10.65,-10.4 26.6,-10.4m124.9,-81.75l-22.3,0l0,177l22.3,0l0,-177m-242.05,79.6q-5.6,-9.6 -16.5,-14.65q-10.9,-5.05 -24,-5.05q-24.2,0 -40.95,16.45q-16.7,16.55 -16.7,43.25q0,26.5 16.8,43.15q16.9,16.65 41.1,16.65q12.6,0 23.6,-5.3q11.05,-5.25 16.65,-14.7l0,17.6l22.45,0l0,-177l-22.45,0l0,79.6m-0.2,39.75q0,17.4 -11.15,27.8q-11.15,10.45 -26.85,10.45q-15.7,0 -26.35,-10.8q-10.7,-10.8 -10.7,-27.45q0,-16.75 10.7,-27.2q10.65,-10.4 26.35,-10.4q14.95,0 26.45,10.05q11.55,10.05 11.55,27.55m-291.55,57.65l0,-114.55l-11.3,0l0,114.55l11.3,0m145.85,-114.55l0,24.7q-6.95,-12.5 -20.1,-19.8q-13.3,-7.45 -28.55,-7.45q-24.8,0 -41.95,17.15q-17.25,17.25 -17.25,42.8q0,25.5 17.25,42.55q17.15,17 41.95,17q15.45,0 28.75,-7.55q13.2,-7.55 19.9,-20.15l0,8.4q0,34.3 -13.15,48.55q-13.2,14.25 -37.15,14.25q-24.6,0 -38.6,-20.85l-9.35,6.1q17.25,26 47.95,26q29.35,0 45.5,-16.9q16.1,-16.9 16.1,-57.4l0,-97.4l-11.3,0m-48.65,8.75q20.4,0 34.5,13.75q14.15,13.8 14.15,34.9q0,21.1 -14.35,34.75q-14.4,13.55 -34.3,13.55q-20.1,0 -34,-13.8q-13.8,-13.9 -13.8,-34.5q0,-20.6 13.9,-34.65q14,-14 33.9,-14m-97.95,-27.95l21.35,-31.85l-13.65,0l-18.5,31.85l10.8,0m667.5,19.2l0,17.15q-5.4,-9.35 -16.55,-14.5q-11.1,-5.2 -23.6,-5.2q-24.3,0 -41.35,16.45q-16.9,16.55 -16.9,43.25q0,26.5 16.9,43.15q17.05,16.65 41.35,16.65q12.5,0 23.5,-5.3q11,-5.25 16.65,-14.7l0,17.6l22.2,0l0,-114.55l-22.2,0m-0.25,56.9q0,17.65 -11,27.95q-11.05,10.3 -26.95,10.3q-15.7,0 -26.5,-10.8q-10.8,-10.8 -10.8,-27.45q0,-16.75 10.7,-27.2q10.65,-10.4 26.6,-10.4q14.95,0 26.45,10.05q11.5,10.05 11.5,27.55m100.25,-40q6.8,0 11.85,3.45q5.05,3.35 6,9.5l21.3,0q-1.4,-16.45 -12.55,-24.35q-11.15,-8.05 -27.1,-8.05q-15.55,0 -27.1,8.4q-11.5,8.3 -12.7,20.85q-1.55,15.25 6.35,24.1q7.95,8.75 24.35,13.2l15.7,3.7q7.05,1.65 11.25,5.15q4.2,3.45 3.95,9.35q-0.25,6.1 -4.9,10.3q-4.65,4.2 -12.6,4.65q-10.55,0.75 -18.1,-3.95q-7.9,-3.95 -9.3,-13.05l-20.4,0q0.5,16.8 13.45,26.85q12.8,9.95 29.2,9.95q18.7,0 31.65,-9.35q12.8,-9.45 12.8,-24.95q0,-26 -29.7,-33.4l-16.9,-4.2q-10.8,-3.1 -13.55,-8.75q-1.65,-3.7 -0.2,-9.1q1.2,-4.7 5.95,-7.55q4.8,-2.75 11.3,-2.75z" fill="#FFFFFF"/>
  </g>
 </defs>
 <g>
  <title>Layer 1</title>
  <g id="svg_15">
   <use x="-280" y="-308" id="svg_16" xlink:href="#Layer1_0_FILL"/>
  </g>
  <g id="svg_17" transform="matrix(1.13913 0 0 1.13913 -149.15 -76)">
   <use x="-245.80169" y="-270.38187" id="svg_18" xlink:href="#Layer0_0_MEMBER_0_FILL"/>
  </g>
  <g id="svg_19" transform="matrix(1.13913 0 0 1.13913 -149.15 -76)">
   <use x="-245.80169" y="-270.38187" id="svg_20" xlink:href="#Layer0_0_MEMBER_1_FILL"/>
  </g>
  <g id="svg_21" transform="matrix(0.767593 0.303787 -0.303802 0.76767 -158.45 -84.35)">
   <use x="-452.67246" y="-222.07975" id="svg_22" xlink:href="#Layer0_0_MEMBER_2_FILL"/>
  </g>
  <g id="svg_23" transform="matrix(0.487366 -0.306717 -0.306717 -0.487366 143.1 1108.75)">
   <use x="-126.63906" y="711.66753" id="svg_24" xlink:href="#Layer0_0_MEMBER_3_FILL"/>
  </g>
  <g id="svg_25" transform="matrix(-0.577393 0.103836 0.103851 0.577484 1133.2 210.75)">
   <use x="376.82266" y="-601.10352" id="svg_26" xlink:href="#Layer0_0_MEMBER_4_FILL"/>
  </g>
  <g id="svg_27">
   <use x="-280" y="-308" id="svg_28" xlink:href="#Layer0_0_MEMBER_5_FILL"/>
  </g>
  <g id="svg_29">
   <use x="-280" y="-308" id="svg_30" xlink:href="#Layer0_0_MEMBER_6_FILL"/>
  </g>
  <g id="svg_31" transform="matrix(1 0 0 1 -2.05 0)">
   <use x="-280" y="-308" id="svg_32" xlink:href="#Layer0_1_MEMBER_0_FILL"/>
  </g>
  <g id="svg_33">
   <use x="-280" y="-308" id="svg_34" xlink:href="#Layer0_1_MEMBER_1_FILL"/>
  </g>
 </g>
</svg>