
<svg xmlns="http://www.w3.org/2000/svg" version="1.1" xmlns:xlink="http://www.w3.org/1999/xlink" preserveAspectRatio="none" x="0px" y="0px" width="2500px" height="1143px" viewBox="0 0 2500 1143">
<defs>
<g id="Layer1_0_FILL">
</g>

<g id="Layer0_0_MEMBER_0_FILL">
<path fill="#C1282D" stroke="none" d="
M 599.25 783.75
L 591.9 782.15 587.15 782.65
Q 593.6 783.4 599.25 783.75
M 581.2 788.15
L 577.05 788.4 590.75 791.6 591 791.6 591.65 791.75 594.4 789.65 581.2 788.15
M 516.4 760.3
L 522.95 764.65
Q 526.65 766.8 530.9 768.9 535.2 770.9 539.95 772.7 544.05 774.4 549.55 776.2 554.85 777.9 559.6 779.15 563.4 780.2 569.5 781.7 571.75 782.2 579 783.9 584.55 785.1 587.65 785.9 587.35 785.4 586.4 784.95 585.3 784.45 584.05 784.1
L 573.65 781.75 563.8 779 578.9 780.6
Q 573.4 779.5 566.9 777.75
L 555.1 774.1
Q 555.6 773.8 555.8 773.2 555.9 773 556 772.7 555.75 772.9 555.05 773 554.05 773.1 552.1 772.95
L 544.55 771.95 536.6 769.05 536.4 769 516.4 760.3
M 436.45 699.85
L 434.95 698.55
Q 443.15 710.85 453.3 722.05 443.65 710.95 436.45 699.85
M 435.65 654.35
Q 435.71015625 654.35546875 435.75 654.35
L 434.45 651.95
Q 433.965625 652.4220703125 433.45 652.9 433.1 653.25 432.75 653.55
L 433.1 653.6
Q 433.7 653.65 434.2 653.7 433.65 653.7 433.8 653.95
L 434.85 654.25 435.65 654.35
M 383 528.45
L 384.55 522.6 385.7 520.05 385.75 518.05
Q 383.85 524.25 382.15 531.2 382.6 530.15 383 528.45
M 441.05 401.9
Q 442 401.5 444.1 399.65
L 445.15 396.25
Q 445.25 395.95 445.2 395.95 445.05 396.15 444.85 396.35 444.05 397.35 442.85 398.1
L 441.15 398.95
Q 440.2 399.3 439.35 399.5 439.85 399.5 440 400.05 440.05 400.25 440.1 400.7
L 440.15 401.4
Q 440.3 402.1 441.05 401.9
M 457.75 388.45
L 459.55 387.5
Q 460.55 386.95 461.5 386.35
L 466.15 382.9
Q 465.3 383.3 463.95 383.6 462.6 383.95 462.05 384.15
L 460.6 384.95 460.1 385.4
Q 459.55 385.95 458.95 386.65
L 457.75 388.45
M 754.15 726.9
L 753.65 727.95
Q 753.25 729 753.6 729.3 753.95 729.7 755.2 729 756.7 728.1 758.75 726.05
L 759.1 725.55 759.25 725.15
Q 759.35 724.9 759.25 724.75 759.05 724.65 758.75 724.75
L 758.05 724.9
Q 756.85 725.3 756.25 725.55 755.25 725.9 754.9 725.75
L 754.15 726.9
M 777.25 705.1
Q 776.95 704.7 776.45 704.75 776.1 704.75 775.75 704.9
L 774.9 705.35 773.1 706.7 768.5 711.15 775.35 705.95 776 705.6
Q 776.25 705.45 776.6 705.35 777.1 705.25 777.3 705.65 777.35 705.9 777.25 706.2
L 777 707.1
Q 776.85 707.6 776.45 708.3
L 775.55 709.9
Q 772.05 712.8 767.6 716.1
L 779.4 708.15
Q 778.35 708.4 778 707.15 777.85 706.8 777.65 706 777.5 705.45 777.25 705.1
M 441.35 697.35
L 439.8 694.4 441.35 697.8 443.5 700.95 445.7 703.35 441.35 697.35
M 388.75 524.9
Q 388.45 525 388.35 524.55
L 388.2 523.3 388.3 519.45
Q 387.25 525.25 387.55 526.45 387.6 526.7 387.75 526.65 387.85 526.65 388 526.4 388.3 525.95 388.75 524.9
M 388.75 524.9
Q 388.8 524.9 388.85 524.85 388.95 524.9 389 524.85
L 389.5 523.15 388.75 524.9
M 675.45 364.1
Q 675.75 364.15 676.15 364.4
L 680.55 366.55 675.8 367.8 686.5 367.95
Q 687.85 367.9 689 368
L 693.5 368.55 697.9 369.85 704.85 373.45 721.65 383.35 715.25 377.9
Q 710.5 373.9 708.75 372.5
L 702.35 367.75
Q 700.9 366.75 699.2 365.75
L 696.1 364.2
Q 691.35 361.75 686.1 359.45 681.45 357.35 675.6 355.1 669.85 352.95 664.6 351.3
L 653.3 348.15
Q 641.8 345.35 629.75 343.9 623.2 343.2 617.6 342.95 611.45 342.6 605.3 342.7 603.5 342.65 599.15 342.8
L 593 343.15
Q 586.6 343.65 580.7 344.4
L 556.45 348.95 550.45 350.6
Q 548.5 351.1 547.55 351.4
L 532.9 356.25
Q 521.45 360.55 510.7 366.25 506.4 368.25 501.25 370.7 495 373.8 492.15 375.1
L 486.35 377.75 481.9 379.25
Q 481.45 379.35 480.75 379.35 480.25 379.35 479.9 379.25
L 466.5 390.75
Q 462.75 393.85 458.7 397.45 453.55 401.95 450.15 405.25
L 450.1 405.25
Q 450.5 405.6 450.7 406.05 450.95 406.8 450.6 407.9 450.25 408.7 449.85 409.3
L 449.6 409.75 448.45 411.2 435.4 421.4 435.4 422.95
Q 434.6 423.4 434.05 423.8
L 432.55 424.95
Q 431.8 425.5 431 426.35
L 429.45 428.1
Q 426.65 431.3 423.1 436.55
L 417.25 445.2 417.1 445.3 417.1 445.4 417.05 445.45 417.05 445.5 417 445.5 413.6 450 411.7 451.95 414.3 452.25
Q 410.95 456.85 407.35 463.05 404.25 468.55 400.95 475.35
L 395.2 487.4
Q 391.85 494.25 389.95 497.5 391.25 496.5 391.35 497.55 391.5 498.05 391.25 498.9
L 391.2 499.15 391.2 499.4 387.55 511.85 392.4 505.6 391.8 507.1 390.85 510.7
Q 390.75 511.6 390.7 512.55
L 390.45 518.95
Q 390.35 519.9 390.25 520.15
L 389.5 523.15
Q 390.55 520.45 391.4 518.7 392.5 516.6 392.8 517.05
L 392.5 519.75
Q 392.5 520.1 392.35 520.5 392.35 521.05 392.1 522
L 390.65 526.8 390.5 527 389.5 529.85
Q 389.1 531.15 388.9 532.15 388.65 533.3 388.6 534.85
L 388.75 538.2 386.1 537 388.4 566.4
Q 388.4 566.65 388.85 569.25
L 388.05 570.8
Q 387.8 571.3 387.3 572 385.75 573.95 385.65 574.1 384.8 575.2 384.25 576.7 384.05 577.6 384 577.65
L 383.75 578.65
Q 383.55 579.95 383.5 581.3 383.8 581.75 384.55 582.4 385.25 583.05 385.6 583.7 386.15 584.75 386.45 586.65
L 386.9 592.65
Q 386.5 592.85 386.2 592.4 385.9 591.95 385.6 591.05
L 384.3 586.8 386.05 607.45 389.05 624.2 392.7 637.5
Q 395.45 646.1 398.9 653.3
L 398.3 650.2
Q 398.25 649.15 398.4 649 398.8 648.65 400.05 650.45
L 402.5 653.6
Q 403.75 655.25 404.1 654.65 407.7 664.7 412.25 674.45 412.05 673.95 411.4 672.05
L 405.15 654.05 402.85 644.4
Q 404.3 645.65 405.45 644.85 406.1 644.3 407.15 642.8 408.1 641.75 409.05 642.5 410.25 643.45 412.45 647.95
L 412.5 649.5
Q 412.4 649.9 412.2 650.05 412 650.15 411.15 649.7 410.45 649.4 410.4 650 410.35 650.55 410.5 651.35
L 411.15 653.95 412.05 655.15
Q 412.2 655.4 412.9 656.45
L 414.4 659.25
Q 416.35 663.4 417.45 665.8 417.8 665.45 417.8 664.3
L 417.55 661.1
Q 417.55 660.5 417.6 660.3 417.75 659.5 418.4 659.75
L 420.45 665.35 421.1 669.75
Q 421 670.75 420.8 671.1 421.1 671.3 421.4 671.15
L 421.95 670.85
Q 422.35 670.85 422.75 671.2
L 424.25 672.9 425.1 674.5
Q 425.75 675.6 425.8 675.8
L 426.6 677.8
Q 427.05 679.15 426.5 679.7 426.25 680.05 425.25 680.25 424.4 680.4 424.25 680.65
L 430.4 685.45 433.2 688.1 435.55 691.55 436.1 692.9
Q 436.5 693.85 436.6 694.4
L 436.85 695.15
Q 436.9765625 695.4875 437 695.8
L 436.1 687.6 436.85 688.75
Q 437.05 689 437.5 689.8
L 439.8 694.4
Q 439.35 693.45 439.25 692.95 439.1 692.35 439.2 692 439.3 691.65 439.7 691.65
L 440.15 691.75 440.85 692 441.7 694 445.35 699.25
Q 447.25 701.55 451.2 705.25
L 455.25 709.25
Q 455.8 709.85 456.35 710.6
L 457.35 711.9
Q 457.8 712.6 458.1 713.3
L 458.65 714.7
Q 458.9 715.65 458.9 716.15
L 460.95 711.35 465.4 715.8 466.15 716.8
Q 467.1 718.15 467 719.45 466.95 720.1 466.95 720.4 466.9 721.05 467.1 721.65
L 467.4 722.4 467.95 723.4 469.3 725.2 469.95 725.85
Q 469.35 725.1 469.25 724.9 469 724.5 468.95 724.2 468.85 723.95 469 723.4 469.1 723 468.95 722.5
L 467.5 720.65
Q 468.05 720.55 469.85 721.65
L 470.7 722.2 482.95 731.8
Q 486.55 734.85 491.7 738.55 496.1 741.75 500.5 744.5
L 500.7 744.65 502.75 745.9 503.05 746 503.05 746.1 504.95 747.2 505.2 747.4 506 747.85
Q 506.8 748.3 507.15 748.55
L 509.4 749.8
Q 513.1 751.9 518.3 754.7 526.25 758.85 536.65 763.65
L 546.15 767.95
Q 549 769.25 556.15 772.35 556.4 771.9 557.05 771.75 557.5 771.65 558 771.7 558.4 771.65 559.35 771.8 563.75 772.95 569.7 774.45 573.65 775.5 579 776.7
L 587.6 778.65
Q 592.6 779.7 595.8 780.25 600.15 781 604.25 781.45 609.35 781.95 613.25 782.05 617.75 782.2 623.25 781.9 628.9 781.55 634.55 780.65 635.1 780.05 636.15 779.6
L 638.55 778.85 648.45 777.3
Q 650.8 776.95 652.05 776.65 652.5 776.6 652.95 776.45
L 655.5 775.7
Q 657.4 775.05 658.65 774.45
L 660.25 774.45 660.35 774.4 660.45 774.45 660.55 774.45 660.85 774.4 667.85 773.7
Q 672.7 772.95 677.9 771.65 682.95 770.3 688.3 768.3 693.4 766.4 698.8 764 704 761.55 708.85 758.95 713.55 756.45 718.25 753.6 722.8 750.85 726.85 748.2
L 734.35 743.3 716.05 750.9 695.7 758.45
Q 687.65 761.1 681.2 762.95 673.2 765.25 666.15 766.85
L 656.1 769 635.35 772.1
Q 632.85 772.35 627.8 772.7
L 620.3 773.1
Q 620.75 772.75 621.1 772.15 621.3 771.95 621.7 771.8 621.95 771.7 623.1 771.55
L 601.75 770.75
Q 599.35 770.55 594.55 770.05
L 580.25 768
Q 573.2 766.7 566.15 764.85
L 557.3 762.25 543.6 757.1 532.45 751.8 517.3 742.45 516.95 742.2 516.4 742.8 514.3 741.6 508.65 737.5 506.4 735.4 506.4 735.35 504.45 733.2
Q 503.45 732 502.75 731.35
L 498.05 726.95
Q 498.15 727.15 498.45 727.6
L 500.7 730.15
Q 502.5 732.15 500.55 731.9
L 496.25 728.8
Q 494 727.05 489.7 723.6 484.45 719.35 482.5 717.85 478.5 714.75 476.1 713.4
L 474.6 710.95 474.5 710.35
Q 474.4 710.05 474.25 708.75
L 474.2 707.95
Q 474.1 707.6 473.7 706.9 473.05 705.65 471 703.1
L 469.65 702.8 469.3 702.65 465.6 701.7 455.95 690 453.7 686.4
Q 452.7 684.75 452.15 683.5
L 457.4 687.95
Q 454.15 684.55 451.1 680.1 449.05 677.15 445.9 672 444.25 669.3 441.1 664.05 440.11328125 662.5171875 439.15 661.15
L 435.65 660.8
Q 434.45 660.8 433.95 660.9 434.4 660.6 433.6 660.4
L 431.95 660.1 433.15 659.65
Q 432.35 659.6 431.9 659.25
L 431.4 658.95 430.6 658.8 431.35 658.75 431.7 658.6
Q 431.05 658.3 430.05 658.3 429.15 658.4 428.5 657.95
L 428.5 658.6 427.55 658.05 427.35 658.25 427.25 657.9 426.5 657.55
Q 425.2 657.1 424.45 656.7
L 422.35 655.75 424.25 654.5
Q 424.3 654.25 424.25 653.45 424.2 652.9 424.55 652.3 424.75 652.3 425.1 652.35 425.35 652.3 425.65 652
L 425.65 651.95 425.7 651.95
Q 425.85 651.75 426.1 651.45 426 651.25 425.15 651.8
L 428.3 648
Q 429.5818359375 646.544921875 430.75 645.35 428.4921875 641.00625 426.3 635.8
L 421.95 624.75
Q 420.6 620.9 420.05 619.1
L 419.2 616.45 419.1 616.25 417.75 611.45 417.65 611.35 412.85 590.85
Q 411.9 586.2 411.05 580.25 410.3 575 409.75 570.5
L 409.75 562.15
Q 409.8 559.3 410 553.55 410.25 549.5 410.6 544.85 411 540.6 411.6 536.3 412.2 532.3 413.05 528.25
L 416.25 516.45 418.35 511.25
Q 418.7 510.45 419.65 508.65 419.2 509.2 419.05 509.5
L 416.85 514.65 416.4 515.4
Q 415.9 516 415.55 515.2
L 417.45 507.3 420.2 500.8 424.55 493.9 427.85 486.35 428.75 483.55 429.45 483.05
Q 429.7 482.8 429.85 482.9 430 482.9 430.05 483.1
L 430.1 483.65
Q 430.05 484.05 429.2 487.2
L 428.7 488.95
Q 428.5 489.65 428.55 489.9 428.6 490.05 429.1 489.5
L 430.6 487.15 432.45 475.9 433.05 473.7 434.9 469.6 437.4 465.55 438.15 464.6 438.2 464.5 441.2 460.75
Q 441.8 461.1 441.35 462.55
L 440.4 464.75
Q 439.95 465.75 440.3 465.55 440.55 465.4 441.25 464.8
L 443.1 462.9 443.15 461.5 443.55 458.6 445.1 453.15 449 444.15
Q 451 440.3 453.2 436.6 455.7 432.35 457.8 429.25
L 469.25 412.85 470.6 415.45
Q 473.2 413.1 476.7 409.45
L 487.3 397.8 489.9 395.9 494.35 393.6 508.95 384.65
Q 513.5 381.85 515.8 380.6
L 521.8 377.45 521.95 377.35 526.7 375.25 532.1 373.5
Q 533.6 373.15 534.9 372.95 536.55 372.75 537.45 372.75 538.05 372.75 538.65 372.8
L 539.7 373 545.9 368.45
Q 550.5 368.35 553.2 368.3
L 552.35 366.65 560.3 365 561.35 364.95 561.55 364.9 564.5 364.95 564.55 365 565 365.05
Q 566.35 365.3 567.4 366.1 567.75 366.4 568.75 367.6 569.55 368.6 570.3 369.05 571.35 369.75 573.05 370
L 575.25 370.1
Q 576.4 370.1 578.25 369.95 581.55 369.65 587.1 368.8
L 586 368.05
Q 585.3 367.6 584.65 367.35
L 582.8 366.9 580.65 366.65 580.3 366.7
Q 580.65 366.4 580.7 366.4
L 581.25 366.05
Q 581.85 365.75 582.7 365.5
L 585.1 364.95
Q 585.25 364.95 585.65 364.85
L 588 364.55 597.35 364.3 597.9 361.4
Q 599.65 361.15 601.1 361.25
L 602.45 361.35
Q 603.15 361.45 603.6 361.55
L 605.6 362.1
Q 606.95 362.5 607.35 362.65 605.65 361.85 605.35 361.25 605.1 360.65 606.15 360.25 606.6 360 607.3 359.85
L 613.1 359.15
Q 615.2 359.05 617.85 359.05
L 627.55 358.85
Q 628.05 358.75 628.4 358.65
L 627.4 361.35
Q 627.8 360.95 628.5 360.45 629.35 359.95 629.85 359.8
L 633.35 358.85
Q 636.1 358.4 643.5 357.95
L 646.25 361.5 649.9 361.2
Q 651.35 361.2 652.1 361.2
L 656.75 361.7 658.35 362.15 658.6 362.15 658.85 362.25
Q 660.15 362.8 660.65 363.1 660.95 363.2 661.4 363.6 661.85 363.9 662 364.1
L 662.7 359.75 665.6 361.3
Q 666.65 361.8 667.7 362.2
L 669.3 362.65
Q 669.55 362.65 670.75 362.85
L 672.2 363.1 675.45 364.1
M 431 659.35
Q 429.5 658.95 430.3 658.85 430.25 658.95 431 659.35 Z"/>

<path fill="#1A1A1A" stroke="none" d="
M 506.15 661.2
L 505.25 660.15 505.2 660.8 506.15 661.2
M 493.6 643.9
L 493.6 644.15 496.3 645.9 493.6 643.9
M 508.1 659.1
L 508.8 658.25 507.2 657.35
Q 507.05 658 507.4 658.3 508 658.85 508.1 659.1
M 453.7 664.25
Q 453.85 664.2 454.25 663.95 453.75 663.85 452.8 664.1 453.35 664.4 453.7 664.25
M 449.6 664.5
Q 449.748828125 664.847265625 449.65 664.95 450.10078125 664.5001953125 450.6 664.6
L 450.2 664.2
Q 449.5 664.2 449.6 664.5
M 455.55 618.5
Q 455.7 618.05 455.55 617.85 454.9 619.8 452.65 623.05 450.25 626.8 449.8 628 450.35 627.4 451.2 626.15 452.55 624.25 452.6 624.15 453.25 623.6 453.55 623.35 453.9 623.05 454.1 623.05 453.9 622.95 453.75 622.95
L 455.6 619.55 454.1 621.35 455.55 618.5
M 456.15 618.35
L 456.7 617.85 457.05 616.7 456.15 618.35
M 454.8 617.8
Q 455.15 617.05 455.5 616.55
L 454.85 616.6 454 618.65
Q 454.5 618.35 454.8 617.8
M 483.95 613
Q 482.948828125 613.0421875 482.9 612.7 482.9 612.65 482.25 613.2 482.55 613.6 483.05 613.35 483.6515625 613.026171875 483.95 613
M 481.15 611.7
Q 481.55 611.15 481.15 611.05 480.6 611 480.35 610.9 480.45 611.4 481.15 611.7
M 467.35 583.65
Q 467.15 583.2 467 583.6
L 466.6 584.75 467.4 585.5 467.35 583.65
M 430.3 658.85
Q 429.5 658.95 431 659.35 430.25 658.95 430.3 658.85 Z"/>

<path fill="#FFFFFF" stroke="none" d="
M 492.25 656.95
L 492.25 657
Q 490.9 657.8 490.1 658
L 485.15 659.4
Q 489.3443359375 658.646484375 493.4 657.6 492.9388671875 657.101171875 492.25 656.95
M 467.4 586.1
L 467.8 586.55
Q 467.7013671875 585.2876953125 467.6 584 467.5056640625 585.055078125 467.4 586.1 Z"/>
</g>

<g id="Layer0_0_MEMBER_1_FILL">
<path fill="#A03232" stroke="none" d="
M 500.8 712.35
L 501.9 715.65 506.3 718.45 506.7 718.75 516.2 724.25 514.45 722.55
Q 513.35 721.55 512.75 721.1
L 505.5 716.05
Q 503.85 715 500.8 712.35
M 510.85 713.7
L 507.15 709.95 500.05 705.4
Q 505.8 710.1 510.85 713.7
M 526.95 723
L 526.6 722.75 519.05 718.45 522.5 720.95 522.6 721 522.7 721.1 533.15 728
Q 528.95 726.5 519.25 720.6
L 510.2 715.55
Q 509.05 715.15 508.6 715.25
L 521.45 722.75 521.5 722.8 521.55 722.8 521.6 722.85 521.75 722.95 533.8 729.5 534.1 729.7 552.65 738.1 565.95 742.55 571.1 743.85 571.4 743.95 575.4 744.75 575.7 744.85 579.85 745.5 580 745.55 580.15 745.55 585.05 746.05
Q 586.45 746.15 587.1 746.15
L 572.25 742.6 554.9 736.9 547 732.4
Q 544.021484375 730.4142578125 543.75 729.7 543.705859375 729.88515625 543.6 730.15 543.5 730.6 543.75 731.1
L 526.95 723
M 439.05 562.35
L 439.75 583.75 441.4 598.55 441.45 598.75 441.45 598.95 443.15 608.3
Q 443.65 610.35 444.6 614.45
L 449.15 629.35 449.3 629.7 449.35 629.9 449.45 630.05 449.6 630.5
Q 450.3255859375 629.5640625 450.8 628.9 451.85 627.45 452.6 626.15
L 453.65 624.15
Q 453.624609375 624.1166015625 453.6 624.05 453.494921875 623.7673828125 453.4 623.45 453.0978515625 623.72890625 452.6 624.15 452.55 624.25 451.2 626.15 450.35 627.4 449.8 628 450.25 626.8 452.65 623.05 452.8494140625 622.762109375 453 622.45 450.461328125 615.4142578125 448.3 607.85
L 448 606.85 447.95 606.75 447.95 606.65 447.85 606.4 444.6 593.6 444.5 593.35 441.2 576.6
Q 440.05 570.1 439.05 562.35
M 442.3 527.75
Q 442.15 527.75 442 528
L 441.75 528.4 441.5 529 440.75 532.7 440.75 532.95 440.7 533.25 440.65 534.15
Q 440.6 535.65 441 535.75 441.3 535.9 442 534.85
L 443.15 532.35
Q 442.95 532.1 442.8 530.95 442.7 529.55 442.6 528.9 442.5 527.9 442.3 527.75
M 451.65 499.4
Q 451.35 499.35 450.75 499.6
L 449.8 499.95
Q 448.65 500.4 448.55 499.25
L 446 514.8 448.35 503.85 450.15 500.8
Q 450.9 499.8 451.2 499.7 451.8 499.5 451.55 501.65
L 451.05 504.35 451 504.5 449.6 510.95 452.15 501.7
Q 452.25 501.25 452.25 500.6 452.3 500.3 452.2 499.9 452.05 499.4 451.65 499.4
M 456.8 482.15
L 456.75 482.55 456.7 484.15 463.4 472.15
Q 464.95 468.7 462.55 471.1
L 457 477.8 456.8 482.15
M 700 733.4
L 697.95 734 683.9 740.65
Q 678.425 742.9375 672.95 744.9 679.1220703125 742.8314453125 684.95 740.4 692.6 737.25 700 733.4
M 689.2 733.5
L 693.4 731.65 697.9 728.7 689.2 733.35 687.55 734.05 688.95 733.55 689.2 733.5
M 808.55 568.5
L 808.4 569.1
Q 808.25 569.6 808.05 569.4 808.5 572.2 808.75 571.35 808.9 570.9 809.05 569.05
L 809.15 563.55
Q 808.95 565 808.65 567.75
L 808.65 567.95 808.6 568.15 808.55 568.5
M 760.6 428
Q 760.682421875 427.4646484375 761.25 427.6
L 759.25 426.85 757.45 425.8
Q 756.25 424.95 755.2 423.9 754.85 423.55 754.8 423.55
L 754.9 423.8 756.55 427.15 759.95 429.65
Q 760.65 429.95 760.65 429.3 760.55 428.4 760.6 428
M 731.65 409.25
Q 733.15 410.4 734.55 411.25
L 741.05 415.1 739.5 413.3 738.15 412.1
Q 737.05 411.25 735.95 410.75
L 733.95 410.1
Q 732.7 409.75 731.65 409.25
M 811.35 562.45
L 811.25 563 811.25 563.3 811.2 563.55 811.1 564.7
Q 811.45 565.95 811.7 567.7
L 812.25 577.65
Q 812.1 570.05 811.35 562.45
M 668.65 387.3
L 650.7 383 646.45 382.3 646.2 382.3 646 382.25 633.95 380.95
Q 632.75 380.85 632.2 380.85
L 614.85 380.7
Q 608.3 381 601.05 381.85
L 582.5 385.05 582.4 385.05 582.3 385.1 568.65 388.65 560.1 391.45 559.7 391.55 547.45 396.4 547.05 396.6 546.85 396.65 546.7 396.75 530.55 404.9 519 412.2 504.85 423.15 496.1 431.3 495.85 431.6 495.55 431.85 492.8 434.7 492.7 434.85 492.55 434.95 484.25 444.4 476.5 456.3 476.45 456.45 468.1 472.8 473.2 465.4 473.35 465.25 473.45 465.05 483.4 450.7 485.85 447.85 489.6 444.45
Q 489.8 444.25 489.95 444.2
L 497.25 439.5 501.2 437.45 501.5 437.25 506.35 434.6 501.4 436.05 506.5 430.8 506.65 430.7 506.95 430.45
Q 507.95 429.65 508.75 429.1
L 510.2 428.15
Q 512 427.05 513 426.15
L 513.45 425.8 517.5 421.9 519.15 425.05
Q 519.55 424.4 520.25 423.65
L 521.25 422.7 521.35 422.65 521.45 422.55 521.9 422.2
Q 522.9 421.45 523.95 420.8
L 526.2 419.5 532.45 416.8 534.7 416.1 536.8 412.25 547.65 409
Q 550 408.5 551.55 408.45 553.3 408.4 554.5 408.8
L 552.85 407
Q 553.65 407 555.3 406.5
L 555.7 406.35 556.15 406.25 571.85 401.7 577.25 400.9
Q 578.5 401 578.35 401.45 578.3 401.7 577.85 402.15
L 576.55 403.15 580.35 401.2
Q 580.8 401 580.95 400.95
L 581.1 400.85
Q 581.0513671875 400.8515625 581 400.9
L 581.05 400.85 581.1 400.85 581.15 400.85 582.95 400.2 586.7 399.4 587.95 401.45 589.35 401.05 599.5 399
Q 605.1 398.2 607.05 399
L 604.35 399.75 602.5 400.55
Q 601.6 401 600.15 402.25 602.15 402.05 603.1 401.9
L 613.35 400.55
Q 613.85 400.5 614.65 400.3
L 615.75 400
Q 617.6 399.55 618.55 398.8
L 619.3 398.1 619.45 397.9 619.6 397.75 619.85 397.35
Q 620.55 396.3 620.95 395.95 621.8 395.2 623.3 394.7
L 626.75 394.05
Q 627.75 393.95 628.35 393.95
L 630.15 393.9
Q 630.5 393.85 631.2 393.85
L 632 393.85 632.25 393.9 636.15 394.05 636.35 394.1 636.65 394.1 637.4 394.2 636.9 395.6 644.3 395 644.8 395 652.5 398.2
Q 653.5 397.95 654.95 397.85
L 657.75 397.9
Q 658.2 397.9 659.3 398
L 660.5 398.15 660.7 398.2 660.9 398.2 664.35 398.9 664.8 398.95 673.85 401.75
Q 675 402.1 675.85 402.5
L 684.6 406.2 684.75 406.25 685 406.4 692.05 409.85 692.3 409.95 692.55 410.1 707.85 417.9 708.1 418 711.6 419.75 712.05 420.05 712.15 420.1 718.95 425.55 719.1 425.7 719.25 425.9 734 439.1 734.8 436.8 749.8 455.25 758.1 468.2 760.45 472.65 760.5 472.8 765 483.95 765.9 488.05
Q 766.1 489.25 766.1 490.45
L 767.1 491.8 767.2 491.9 767.3 492.05 768.65 493.75
Q 768.95 494 768.55 492.9
L 768.1 491.65 768 491.5 767.6 490.35
Q 767.15 488.9 767.7 488.7
L 771.2 494.35 771.35 494.7 771.55 495 774.6 502.1 775.7 506.35
Q 776.2 509.3 776.35 512.2
L 776.65 515.25
Q 776.7 516 777.15 518.8 778.65 522.65 778.8 522.25 778.9 522 778.35 519.2
L 777.65 515.1
Q 777.55 513.5 778.75 515.4
L 780.3 522 780.4 522.3 780.45 522.6 782.6 529.3 783.1 530.45 783.15 530.5 783.2 530.7 786.05 539.05 786.1 539.35 786.25 539.9 787.75 551 787.85 553.15
Q 787.5 553.95 787.2 553.2
L 786.9 552.2 785.95 547.55
Q 785.55 545.9 785.15 545
L 787.3 555.35 788.2 564.75 788.25 576.2 788.2 576.5 788.2 577.4 787.25 588.2 787.25 588.35 787.2 588.5 784.5 604.1 784.4 604.4 782.55 611.85 782.5 612.15 780 619.6 775.1 631 775 631.15 764.6 650.25 760.55 656.5 760.5 656.6 760.45 656.65 760.4 656.75 755.45 663.7 755.35 663.9 755.2 664.05 750.15 670.5 742.3 679.3
Q 737.4 684.35 733 688.2
L 723.75 695.65 723.4 695.85 723.5 696.85 714.95 702.25 714.65 702.4 714.55 702.5 708.45 706.55 708.15 706.7 708 706.8 707.9 706.9 694.65 714.6 686.45 718.1 686.9 718 687.15 717.9 687.4 717.85 693.8 716 687.85 719.55
Q 684.2 721.3 682.3 722
L 670.5 726.45 664.65 725.75 660.1 727.55 659.75 727.75
Q 658.65 728.25 658.05 728.95 657.05 729.95 656.85 730.1
L 656.35 730.5 656.15 730.55 656.15 730.6 656.25 730.55 656.25 730.6 655.75 730.85
Q 653.85 731.65 653.4 731.8
L 631 734.6 630.7 734.6 627.2 735 626.95 735 626.7 735.05 619.2 735.45 618.75 735.3 618.45 735.1
Q 618.35 735 618.5 734.8
L 618.75 734.65 620.15 734.2 622.95 733.65 623.25 733.55 623.8 733.45 624.55 733.15 610.7 735.35 610.55 735.35 609.9 735.45 602.7 735.65 597.95 735.2 597.75 734.55 583.7 733.2
Q 576.35 732.05 569.05 730.05 562.05 728.15 554.2 725.05 546.55 722 539.55 718.4
L 528.35 712.15 528.3 712.15 528.25 712.1 528.2 712.1 528 711.95 524.5 709.8 524.4 709.75 524.3 709.65 511.7 701
Q 504.95 695.9 499.1 690.75 492.8 685.05 487.7 679.7
L 488.4 680.75 488.6 681
Q 488.85 681.5 488.85 681.7 488.9 681.85 488.9 682.2 488.9 682.55 489 682.85 483.25 676.7 478.15 669.9 475.0873046875 665.8642578125 472.35 661.75 469.2779296875 662.0421875 466.25 662.05
L 472.2 671.55 472.35 671.9 472.75 672.5 473.3 673.65
Q 473.85 674.8 473.9 675.6
L 481.75 685.6 489.55 693.6 494.55 698.1
Q 494.75 698.2 494.8 698.3
L 497.7 700.6 497.9 700.8 498.05 700.9 498.15 701 505.85 706.6 524.1 717.8 524.4 717.95 524.55 718.05 541.35 726.95
Q 543.9 728.5 543.8 729.4
L 560.35 734.9 560.7 735.05 577.05 739.4 588.85 741.7
Q 595.7 742.8 600.1 743.2
L 601.55 743.35 601.9 743.35 602.25 743.4 618.6 744 619 743.95 626.5 743.6
Q 627.05 743.6 627.3 743.55
L 627.65 743.55 631.5 743.15 631.9 743.15 654.15 740.15
Q 656.45 739.9 657.05 740.2 654.1 741.05 653.9 741.75 653.75 742.15 653.5 742.35 653.0998046875 742.6703125 652.1 743
L 654.95 742.1
Q 656.35 741.45 656.8 741.1 657.25 740.8 657.75 740.2
L 658.15 739.65 658.2 739.55 658.25 739.5 658.2 739.5 658.2 739.45
Q 659 738.45 660.65 737.8
L 668.8 735.4 667.7 739.75
Q 668.65 738.75 670.25 737.85 670.8 737.5 671 737.45
L 673.45 736.3 685.85 732.5 694.7 728.85 698.75 726.3
Q 700.45 726.1 700.2 726.7 700.0703125 727.2189453125 698.7 728.2
L 705.55 723.95 699.7 730.65 702.35 728.35
Q 703.4 727.55 705.1 726.55
L 710.45 724.1 717.85 721.9
Q 719.4 721.4 719.9 721.15 719.95 720.9 719.25 720.6 718.55 720.2 718.45 719.8 718.35 719.1 719.55 718.05
L 720.1 717.5 724.3 714.35
Q 726.85 712.8 727.45 713.1
L 727.75 713.5
Q 727.9 713.7 728.25 713.6 728.35 712.55 730.25 710.2
L 730.55 709.9 731.4 708.85 736.55 703.8
Q 736.85 703.75 736.95 703.95
L 736.95 704.2 736.9 704.5 734.55 708.15
Q 733.95 709.2 734.05 709.55
L 744.25 700.95 744.95 700.5 745.1 700.35 745.65 700.05 748 696.95 748.25 696.45
Q 748.4 696.1 748.25 696 748.2 695.95 747.8 696
L 747.2 696.15
Q 746.9 696.25 746.75 696.1
L 746.7 695.9 746.8 695.5 747.65 694 751.1 690.9
Q 752.2 690 753.1 689.5 754.3 688.95 754.55 690.2
L 754.7 691.4
Q 754.8 692.2 754.95 692.5 755.2 693.05 755.7 693.1
L 756.35 693.05 756.8 692.9 757.3 692.65 746.45 706.1 733.65 718.75 739.4 713.85 751.1 702.25
Q 751.1 702.55 751.65 702.4
L 752.6 701.9 757.95 698.2
Q 758.6 697.9 758.65 698.1 758.7 698.3 758.15 699.25 757.7 700.15 756.1 702.1 762.65 696 768.9 688.05
L 770.4 686.15 770.5 686 770.6 685.9 778.55 674.35 778.75 674.1 778.8 673.95 778.9 673.85 781.2 670.05 781.25 670 781.3 669.9 781.3 669.85 781.35 669.85 781.4 669.7 789.35 654.6
Q 793.05 646.85 796.35 637.65
L 793.85 641.9
Q 793.3 642.8 792.85 643.2 792.8 643.3 792.5 643.45 792.4 643.45 792.25 643.3
L 794.75 637.05
Q 795.25 635.95 795.65 635.3
L 796 634.65 796.35 634.15
Q 796.85 633.5 797.65 632.95 798.45 632.35 798.85 631.9
L 799.45 629.05
Q 799.6 628.25 799.7 626.85
L 799.45 623.75 798.8 621.2
Q 798.45 619.7 798.4 617.9
L 798.85 616.75 798.95 616.55 800.45 612.55 807.3 586.55 807.35 586.25 807.45 585.95 808.15 583.2 805.85 584 806.55 580.35
Q 806.7 579.3 806.8 577.35
L 806.6 573.45 806.5 572.85 806.5 572.55 805.85 567.1 805.85 559.95
Q 806.15 559.55 806.75 562
L 807.7 567.3
Q 807.5 565.55 807.5 563.9
L 807.45 561.25 808.05 555.45
Q 808.15 554.2 808.1 553.4
L 807.8 549.65 807.4 547.5 810.65 555.35 810 549.25 809.9 548.85 808.85 540.5 808.9 539
Q 809.05 537.9 810.05 539.25
L 805.95 525.6 805.95 525.5
Q 805.9 525.45 805.9 525.4
L 805.9 525.3 805.8 525.1 803.2 516.2 803.1 515.75 801.7 511.4 801.65 511.15 797 498.45
Q 794.05 491.35 790.7 485.4
L 792.95 485.65
Q 792 484.55 790.55 482.2
L 785.15 472.9 785.1 472.7 780.35 464.85 780.1 464.55 777.8 461.05 771.75 453.65
Q 770.15 452.05 768.85 451.2
L 768.6 449.65
Q 761.8 443.25 754.55 437.7 753.5 436.6 752.9 435.75
L 752.3 434.95 751.9 434.25
Q 751.35 433.25 751.45 432.5 751.55 432.05 751.9 431.8 752 431.75 751.85 431.75
L 750.3 430.35 749.95 430.1 739.1 421.1 724.5 410.25 724.25 410.1 724 409.9 723.5 409.6 720.3 407.25 720.25 407.25
Q 720.344921875 407.2482421875 720.2 407.2
L 720.1 407.1 719.75 406.9 717.05 404.9
Q 715.75 405.2 712 403.8
L 698.55 398.3 698.25 398.15 697.9 398.05 689.8 394.75 689.45 394.65 682.3 392.05
Q 675.85 389.45 669.45 387.55
L 668.65 387.3 Z"/>

<path fill="#1A1A1A" stroke="none" d="
M 506.15 661.2
L 505.25 660.15 505.2 660.8 506.15 661.2
M 493.6 643.9
L 493.6 644.15 496.3 645.9 493.6 643.9
M 507.4 658.3
Q 508 658.85 508.1 659.1
L 508.8 658.25 507.2 657.35
Q 507.05 658 507.4 658.3
M 453.7 664.25
Q 453.85 664.2 454.25 663.95 453.75 663.85 452.8 664.1 453.35 664.4 453.7 664.25
M 450.2 664.2
Q 449.5 664.2 449.6 664.5 449.748828125 664.847265625 449.65 664.95 450.10078125 664.5001953125 450.6 664.6
L 450.2 664.2
M 430.3 658.85
Q 429.5 658.95 431 659.35 430.25 658.95 430.3 658.85
M 456.15 618.35
L 456.7 617.85 457.05 616.7 456.15 618.35
M 454.8 617.8
Q 455.15 617.05 455.5 616.55
L 454.85 616.6 454 618.65
Q 454.5 618.35 454.8 617.8
M 483.95 613
Q 482.948828125 613.0421875 482.9 612.7 482.9 612.65 482.25 613.2 482.55 613.6 483.05 613.35 483.6515625 613.026171875 483.95 613
M 481.15 611.7
Q 481.55 611.15 481.15 611.05 480.6 611 480.35 610.9 480.45 611.4 481.15 611.7
M 467.35 583.65
Q 467.15 583.2 467 583.6
L 466.6 584.75 467.4 585.5 467.35 583.65
M 455.55 618.5
Q 455.7 618.05 455.55 617.85 454.9576171875 619.6271484375 453 622.45 452.8494140625 622.762109375 452.65 623.05 450.25 626.8 449.8 628 450.35 627.4 451.2 626.15 452.55 624.25 452.6 624.15 453.0978515625 623.72890625 453.4 623.45 453.4796875 623.40859375 453.55 623.35 453.9 623.05 454.1 623.05 453.9 622.95 453.75 622.95
L 455.6 619.55 454.1 621.35 455.55 618.5 Z"/>

<path fill="#FFFFFF" stroke="none" d="
M 492.25 656.95
L 492.25 657
Q 490.9 657.8 490.1 658
L 485.15 659.4
Q 489.3443359375 658.646484375 493.4 657.6 492.9388671875 657.101171875 492.25 656.95
M 467.4 586.1
L 467.8 586.55
Q 467.7013671875 585.2876953125 467.6 584 467.5056640625 585.055078125 467.4 586.1 Z"/>
</g>

<g id="Layer0_0_MEMBER_2_FILL">
<path fill="#C1282D" stroke="none" d="
M 788.2 458.7
L 788.15 458.3 788.15 458.35 788.2 458.7
M 787.85 455.5
L 787.8 454.8
Q 787.8 454.875 787.8 454.95
L 787.85 455.5
M 789.3 374.5
L 789.2 375.2 789.2 375.3 789.3 374.5
M 792.3 357.45
L 792.45 356.75
Q 792.2875 357.561328125 792.1 358.35
L 791.85 359.65
Q 791.743359375 360.2880859375 791.6 360.9
L 791.6 361.1 792.25 357.8
Q 792.28984375 357.6181640625 792.3 357.45
M 793.1 353.55
L 793.05 353.9
Q 793.216015625 353.1421875 793.35 352.4
L 793.1 353.55
M 793.8 350.4
L 793.75 350.75
Q 793.87734375 350.2064453125 794 349.65 794.0646484375 349.3697265625 794.1 349.1
L 793.8 350.4
M 897.35 187.4
L 897.1 187.6
Q 897.0744140625 187.6255859375 897.05 187.65
L 897.35 187.4
M 985.85 135.55
L 974.75 140.35
Q 966.3 144.15 962.65 145.9
L 950.1 152.15
Q 942.5 156.2 937.6 159.15 931.9 162.45 925.55 166.6 919.25 170.8 914.45 174.2 909.5982421875 177.6794921875 904.75 181.5
L 912.2 175.95 932.7 162.45 939.7 158.6
Q 943.6091796875 156.60625 944.3 156.4 944.2314453125 156.3814453125 944.2 156.35 944 156.3 943.5 156.5
L 951.1 152.5 974.6 141.85 955.2 149.9 984.3 136.55
Q 985.4 136 985.85 135.55
M 985.4 137.4
L 991.6 135.85
Q 993.25 135.25 996.5 134.05
L 1001.35 132.25
Q 993.85 134.45 985.4 137.4
M 984.9 134.3
Q 985.9 133.85 986.25 133.75
L 989.95 132.25 990.35 132.05 994.45 130.6 990.8 130.6 989.9 130.95 989.65 131.1 972.55 139.25 984.9 134.3
M 1195.8 140.85
L 1195.4 140.7 1194 140.3 1195.8 140.85
M 897.45 187.5
L 895.3 189.2
Q 889.75 193.75 884.4 198.75 878.25 204.4 873.75 208.95 868.3296875 214.41875 863.3 219.95
L 887.6 195.85 897.45 187.5
M 1188.35 138.85
Q 1188.98984375 138.9857421875 1189.75 139.15
L 1164 132.15 1138.45 126.8 1125.95 124.9
Q 1117.45 123.9 1110.9 123.7 1103.45 123.4 1096.7 123.85 1096.15 123.85 1095.05 123.95
L 1086.65 124.9 1086.4 124.9
Q 1086.448828125 124.901171875 1086.4 124.95
L 1086.3 124.95 1084.05 125.35
Q 1082.05 124.85 1079.45 124.7 1078.25 124.55 1077 124.55
L 1053.75 125.4 1052.15 125.25
Q 1050.6 125.1 1049.7 124.65
L 1037.75 125.9 1020.5 129.05
Q 1013.95 130.5 1008.4 132.1 1003.6 133.45 997.05 135.55 990.15 137.8 985.95 139.3 980.25 141.3 974.45 143.55 968.45 145.85 962.05 148.55
L 944.45 156.4 944.45 156.45
Q 930.65 163.8 918.5 171.85 911.55 176.55 906.6 180.25
L 897.45 187.5 898.4 186.8
Q 899.5 185.9 902.2 183.8
L 918.55 172.5
Q 927.5 166.9 936.45 162.35
L 950.15 155.95 956.25 153.5 975.65 146.85
Q 975.85 146.8 978.15 146.1
L 986.45 143.9 986.75 143.85 996 141.7
Q 999.4 140.95 1006.2 139.65
L 1018.2 137.65 1033.8 135.65
Q 1036.15 135.35 1036.25 135.35
L 1034.25 135.3
Q 1034.05 135.3 1033.3 135.15 1032.95 134.95 1032.75 134.85 1032.45 134.65 1032 134.55 1037.2 133.95 1042.5 133.5
L 1056.55 132.6 1080.3 132.1 1115.5 133.15 1154.6 135.35
Q 1157.15 135.35 1159.7 135.5
L 1172.1 136.25 1183.6 137.8 1183.9 137.9 1188.35 138.85 Z"/>
</g>

<g id="Layer0_0_MEMBER_3_FILL">
<path fill="#FFFFFF" stroke="none" d="
M 1064.95 695.6
L 1069.35 694.5
Q 1070 694.3 1071.2 694.15 1066.25 693.8 1062.2 693.9 1061.9 693.9 1058.75 694.05
L 1055.6 694.3
Q 1057.45 694.9 1058.8 695.2 1060.15 695.55 1061.3 695.65
L 1063.3 695.8
Q 1064.4 695.7 1064.95 695.6
M 1021.55 692.1
Q 1021.6 692.15 1022.1 692.85 1022.5 693.3 1022.6 693.6 1022.919921875 694.2796875 1022.15 694.55 1025.1607421875 693.76015625 1028.05 693.9 1030 693.95 1032.1 694.45
L 1032.9 694.6
Q 1033 694.6 1032.6 694.35
L 1031.05 693.45
Q 1029.3 692.4 1028.1 691.55
L 1024.25 691.1
Q 1022.85 691.05 1022.2 691.1 1021.1 691.3 1021.55 692.1
M 854.3 561.55
Q 852.5 558.9 851.6 557.6 850.05 555.3 848.95 554 852.55 559.35 855.05 562.85
L 861.45 571.35 860.1 568.55
Q 858.95 567.6 857.1 565.4
L 854.3 561.55
M 860.6 560.65
Q 860.45 560.55 860.4 560.55 860.3 560.6 860.25 560.6
L 862.2 562.8 860.6 560.65
M 860.05 561.25
Q 859.9 560.55 860.25 560.6
L 858.45 558.75
Q 857.8 558.25 857.9 558.85
L 863.3 568.4 861.95 565.6
Q 861.05 563.8 860.75 563.05
L 860.6 562.8 860.05 561.25
M 889.85 250.25
Q 883.811328125 257.653515625 878.75 264.85 875.3 269.7 872.2 274.55 869.1 279.35 866.1 284.5
L 868.05 282.25 873.75 272.9
Q 875.7 269.8 879.8 263.8
L 886.25 254.9
Q 888.175 252.425 889.85 250.25
M 1125 168.1
Q 1120.45 167.5 1115.5 167.05 1110.2 166.55 1105.95 166.35
L 1113.15 168
Q 1120.05 167.9 1125 168.1
M 1118.9 160.25
L 1115.15 157.1
Q 1108.6 157 1103.4 157.15
L 1091.7 157.65 1099.55 158.95 1109.65 159.3
Q 1109.9 159.35 1110.55 159.35
L 1118.9 160.25
M 990.85 184.8
L 1001.3 181.2
Q 1007.4 179.1 1012.7 177.5 1019.25 175.5 1024.65 174.15 1031.7 172.45 1036.95 171.6
L 1051.45 171.3 1053.4 171.5
Q 1054.25 171.65 1054.65 171.85 1054.757421875 171.9171875 1054.8 172 1054.702734375 171.573828125 1054.6 171.3 1054.4 170.6 1053.75 170.25 1072.4 167.25 1092.6 166.8
L 1086.35 166.4 1086.3 166.4 1080.7 166.15
Q 1075.35 165.95 1068.7 165.95 1070.75 165.55 1073.2 165.25
L 1086.2 164.45 1086.4 164.4 1096.5 164.2 1105.3 163.55
Q 1106.95 163.25 1107.4 162.75
L 1084.1 163.5
Q 1083.75 163.55 1083.15 163.55 1082.8 163.6 1082.15 163.6 1080.85 163.7 1080.2 163.7
L 1079.25 163.75
Q 1078.9 163.8 1078.25 163.8
L 1054.05 166
Q 1048.45 166.75 1045.95 167.15
L 1041.4 167.9 1016.95 173.8 1001.9 179.3
Q 995.8 181.9 990.85 184.8
M 1345.95 413.4
Q 1346.35 410.55 1346.7 406.7
L 1342.2 398.9 1343.25 418.15
Q 1343.65 420.95 1344.1 420.95 1344.55 421 1345.05 418.8
L 1345.95 413.4
M 1334.45 374.65
Q 1335.05 376.1 1335.7 376.75 1336.25 377.25 1336.75 377 1337.15 376.85 1337.7 376.1
L 1338.6 374.9
Q 1339.7 373.55 1340.6 374.8
L 1336.5 364.45
Q 1334.95 360.65 1332 354.4
L 1337.4 369.2 1337.5 370 1337.55 374.15
Q 1337.4 375.8 1337.1 376.25 1336.55 377 1335.2 374.25
L 1330.55 361.65 1333.7 372.65 1334.45 374.65
M 1323.35 326.55
L 1322.9 326
Q 1322.5 325.6 1322.25 325.75 1322 325.8 1321.85 326.3 1321.75 326.65 1321.75 327.6
L 1321.85 329.35 1321.95 329.8 1322 330.35 1322.2 331.4
Q 1322.45 331.45 1322.85 331.85
L 1323.25 332.3
Q 1323.35 332.35 1323.45 332.55
L 1323.7 332.8 1325.45 335.1
Q 1326.35 336.25 1326.7 336.2 1326.9 336.2 1326.9 335.7
L 1326.7 334.15
Q 1326.5 333.45 1325.9 331.9
L 1324.5 328.5 1323.35 326.55
M 919.45 587.95
L 919.4 587.9 919.35 587.9
Q 919.4013671875 587.9484375 919.45 587.95
M 1304.65 292.65
L 1304.25 291.95 1287.8 267.75
Q 1277.3 253.5 1265.35 241.1
L 1254.15 230.25 1245.85 223.15 1231.4 212.8 1225.45 209.3
Q 1218.8 205.55 1212.4 203.05 1208.9 200.05 1203.4 197 1199.3 194.7 1193.05 191.95 1185.5 188.55 1183.9 187.8
L 1180.55 185.9
Q 1179.05 184.95 1178.4 184
L 1158.6 177.15 1140.9 173.3 1132.25 172.15
Q 1126.2 171.5 1118.85 171.15 1112.65 170.85 1105.55 170.95
L 1089.9 171.35
Q 1089.3 171.35 1089 171.4
L 1088.05 171.4
Q 1087.75 171.45 1087.1 171.45
L 1059.7 173.45 1058.55 173.45 1056.15 173.2
Q 1055.2 172.95 1054.95 172.4
L 1030.2 178.5
Q 1029.5 178.65 1028.2 179.05
L 1019.4 181.65 995.85 190 970.55 201.85
Q 967.25 203.65 963.45 205.9
L 949.85 214.65 938.25 223.45 915.7 242.3
Q 914.3 243.35 913.65 243.7 912.8 244.25 912.25 244.35
L 913.3 243.1 913.5 242.9 914.55 241.35
Q 914.9 240.65 914.75 240.15 914.65 239.55 914.8 239.1
L 915.3 238.15 915.95 237.25 912.4 241.95 911.85 243.1
Q 911.55 243.9 911.45 244.8
L 911.4 245.85 911.35 246 911.35 246.1 911.4 246.05 911.4 246.15
Q 911.3 247.05 911.05 247.65
L 910.2 249.25 906.85 253.45
Q 903.7 256.95 901.85 258.9
L 899.85 252.85
Q 899.65 253.9 899.25 254.95
L 898.3 257
Q 897.95 257.7 897.05 259.1
L 895.6 261.25
Q 893.35 264.2 887.95 270.15 882.1 276.85 879.55 280.35 875.1 286.6 873.05 292.1 871.15 293.55 870.95 292.65 870.8 292.25 871.1 291.3 871.4 290.15 871.9 289
L 875.3 282.5
Q 877.75 278.3 880.5 274.5
L 876.7 279.5 873.5 285.1 867.7 298.1 866.65 299.95
Q 867.35 294.15 868.55 287.55 867.45 292.2 865.25 296.45
L 860.65 303.4 853.45 311.55
Q 851.95 313.4 851.55 313.95 851.65 314.2 852.8 314.2 853.9 314.1 854.35 314.55 854.95 315.25 854.4 317.45 853.8 320 851.5 325.35
L 849.7 328.45
Q 849.15 329.2 848.7 329.2 848.25 329.05 848.05 329 847.7 328.85 847.3 329.25 848 330.4 847.5 334.8
L 847.15 337.25
Q 846.8 339.2 846.6 340.15
L 844.85 347.15
Q 844.1 347.65 843.95 346.55 843.75 345.75 843.85 343.75 843.95 341.45 843.9 340.45 843.9 338.75 843.45 338.35 842.2 342.3 840.2 349.25
L 836.8 358.4 836.25 363.85 836.35 364.6
Q 836.45 365.15 836.7 365.15 836.9 365.15 837.25 364.8
L 837.85 364.15
Q 838.25 363.85 838.45 363.9 838.7 364 838.85 364.65
L 838.95 367.05
Q 836.95 374.85 835.8 376.5 834.8 378.05 833.55 376.75 833.25 376.5 832.45 375.45 831.75 374.6 831.3 374.3 830.65 373.9 829.95 374.15 829.6 374.3 829.2 374.7 828.9 375 828.8 375.2
L 828.35 375.85
Q 828.6 369.3 829.5 362.15 830.35 355.35 831.8 348.35 832.85 343.1 834.6 336.15 836.7 327.9 836.85 327.1
L 830.15 351.6 828.5 359.85
Q 828.05 359.05 826.65 361.95
L 823.3 369.75
Q 822.85 370.55 822.55 370.4 822.25 370.1 822.25 368.65
L 822.55 363.7
Q 821.1 369.25 819.75 376.55 818.7 382.4 817.85 390 817.1 396.9 816.8 403.85
L 817.25 431.65
Q 817.7 438.15 818.55 445.2 820.1 457.55 822.95 470.6
L 822.75 463.7
Q 822.85 461.95 823 461.4 823.15 460.5 823.65 460.85
L 825.55 471.6 825.65 473.95 825.6 474.8
Q 825.5 475.9 825 477.2 824.4 478.75 824.3 479.35
L 825.75 483.2
Q 826 483.9 826.45 484.7
L 827.1 486 828.45 488 829.75 489.5
Q 830.65 490.35 832.45 492
L 833.9 493.55 835.45 495.65
Q 836.05 499.5 837.15 504
L 849.75 544.25 851.95 541.6
Q 853.1 544.75 853.85 546.45 854.9 548.7 855.85 550.2
L 856.85 551.8 862.25 558.7
Q 862.9 559.4 864.65 561.7
L 865.85 563.5
Q 866.65 564.55 867.15 565.45
L 869.95 570.25
Q 869.95 570.65 869.2 570.1
L 868.4 569.45 862.25 562.85 866.15 568.4 871.35 578.45 872.15 579.75
Q 873.35 581.5 874.3 582.65
L 877.4 586.2
Q 873.2 583.4 867.6 579.35
L 880.85 595.7 881.55 596.7 881.95 597.5
Q 882.6 598.95 880.35 598.1 882.65 599.9 886.75 603.45
L 895.75 611.5 895.8 611.5 895.8 611.55 913.6 626.9 926.55 636.85
Q 931.4 640.3 935.3 642.7 939.45 645.3 943.8 647.65
L 940.9 649.05 943.45 650.05 974.5 665.7 985.25 669.9 993.05 671.8
Q 994.35 671.95 995.5 671.95
L 996.9 673.65
Q 1009.45 676.05 1022.6 677.3 1023.3 677.45 1024.5 677.85
L 1027.35 678.9 1028.35 679.4
Q 1029.85 680.3 1030.2 681.25 1030.4 681.85 1030.15 682.4 1030.1 682.55 1030.25 682.4
L 1048.25 684.95
Q 1056 685.85 1064.4 686.5
L 1079.25 687.5 1079.7 687.5
Q 1080 687.55 1080.55 687.55 1081.75 687.65 1082.25 687.65 1082.55 687.7 1083.1 687.7 1083.35 687.75 1083.9 687.75
L 1085.45 687.85
Q 1085.75 687.9 1086.25 687.9
L 1086.3 687.95 1087.1 687.95
Q 1088.2 688.05 1088.7 688.05
L 1091.8 688.3
Q 1092.4 687.7 1094.35 686.95
L 1097.4 686.05 1098.65 685.8
Q 1101.75 685.05 1111.2 683.5
L 1134.9 679.25 1152.15 675.6
Q 1155.65 674.85 1161.45 673.3
L 1179.85 667.4
Q 1181.4 666.9 1184.4 665.7
L 1192.8 662.2 1193.1 662.1 1201.65 658.15 1223.45 645.9
Q 1227.7 643.3 1231.6 640.55 1235.65 637.8 1239.55 634.85 1243.95 631.45 1247.2 628.8 1252.2 624.7 1254.65 622.55
L 1275.4 602.25
Q 1288.65 587.95 1299.35 572.3 1310.1 556.65 1318.2 539.65 1326.1 523 1331.3 505.4 1336.3 488.15 1338.65 470.8 1339.55 465.7 1339.7 459.6 1339.9 454.05 1339.5 447.05 1339.25 442.5 1338.45 433.95
L 1337.05 420.95 1336.9 424.25 1336.85 424.65 1336.05 451.55
Q 1335.7 457.15 1334.65 463.9
L 1331.55 473.95 1331.3 474.4 1330.05 477.25 1320.1 494.95 1324.95 489.55 1324.75 490.95 1322.8 499.65 1322.55 500.35
Q 1322.15 501.8 1321.45 503.35
L 1320.9 504.5
Q 1320.65 505.2 1320.4 505.55
L 1319.45 507.6 1317.55 513.45 1316.45 518.5 1312.05 515.9
Q 1312.05 517.25 1311.8 518.45 1311.5 519.85 1310.9 521.4
L 1310.25 522.95
Q 1310 523.65 1309.5 524.55
L 1305.85 530.9 1303.8 533.75
Q 1302.25 535.9 1300.2 538.15
L 1300.65 544.4 1293.75 552.6 1289.05 557.35 1287.95 558.3
Q 1286.65 559.45 1285.9 559.9 1285.1 560.45 1284 561 1282.9 561.5 1282.15 561.7
L 1285.45 562.6 1284.4 563.45 1279.1 569.5
Q 1273.5 576.15 1269.3 580.6
L 1265.7 584.2 1261 588.05
Q 1259.55 588.9 1259.25 588.25 1259.15 587.75 1259.35 587.05
L 1260.15 584.85 1256.6 590.8 1256.45 590.95 1256.45 591 1256.35 591.1 1256.05 591.5
Q 1255.25 592.6 1254.65 593.25
L 1253.9 594.1 1251 596.8 1247.95 595.3 1235.95 606.95 1230.7 610.85
Q 1229.8 611.4 1229.6 611.5
L 1228.6 612.05
Q 1227.45 612.5 1226.95 612.6
L 1229.6 609.65 1231.2 607.3
Q 1231.8 606.2 1232.1 605.3
L 1232.65 603.5 1221.75 612.3 1215.85 617.85
Q 1214.95 618.8 1214.3 619.8 1213.85 620.5 1213.45 621.45 1213.2 622.1 1213.1 622.85 1213 623.25 1213 624.1 1212.85 626.2 1212.75 626.65 1212.35 628.1 1210.9 629.9
L 1208.75 632.05 1205.5 634.6
Q 1200.8 637.95 1194.55 641.1
L 1194.1 639
Q 1190.25 642.05 1185.15 645.65 1179.5 646.75 1173.55 647.6
L 1169.35 650.9 1164.1 653.65 1159 655.65
Q 1154 657.4 1148.45 658.75 1143.25 660 1136.6 661.05 1131.7 661.9 1124.1 662.7 1120.05 663.2 1111.65 663.9
L 1099.85 664.85
Q 1093.75 665.4 1089.2 666.1
L 1086.2 666.15
Q 1085.5 666.15 1085.15 666.1
L 1082.9 666 1052.6 660.9 1052.2 660.8 1046.1 659.95 1046.85 663.3 1046.15 663 1039.4 660.85
Q 1031.5 658.4 1029.1 657.6 1021.25 654.85 1017.2 653.25 1010.85 650.8 1004.75 647.9 998.75 645.05 992.85 641.7 987.05 638.35 982.45 635 977.7 631.55 974.45 628.45
L 973.65 627.7 970 623.4 969.6 622.75 964.1 620.75
Q 963.75 620.75 963.95 620.95
L 964.3 621.3 967.85 624
Q 969.5 625.45 968.95 626.1 964.75 624.25 960.55 621.95
L 957.2 620 950.7 615.35 946.25 611.1 941.1 604.6
Q 937.65 599.95 935.25 597.35
L 931.65 594.8
Q 930.6 594.1 930.7 594.45 930.7 594.7 931.55 595.65
L 937.4 602.15
Q 938.85 604 935.85 602.6
L 927.2 594.2 919.45 587.95 919.4 587.95 919.35 587.9 919.3 587.85 916.1 585.45
Q 915.75 585.25 915.15 584.75
L 914.65 584.4 908.6 579.1 907.35 577.8
Q 907.15 577.6 906.05 576.4 905.6 576.05 905.35 575.65
L 904.65 574.9 900.15 569.3
Q 898.6 567.2 896.8 564.6 896.6 563.35 897.55 564
L 898.65 564.95 903.3 569.8
Q 903.6 570.1 904.85 571.25
L 906.15 572.2
Q 902.9 569.35 899.35 565.55 895.9 561.85 892.2 557.1 888.15 551.75 885.1 547.15 881.9 542.4 878.3 536
L 869.85 519.35 866.5 511.45
Q 864.15 505.8 861.75 498.7 859.5 492.2 857.75 486.2
L 855.4 474 853.4 459.65 851.8 427.15 852.5 410.75 854.95 389.75
Q 855.75 384.65 856.65 380.6 857.25 377.6 858.65 371.7 859.85 367 861.05 363.1 863.65 354.45 866.75 346.85
L 865.9 345.7 875.8 324.65 885.65 305.2 894 292.8
Q 890.1 296.95 886.8 300.8 888.6 296.65 891.25 292.1 893.45 288.5 895.95 285.05
L 906.7 270.9 914.2 267.4 918.25 261.9 918.55 261.35
Q 919.45 259.85 919.65 258.65 919.85 257.2 920.15 256.35
L 920.5 255.55 920.65 255.3 920.6 255.35 920.55 255.4 920.55 255.35 920.6 255.35 920.6 255.3 923 251.75 924.05 251 943.8 234.75
Q 949.5 230.05 954.1 226.6
L 956.25 225.05 956.7 224.65 960.9 221.8 961.6 221.7 962.05 221.7
Q 962.3 221.85 962.25 222.15
L 962.05 222.5 961.7 222.95
Q 961.45 223.3 960.7 224.05
L 958.15 226.55
Q 956.75 227.9 956.3 228.6
L 958.6 226.7
Q 959.15 226.35 959.65 225.85
L 971.95 214.85 980.7 209.05 986.3 206.2 987.05 206.9
Q 990.9 204.6 995.6 202.2 1000.35 199.8 1004.75 197.9 1014.7 193.65 1024.5 190.7 1034.45 187.65 1045.85 185.5 1057.25 183.4 1068.25 182.45
L 1079.75 181.7 1080.1 181.65 1089.25 181.45 1089.6 181.4 1101.45 181.55 1101.8 181.6 1102.9 181.6
Q 1108.1 181.8 1114.4 182.3 1119.45 182.7 1125.8 183.45 1131.45 184.15 1137.05 185.1 1147.4 186.8 1158.85 189.6
L 1156.85 188.75
Q 1156.25 188.5 1156 188.15 1155.6 187.4 1154.95 186.85 1160.9 188.45 1166.25 190.15 1172.15 192 1177.55 194.1 1188.9 198.4 1199.75 203.95 1210.3 209.3 1221.05 216.15 1231.5 222.8 1241.05 230.2 1250.8 237.75 1259.5 245.55
L 1260.6 246.5 1260.7 246.55 1260.75 246.6 1260.85 246.75 1276.35 261.4
Q 1279.95 265 1284.1 269.4 1289 274.6 1291.4 277.3 1293.75 279.9 1298.25 285.1
L 1301.5 288.9
Q 1301.8 289.2 1301.9 289.4
L 1304.65 292.65 Z"/>
</g>

<g id="Layer0_0_MEMBER_4_FILL">
<path fill="#C1282D" stroke="none" d="
M 916.4 701.75
Q 916.5 701.75 916.25 701.4
L 913.8 697.15
Q 910.3 695.3 908.95 695.15 907.95 695.05 907.95 696.05
L 908.05 697
Q 908.15 697.65 908.1 697.95 908.1 698.7404296875 907.4 698.9 908.6533203125 698.8357421875 910.05 699
L 912.6 699.65
Q 914.45 700.3 915.8 701.35 916.15 701.55 916.4 701.75
M 937.85 709.95
Q 938.8 710.7 939.75 711.25
L 940.55 711.7 941.35 712 942.8 712.35
Q 943.55 712.5 945.5 712.5 947.35 712.5 948.65 712.75
L 942.95 710.15 941.35 709.6
Q 939.9 709.05 938.4 708.65
L 935.65 707.95 937.85 709.95
M 791.15 543.35
Q 790.05 541.25 789.15 539.95 793.65 548.75 798.15 556.5
L 797.45 553.8 795.1 550.75 791.15 543.35
M 807.45 298.5
L 809 296.3
Q 815.2 279.15 824.65 261.15 814.6 279.45 807.45 298.5
M 985.45 137.65
L 991.95 136.85 1001.4 132.35
Q 993.9 134.6 985.45 137.65
M 988.05 124.25
L 987.8 124.4 987.5 124.5 970.05 133.1 975.75 132.15 988.35 127.35 993.05 126 988.65 124 988.05 124.25
M 983.7 134.8
Q 984.85 133.9 985.05 133.15 981.15 135.15 974.1 138.6 964.9 143.1 962.05 144.5 954.3 148.45 949.5 151.05 943.55 154.25 937 158.15 930.15 162.3 925.1 165.85 919.35 169.75 914.2 173.9 909.1 177.95 904.85 182.05
L 897.45 189.95 921.5 171.95 921.8 171.8 931.6 165.45 941.45 161.7
Q 943.95 160.9 945.35 160.75 946.307421875 160.6048828125 946.7 160.8 946.4611328125 160.4255859375 946.3 160.2 945.8 159.5 945.05 159.25
L 959.75 150.65
Q 967.9 146.25 975.05 142.95
L 955.25 149.95 956.8 148.9 967.55 143.1 980.85 136.65
Q 982.4 135.85 983.7 134.8
M 1282.55 191.85
L 1288.95 197.4
Q 1294.25 202.2 1295.2 203.1 1299.05 205.7 1297.1 201.95
L 1291.05 193 1282.55 191.85
M 1261.4 176.15
L 1263.1 178
Q 1263.9 178.85 1264.25 179.45
L 1264.65 180.05 1264.9 180.55
Q 1265.1 180.95 1265.1 181.3 1265 181.85 1264.3 181.85 1263.8 181.85 1263.45 181.75
L 1262.4 181.5 1251.55 176.7 1259.15 181.15 1262 182.45 1263.3 182.8
Q 1263.8 182.85 1264.25 182.8 1264.95 182.65 1265.25 182.05 1265.45 181.55 1265.5 180.65 1265.55 179.55 1265.6 179.05 1265.7 177.25 1267.2 177.3
L 1248.8 170.3
Q 1255.8 173.4 1261.4 176.15
M 1226.35 158.8
L 1227.35 160.05 1228.7 161.3
Q 1229.15 161.05 1230.6 161.2 1231.45 161.3 1233.2 161.5
L 1234.25 161.5
Q 1234.65 161.5 1234.85 161.3 1234.95 161.05 1234.75 160.75
L 1234.4 160.3 1233.8 159.7
Q 1230.4 157.6 1228.05 156.85 1226.2 156.3 1225.85 156.95 1225.5 157.5 1226.35 158.8
M 799.8 548.65
L 799.6 546.9
Q 799.6 546.25 800 546.35 799.1 545.05 798.5 544.55 798.25 544.3 798.05 544.3 797.9 544.3 797.9 544.6 797.9 546.35 801.1 553.75
L 799.8 548.65
M 801.55 548.45
L 800.35 546.35
Q 800.25 546.25 800.15 546.3 800.05 546.35 800 546.35
L 801.55 548.45
M 820.35 288.7
L 818.15 292.65 816.25 297.5 815.2 302.6 816.45 298.15 820.35 288.7
M 1195.6 144.2
L 1183.95 140
Q 1177.65 137.75 1170.75 135.5 1163.5 133.15 1156.4 131.2 1149.05 129.2 1141.3 127.6 1133.35 126.05 1125.9 125.1 1118 124.15 1110.85 123.95 1103.45 123.75 1096.7 124.25
L 1087.05 125.55 1086.65 125.65 1086.45 125.65 1086.4 125.7 1086.3 125.7 1084.05 126.2
Q 1082.2 125.75 1079.45 125.5
L 1075.75 125.35
Q 1075.15 125.3 1074.5 125.35 1072.75 125.35 1069.45 125.55
L 1055.65 126.6 1052.25 126.35
Q 1050.7 126.05 1049.75 125.45 1041.9 126 1034.2 127.3 1026.65 128.65 1020.75 130.25 1015.5 131.65 1008.85 133.9 1003.4 135.85 997.85 138.15 993.65 139.9 987.25 142.9
L 976.35 148.2
Q 969.55 151.55 964.6 154.15 957 158.05 951.5 161 950.3 161.45 949.7 161.55 949.05 161.75 948.45 161.75 947.55 161.75 947.05 161.25 938.4 167.7 935 170.3
L 923.55 179.1
Q 911.1 188.8 901.75 196.9 895.65 202.25 891.3 206.25
L 888.7 208.65
Q 888.3 209.1 887.4 209.9
L 886.45 210.8 886.15 211.15 884.1 213.15 884 213.2 883.95 213.3 883.6 213.6 881.3 215.9 881.05 216.2
Q 876 221.3 871.05 226.95 865.35 233.5 861.45 238.75
L 848.05 255.5 847.05 256.5
Q 845 258.55 844.2 258.6
L 845.15 256.75 845.55 255.6
Q 845.65 254.9 845.35 254.4 845 253.7 845 253.35 845 252.95 845.2 252.35 845.3 252.05 845.85 250.8
L 845.2 251.95 843.95 254.8 843.5 256.25 843.35 257.4
Q 843.3 258.25 843.5 259.1 843.65 259.55 843.95 260.4 844.4 262.05 843.55 264.2
L 842.85 265.75 838.35 273.15 834.1 267.35
Q 834.2 268.05 834.2 269.4
L 833.9 271.45
Q 833.7 272.5 833.3 273.55
L 832.4 275.6
Q 831.85 276.85 831.35 277.75
L 827.15 284.4
Q 823.05 290.6 821.15 294.3
L 819.05 299 817.95 302.55 817.4 305.45 816.6 306 816 306.3
Q 815.45 306.45 815.2 306 814.95 305.6 814.95 304.75 814.95 304 815.2 302.6
L 813.6 309.5
Q 813.25 310.65 813.05 311.1
L 812.4 312.9 811.05 301.3
Q 811.1 301.9 811.05 302.45
L 811 303.6
Q 811 304.35 810.8 305.75
L 810.4 307.75 809.15 311.4 808.35 313.1 805.45 317.55 798.65 325.95
Q 798.95 326.2 800.15 326.1 801.55 326.1 802 326.45 802.9 327.05 802.75 329.05
L 802.3 331.95
Q 802.25 332.3 801.8 333.95
L 801.1 336.3 800.7 337.25 799.65 339.1
Q 799.2 339.7 798.65 339.8
L 797.85 339.6
Q 797.4 339.5 797.05 339.85 797.45 340.2 797.85 341.55
L 798.25 343.85 798.4 347.65 797.4 355.9
Q 796.6 356.35 796.2 355.4 796.05 355.1 795.85 354.3
L 795.15 349.9
Q 794.8 348.35 794.25 348.05 793.45 351.6 792.2 357.8
L 791.05 362.05
Q 790.45 363.7 790.3 364.05
L 789.5 365.95 789.45 369.65
Q 789.5 370.8 789.7 371.45 790 372.25 790.8 371.6 791.85 370.8 792.1 370.85 792.45 370.95 792.7 371.5
L 793.1 373.6
Q 791.6 380.35 790.3 381.95 789.2 383.3 787.6 382.2 785.75 380.5 784.7 380 782.9 379.2 781.35 381.4
L 781.35 367.7 784.1 341.6
Q 784.4 338.8 784.45 338 781.45 352.55 779.8 367.25 779.2 366.5 777.95 369.1
L 775.7 374.1
Q 774.55 376.9 773.95 376.55 773.65 376.4 773.4 375.05
L 773.2 370.7
Q 770.85 381.4 769.85 393.85
L 769.15 412.85 770.4 436.3 772.5 453 774.55 464.55 774.9 458.45
Q 775.05 457.1 775.35 456.45 775.65 455.75 776.2 455.95
L 777.45 464.1
Q 777.65 466.75 777.25 468.3 777 469.3 776.25 470.35 775.45 471.55 775.2 472.25 775.7 474 776.4 475.7
L 777.05 477
Q 777.1 477.05 777.7 478.15 778.85 480 780.4 481.25 780.5 481.35 783.2 483.5 784.15 484.3 784.65 484.9
L 786.15 486.75
Q 786.4 490.35 786.45 490.7
L 786.95 495.9 792.65 530.9 795.85 528.5 796.7 533
Q 797.25 535.05 797.95 536.55 798.5 537.8 799.4 539.45
L 801.7 542.95 801.95 543.25 805.4 549.15
Q 806 550.35 806.25 551.05 806.55 551.6 806.65 552.1
L 807.9 555.65
Q 807.65 556.3 805.55 553.85 803.8 551.7 801.55 548.45
L 803.5 552.2
Q 803.75 552.6 804.2 553.8
L 806.5 562.3
Q 806.85 563.55 807.3 564.75
L 809.7 569.3 810.95 571.1 802.45 564.25 811.3 579.85 811.4 580.15 811.55 580.45
Q 812.1 581.55 812.1 582.25 812.25 583.65 810.2 582.75 813.85 586.5 820.5 594.65
L 831.95 609.05
Q 838.55 617.2 844.4 623.55 851.2 630.8 857.2 635.9
L 853.8 637.1 857 639.15 862.95 644.1 863 644.1 863 644.15 863.1 644.2 863.15 644.3 863.35 644.45 873.95 654.25
Q 880.35 660.1 885.15 663.6
L 887.8 665.4
Q 889.15 666.3 890.3 666.85
L 892.65 667.95
Q 893.5 668.3 894.75 668.6
L 895.2 670.7 916 680.3 917.95 681.85 918.45 682.35
Q 919.2 683.05 919.9 684.05 920.75 685.45 920.6 686.5 920.5 687.2 920 687.75 919.85 687.9 920.1 687.75 925.8 691.1 934.05 695.55 940.65 699.1 946.7 702.1
L 968.3 713.3
Q 968.7 713.05 969.45 712.9 970.35 712.7 971 712.7
L 977.45 713.25 986.1 715
Q 990.35 715.9 999.7 718.05 1007.3 719.8 1013.75 721.1 1030 725.35 1046.75 727.5
L 1067.9 729.45
Q 1069.3 729.55 1072.1 729.65
L 1080.65 729.9 1114.7 728.4
Q 1122.85 727.6 1131.6 726.2
L 1140 724.75
Q 1145.85 723.6 1148.3 723 1156.55 721.2 1164.7 718.8 1172.15 716.65 1180.7 713.65 1196.45 707.95 1211.05 700.5
L 1211.5 700.3 1225.25 692.7
Q 1231.75 688.9 1238.8 684.2 1245.95 679.35 1251.55 675.1 1257.9 670.3 1263.5 665.5
L 1267.15 662.45
Q 1269.15 660.55 1270.75 658.8
L 1277.9 650.35
Q 1279.8 647.95 1284.9 641.05
L 1291.75 631.75 1272.35 650.35 1264.1 657.35 1258.6 660.45 1252.75 662.65
Q 1251.25 663.15 1249.4 663.55
L 1235.05 667.05 1241.9 667.2 1236.6 671.55
Q 1236.1 672 1235.75 672.15
L 1231.75 674.5 1229.8 675.3
Q 1228.3 675.9 1227.95 676.05
L 1225.95 677.15
Q 1224.65 678 1223.45 679
L 1220 682 1217.7 676.35
Q 1217.55 676.7 1217.05 677.3 1216.55 677.9 1216.25 678.15 1215.65 678.7 1214.05 679.8
L 1213.75 680 1213.4 680.15 1211.4 681.2 1205.3 683.35
Q 1204.3 683.65 1202.3 684.05
L 1197.35 684.85 1194.75 690.45
Q 1184.7 692.25 1180.85 692.45
L 1175.9 692.3
Q 1175.15 692.2 1173.85 691.8 1172.8 691.4 1172.1 690.95
L 1174.25 694.3
Q 1173.8 694.25 1173.05 694.3
L 1159.95 697.05
Q 1156.4 697.9 1153.55 698.35
L 1145.6 699.3
Q 1144.6 699.3 1143.85 699.15 1142.35 698.9 1142.5 698.05 1142.7 697.1 1144.7 695.55 1144.2 695.8 1142.5 696.8
L 1141.95 697.15 1140.05 698.15
Q 1139.5 698.45 1138.55 698.8
L 1136.8 699.4
Q 1134.9 699.95 1132.4 700.15
L 1130.8 696.5 1118.15 699.05 1114.9 699.4
Q 1114.35 699.4 1114.1 699.45
L 1110.7 699.45
Q 1109.5 699.4 1108.6 699.15
L 1107.75 698.9
Q 1107.65 698.9 1107.1 698.6
L 1107.6 698.5 1110.45 697.55 1112.75 696.3
Q 1113.55 695.8 1114.35 695
L 1115.6 693.6
Q 1107.85 694.2 1103.35 694.85 1100.8 695.25 1099.3 695.65
L 1096.35 696.5
Q 1094.15 697.35 1092.9 698.6 1092.05 699.45 1091.3 701 1090.35 702.95 1089.95 703.45 1088.8 704.8 1087.05 705.6
L 1086.45 705.85 1086.5 705.85 1086.4 705.9 1086.25 705.95 1082.5 706.9 1082.25 706.9 1080.8 707.15 1069.6 707.45 1070.15 704.95
Q 1066.6 705.75 1060.35 707
L 1050.65 702.9 1049.2 703.45
Q 1048.45 703.75 1047.65 703.9 1046.45 704.2 1044.15 704.5 1042.3 704.65 1040.2 704.65
L 1032.4 703.95 1025.4 702.65 1025.1 702.55 1016.1 700.2
Q 1012.6 699.2 1005.6 696.9
L 983.2 689.45 976.5 687.8 972.4 686.05 954.45 673.75
Q 948.65 669.95 944.4 667.65
L 943.4 671.5 922.85 653.1
Q 919.05 649.55 914.35 644.7 910.25 640.45 906.35 635.85
L 898.25 625 894.45 618.15 893 614.35 893.05 614.4 893.05 614.35 893 614.25 892.55 612.5 889.4 610.5
Q 888.3 609.95 887.95 609.85 887.4 609.7 888.3 610.85
L 889.8 612.8 890.3 613.6
Q 891.35 615.35 890.65 616
L 885.45 611.95 885.3 611.8 884.05 610.75 879.4 606.15 875.6 601.15 874.1 598.4 868.1 583.85 865.35 581.2
Q 864.5 580.6 864.45 580.85 864.45 581.2 864.95 582.05
L 866.15 584.25
Q 868.3 588.2 868.5 588.8
L 868.65 589.5
Q 868.65 589.8 868.45 589.85 868.25 589.95 867.85 589.8
L 866.75 589.25 864.65 585.8 857.8 576.7 849.8 568.8 844.1 560.95 839.05 550.95
Q 839.25 549.7 840.1 550.4
L 840.95 551.3 844.35 556.05 845.55 557.45
Q 845.85 557.8 846.6 558.45 844.8 556.3 844.1 555.35
L 839.6 549 831.6 534.25
Q 829.2 529 827.15 523.8 824.95 518.2 823.1 512.65 821.1 506.55 819.55 501.15 817.45 493.45 816.5 489.65
L 813.9 478.45
Q 813.15 472.25 812.55 464.95 811.85 456.7 811.6 450.2
L 811.65 421.05 811.7 420.9 812.05 414.05 812.1 413.8 812.1 413.55 812.4 409.95
Q 812.6 407.35 813.2 401.75
L 815.5 385.55
Q 817 377.15 818.85 370.05
L 823.05 355.55 821.85 354.5
Q 824.15 349.65 826.55 342.95 829.15 334.9 830.5 330.75 833.1 322.85 834.95 318.2 837.65 311.35 840.95 305.7
L 835.3 313.3
Q 835.65 311.45 836.4 308.95
L 838.35 303.35 847.6 284.65 852.3 282.2 852.7 281.95 854.4 281.1
Q 856.4 277.05 856.9 275.15 857.15 274.05 857.15 273.55
L 857.05 272.45
Q 856.8 270.65 856.8 270.2
L 856.85 269.4 857.1 268.4 858.05 265.65
Q 860.85 263.05 865.25 257.6 867.4 255 873.1 247.65 877.8 241.7 880.3 238.65
L 885.1 233.1
Q 887.6 232.1 885.8 235.4
L 883.6 239.55
Q 883.3 240.25 883.25 240.55
L 888.25 233.1
Q 888.9 232.05 889.9 230.15
L 891.85 226.55 891.8 226.6 891.85 226.5 894.15 223.05 900.5 215.75 902.95 213.45 903.9 214.1 904.25 213.65 921.65 196.35 934.95 185.7 951.8 174.45 962.8 168.2
Q 971.7 163.45 980.75 159.55
L 990.55 155.5 990.85 155.4 991.15 155.25 999.35 152.25
Q 1005.65 150.05 1008.8 149.05
L 1037.2 141.3
Q 1035.6 141.4 1035.25 141.35 1034.65 141.3 1034.35 141.05 1033.7 140.4 1032.95 140.1
L 1043.15 138.25
Q 1050.05 137.15 1053.55 136.7
L 1082.35 134.35 1089.85 134.15 1090.2 134.1 1096.55 134.05
Q 1106.55 134 1118 134.55 1127.25 134.95 1138.95 136.05
L 1168.6 139.8 1195.6 144.2 Z"/>
</g>

<g id="Layer0_0_MEMBER_5_FILL">
<path fill="#FFFFFF" stroke="none" d="
M 406.5 667
Q 406.25 666.85 405.4 665.9 404.8 665.3 403.9 665.05
L 403.95 666.25
Q 403.65 665.55 402.2 664.15 401.05 662.95 401 661.75
L 400.55 662.05
Q 399.7 659.95 397.45 656.25 395.05 652.3 394.45 650.9 393.7 650.2 392.3 648.45 390.85 646.8 390.1 646.1
L 389.7 645.75 388.5 643.45
Q 387.85 642.15 387 641.6 387.15 641.6 387.65 642.1 388 642.5 388.35 642.15 388.3 640.65 387 639.9 386.35 639.5 386.2 639.25 385.85 638.75 385.9 637.9 385.2 637.7 385.15 638.65 385.05 639.35 384.5 638.8 384.6 638.35 385 637.7 385.5 636.9 385.55 636.75 385.95 635.55 384.65 634.4 384.2 634.6 384.15 635.15 384.15 635.45 383.3 635 384.3 634.2 384.75 632.8
L 385.2 631.5 385.8 627.65
Q 386.15 626.15 386.35 625.75
L 385 626.35
Q 384.75 625.8 384.75 625.15
L 385.05 624
Q 385.5 622.7 385.2 622.3 384.85 622 384.6 621.55
L 384.2 620.6 383.8 617.35 383.5 616.4
Q 383.05 615.55 381.85 615.4
L 382.7 614.1 381.5 613.4 382.5 613.25
Q 382.15 612.05 381.3 611.75 380.95 612.85 380.55 614.05 379.65 616.6 378.4 619.45
L 375.85 624.6
Q 375.95 624.6 376.15 624.55 376.25 624.55 376.45 624.35 374.8 628.15 371.15 634
L 368.3 638.7
Q 366.8 641.1 365.8 643.1
L 365.55 642.95 364.7 644.25 364.1 646.15 363.5 647.3
Q 364.15 645.85 363.55 646.1 363.3 646.4 362 648.25
L 360.35 650.25 359.75 650.65
Q 359.55 651.2 359.65 651.75 359.7 652.05 359.2 653
L 358 653.2
Q 357.55 653.9 356.6 654.9
L 355.95 655.7 355.3 656.8 356.5 656.05 352.65 660.35 351.2 661.45 351.35 661.7
Q 349.3 663.4 344.6 667.75 344.2 668.15 343.8 668.5
L 344.2 668.55
Q 344.9 668.6 345.45 668.65 344.85 668.65 345 668.95
L 346.2 669.3 347.1 669.4
Q 347.75 669.45 348.4 669.35 349.2 669.2 349.6 669.3 350.3 669.3 351.35 669.65 351.95 669.5 350.85 669.1 350 668.75 351.05 668.75
L 352.85 669.95
Q 353.3 670.2 354.05 670.35 355.15 670.45 356.05 670.4 356.1 670.2 355.45 669.95 355.1 669.8 356 669.6 356.35 670.05 356.8 670.35
L 357.9 671 363.75 672.9
Q 365.45 673.5 365.8 673.65
L 365.7 672.9 367.2 673.1 369.65 673.85
Q 370.25 674 370.65 673.95 371.85 673.65 376.05 674.05
L 377.4 674.15
Q 378.25 674.15 378.65 674.1 380 674 380.55 673.45
L 381.9 674 383.1 673.5 383.1 673.95
Q 384 673.95 384.55 673.8
L 385.35 673.45
Q 385.75 673.15 385.85 672.6 386.05 671.95 386.45 671.65 386.9 671.45 387.45 671.4
L 389.05 671.2
Q 388.75 671.6 388.7 671.65 388.4 672 387.95 672.1
L 388.4 672.3 389.15 672.3 391.1 671.95 391.25 672.65
Q 391.8 672.65 392.3 672.4 392.75 672.1 392.9 672 392 672.9 394.1 672.8
L 395.75 672.7
Q 396.65 672.6 396.85 672.75
L 396.6 672.05
Q 397.05 672.5 397.75 672.7
L 399.55 673 400.1 672.1
Q 401.1 672.3 401.55 672.3
L 402.35 672.2
Q 402.75 672.05 402.95 671.85
L 403.05 673
Q 403.9 672.45 404.5 672.45 405.4 672.45 406.35 672
L 405.5 671.45 406.5 671.65 407.45 672
Q 408.7 672.35 409.55 672.25 409.7 672.2 409.95 672.2 409.6 672.05 409.4 671.95 409.65 671.9 410.2 672 410.35 672 410.4 672 410.5 671.95 410.7 671.95 410.85 671.85 410.9 671.6 410.1 670.95 409.55 670.3 408.35 669.2 408.35 668.3 407.85 668.2 407.1 668.6 406.45 668.9 405.8 668.5
L 406.5 667 Z"/>
</g>

<g id="Layer0_0_MEMBER_6_FILL">
<path fill="#FFFFFF" stroke="none" d="
M 785.7 610.65
Q 787.05 611.45 788.35 612.45 787.1 605.1 786.4 597.4 785.2 612.45 782.1 626.55 782.15 627.65 782.65 628 782.2 628.7 781.9 630
L 781.4 632.6
Q 781.4 632.55 781.1 632.55 780.8 632.5 780.6 632.7 780.55 632.95 780.5 633.2
L 780.85 635.15 780.5 635.2
Q 780.9 635.8 780.45 637.5 780 639.25 780.2 639.85
L 779.6 639.5 779 642.7
Q 778.55 644.85 778.75 645.7 778.4 645.25 778.15 645.85 778 646.2 777.75 647.2
L 777.25 646.05
Q 777.2 646.65 776.75 647
L 776.4 647.35 776.15 647.95 776.15 647.65
Q 775.75 648.6 775.4 649.55
L 775.95 649.7
Q 775.4 650.1 775.1 650.6 774.5 652.05 773.95 653.6 774 653.65 774.1 653.8 774.5 654.3 774.5 654.85
L 774.4 654.85 774.45 654.75 774.25 654.75 773.95 654.8
Q 773.65 655 773.5 655.85 773.7 655.95 774.25 655.3
L 773.6 658.75 773.6 658.9 773.55 659 773.5 659.3 772.1 663 772 663.2
Q 772.05 662.75 771.9 662.6 771.85 662.6 771.55 662.75 770.85 663.25 770.75 663.1
L 770.15 665.7
Q 770.05 665.35 770.3 664 765.5 676.8 759.1 689
L 758.8 690.1 758.5 690.1
Q 753.6 699.1 747.8 707.85
L 755 707.05
Q 760.15 706.4 766.6 705.95
L 778.1 705.6
Q 784.25 705.75 789.5 706.6 791.1 706.25 791.9 705.95
L 793.1 705.5 794.2 704.85
Q 795.35 704.15 796 703.1 796.65 702.05 796.85 700.45 797.7 700.95 798.7 701.25
L 799.75 701.35
Q 800.3 701.45 800.85 701.35
L 801.95 701.3 805.65 700.3
Q 805.65 699.65 805.85 701.55 806.2 703.9 807.25 703.95 809.35 701.1 810.5 699.35
L 810.95 700.6
Q 811.25 699.2 812.4 698.3 813.25 697.85 814.7 697.65
L 815.9 697.4
Q 816.55 697.3 817.05 697.05 818.2 696.5 818.65 695.15
L 818.85 697.7
Q 819.1 697.75 819.5 697.85
L 819.5 697.8 820.15 697.35 826.3 694.8 827.25 694.1
Q 828.1 693.45 828.7 692.55 828.7 692.25 828.6 692 826.25 689.6 824 687.2 823.1 688.3 822.7 688.6
L 823.3 686.55 823.4 686.5
Q 810.55 672.35 802.15 655.4
L 801.85 656.55 802.55 657.85 805.05 661.35
Q 805.55 662.15 805.75 662.95 804.6 662.8 803.45 662.2 802.2 661.45 801.5 660.8 800.15 659.6 798.2 656.9
L 795.15 652.75 793.35 650.95
Q 792.25 650 791.3 649.5 792.45 649.1 793.3 649.55
L 794.1 650 796.1 652.2
Q 796.95 653.05 797.6 653.15
L 797.2 649.15
Q 799.2 651.3 800.95 652.95 798.65 648.2 796.8 643.25
L 796.1 642.75
Q 795.45 642.2 794.45 641.1
L 793.15 638.9 792.55 637.3 792.35 636.25
Q 793.5 635.5 793.5 634.7 793.55 634.15 793 633.2 792.45 632.2 792.3 631.55
L 792.25 630.65
Q 792.3 630.5 792.4 630.2 792.3 629.8 792.15 629.4
L 791.25 629 790.1 628.2 789.15 627.2 788.35 626.1
Q 787.65 624.9 787.35 623.6
L 786.75 620.85 786.4 615.35
Q 786.3 612.3 785.7 610.65
M 784.15 630.45
Q 784.25 630.7 783.8 631.1 783.7 630.3 783.8 629.85 783.8 630 784.15 630.45
M 795.7 646.25
L 795.15 647.85 793.6 645.25 795.7 646.25
M 788.35 653.25
L 787.95 654.05 784.35 651.6 786.85 649.7
Q 786.95 650.25 787.4 650.95
L 788.15 651.8
Q 788.45 652.15 788.45 652.65 788.45 653.05 788.35 653.25
M 776.55 648.3
L 776.4 648.5
Q 776.3 648.55 776.2 648.2 776.3 648.25 776.5 648.15
L 776.85 647.75 776.55 648.3
M 803.95 687.4
Q 804.7 687.55 805 684.75 804.95 685.5 805.35 687.4 805.6 689.05 804.75 689.6 804.65 689.25 803.9 687.55 803.85 687.35 803.95 687.4
M 799.9 691.1
Q 800.3 690.1 801.25 691.6 800.3 693.3 799.25 693.2 799.55 692.65 799.9 691.1
M 817.95 686
Q 815.7 684.75 811.25 682.05 815.2 684.05 817.95 685.35
L 817.95 686 Z"/>
</g>

<g id="Layer0_1_MEMBER_0_FILL">
<path fill="#C1282D" stroke="none" d="
M 1204.85 481.85
Q 1204.85 455.4 1187.35 438.85 1169.95 422.4 1144.7 422.4 1119.4 422.4 1102.15 438.85 1084.75 455.4 1084.75 481.85 1084.75 508.6 1102.25 525.25 1119.65 541.9 1144.7 541.9 1169.75 541.9 1187.25 525.1 1204.85 508.35 1204.85 481.85
M 1144.7 444.25
Q 1160.65 444.25 1171.55 454.55 1182.45 464.85 1182.45 481.85 1182.45 499 1171.55 509.65 1160.65 520.35 1144.7 520.35 1128.75 520.35 1117.85 509.65 1106.8 499 1106.8 481.85 1106.8 464.85 1117.85 454.55 1128.75 444.25 1144.7 444.25
M 923.45 481.85
Q 923.45 465.1 934.85 454.65 946.1 444.25 962.05 444.25 978.5 444.25 989.25 455
L 1006.3 440.9
Q 989.25 422.4 962.05 422.4 936.75 422.4 919.15 438.85 901.4 455.4 901.4 481.85 901.4 508.35 919.15 525.1 936.75 541.9 962.05 541.9 989.25 541.9 1006.5 523.3
L 989.25 509.05
Q 978.5 520.35 962.05 520.35 946.1 520.35 934.85 509.55 923.45 498.75 923.45 481.85
M 1314.5 539.5
L 1314.5 362.5 1292.2 362.5 1292.2 539.5 1314.5 539.5
M 1517.25 490.6
Q 1517.5 488.2 1517.5 481.85 1517.5 455 1501.45 438.7 1485.3 422.4 1460.6 422.4 1435.55 422.4 1418.65 438.7 1401.85 455 1401.85 481.85 1401.85 508.6 1418.65 525.25 1435.55 541.9 1460.6 541.9 1477.75 541.9 1492 534.1 1506.25 526.2 1513.3 511.6 1510.55 510.5 1503.95 508 1497.4 505.35 1494.15 504.15 1489.45 512.55 1480.7 517.2 1471.85 521.9 1461.3 521.9 1446.55 521.9 1436.4 513.4 1426.2 504.85 1424.3 490.6
L 1517.25 490.6
M 1483.95 450.8
Q 1493.45 458.95 1495.35 473.25
L 1424.3 473.25
Q 1426.2 458.95 1436.15 450.8 1446.1 442.55 1460.6 442.55 1474.5 442.55 1483.95 450.8 Z"/>

<path fill="#A03232" stroke="none" d="
M 1738.6 427.3
L 1727.55 427.3 1727.55 541.85 1738.6 541.85 1738.6 427.3
M 1927.1 427.3
L 1915 427.3 1872.1 529.4 1829.7 427.3 1817.6 427.3 1865.75 541.85 1878.7 541.85 1927.1 427.3
M 1610.95 427.3
L 1590.1 427.3 1590.1 437.35 1610.95 437.35 1610.95 541.85 1622.1 541.85 1622.1 437.35 1648.8 437.35 1648.8 427.3 1622.1 427.3 1622.1 381.15 1610.95 381.15 1610.95 427.3
M 1726 391.35
Q 1728.75 393.85 1732.95 393.85 1737.15 393.85 1739.8 391.35 1742.55 388.7 1742.55 384.75 1742.55 380.9 1739.8 378.3 1737.15 375.75 1732.95 375.75 1728.75 375.75 1726 378.3 1723.15 380.9 1723.15 384.75 1723.15 388.7 1726 391.35
M 2100.15 441.2
Q 2082.9 424.75 2057.65 424.75 2032.35 424.75 2015.1 441.2 1997.7 457.75 1997.7 484.2 1997.7 510.95 2015.1 527.6 2032.35 544.25 2057.65 544.25 2082.9 544.25 2100.15 527.6 2117.55 510.95 2117.55 484.2 2117.55 457.75 2100.15 441.2
M 2057.65 435.8
Q 2078.25 435.8 2092.4 449.2 2106.5 462.65 2106.5 484.2 2106.5 506 2092.4 519.7 2078.25 533.2 2057.65 533.2 2037 533.2 2022.9 519.7 2008.85 506 2008.85 484.2 2008.85 462.65 2022.9 449.2 2037 435.8 2057.65 435.8 Z"/>
</g>

<g id="Layer0_1_MEMBER_1_FILL">
<path fill="#FFFFFF" stroke="none" d="
M 1117.9 601.65
Q 1105.4 601.65 1093.65 607.9 1082.05 614.25 1077.4 626.7
L 1077.4 604.2 1066.1 604.2 1066.1 718.75 1077.4 718.75 1077.4 654.4
Q 1077.6 633.05 1089.35 622.9 1101 612.7 1117.9 612.7 1133.35 612.7 1142.9 623.1 1152.5 633.55 1152.5 651.5
L 1152.5 718.75 1163.55 718.75 1163.55 654.4
Q 1164 633.05 1175.65 622.9 1187.4 612.7 1204.3 612.7 1219.75 612.7 1229.3 623.1 1238.9 633.55 1238.9 651.5
L 1238.9 718.75 1249.95 718.75 1249.95 651.5
Q 1250.15 628.65 1237.6 615.2 1224.9 601.65 1204.3 601.65 1195.65 601.65 1187.85 603.95 1179.95 606.1 1171.8 613.05 1163.55 620.15 1160.05 631.4 1155.5 617.15 1144.35 609.45 1133.35 601.65 1117.9 601.65
M 960.1 601.65
Q 935.3 601.65 918.15 618.7 900.9 635.85 900.9 661.35 900.9 686.85 918.15 704 935.3 721.15 960.1 721.15 975.35 721.15 988.65 713.85 1001.8 706.55 1008.75 693.95
L 1008.75 718.75 1020.05 718.75 1020.05 604.2 1008.75 604.2 1008.75 628.65
Q 1001.8 616.15 988.75 609 975.55 601.65 960.1 601.65
M 926.1 626.85
Q 940 612.95 960.1 612.95 980.5 612.95 994.6 626.95 1008.75 641 1008.75 662.55 1008.4 683.15 994.4 696.6 980.25 709.9 960.1 709.9 940.2 709.9 926.2 696 912.3 681.95 912.3 661.35 912.3 640.75 926.1 626.85
M 1775.2 604.2
L 1753 604.2 1753 621.35
Q 1747.6 612 1736.45 606.85 1725.35 601.65 1712.85 601.65 1688.55 601.65 1671.5 618.1 1654.6 634.65 1654.6 661.35 1654.6 687.85 1671.5 704.5 1688.55 721.15 1712.85 721.15 1725.35 721.15 1736.35 715.85 1747.35 710.6 1753 701.15
L 1753 718.75 1775.2 718.75 1775.2 604.2
M 1714.8 623.5
Q 1729.75 623.5 1741.25 633.55 1752.75 643.6 1752.75 661.1 1752.75 678.75 1741.75 689.05 1730.7 699.35 1714.8 699.35 1699.1 699.35 1688.3 688.55 1677.5 677.75 1677.5 661.1 1677.5 644.35 1688.2 633.9 1698.85 623.5 1714.8 623.5
M 1839.7 541.75
L 1817.4 541.75 1817.4 718.75 1839.7 718.75 1839.7 541.75
M 1597.65 621.35
Q 1592.05 611.75 1581.15 606.7 1570.25 601.65 1557.15 601.65 1532.95 601.65 1516.2 618.1 1499.5 634.65 1499.5 661.35 1499.5 687.85 1516.3 704.5 1533.2 721.15 1557.4 721.15 1570 721.15 1581 715.85 1592.05 710.6 1597.65 701.15
L 1597.65 718.75 1620.1 718.75 1620.1 541.75 1597.65 541.75 1597.65 621.35
M 1597.45 661.1
Q 1597.45 678.5 1586.3 688.9 1575.15 699.35 1559.45 699.35 1543.75 699.35 1533.1 688.55 1522.4 677.75 1522.4 661.1 1522.4 644.35 1533.1 633.9 1543.75 623.5 1559.45 623.5 1574.4 623.5 1585.9 633.55 1597.45 643.6 1597.45 661.1
M 1305.9 718.75
L 1305.9 604.2 1294.6 604.2 1294.6 718.75 1305.9 718.75
M 1451.75 604.2
L 1451.75 628.9
Q 1444.8 616.4 1431.65 609.1 1418.35 601.65 1403.1 601.65 1378.3 601.65 1361.15 618.8 1343.9 636.05 1343.9 661.6 1343.9 687.1 1361.15 704.15 1378.3 721.15 1403.1 721.15 1418.55 721.15 1431.85 713.6 1445.05 706.05 1451.75 693.45
L 1451.75 701.85
Q 1451.75 736.15 1438.6 750.4 1425.4 764.65 1401.45 764.65 1376.85 764.65 1362.85 743.8
L 1353.5 749.9
Q 1370.75 775.9 1401.45 775.9 1430.8 775.9 1446.95 759 1463.05 742.1 1463.05 701.6
L 1463.05 604.2 1451.75 604.2
M 1403.1 612.95
Q 1423.5 612.95 1437.6 626.7 1451.75 640.5 1451.75 661.6 1451.75 682.7 1437.4 696.35 1423 709.9 1403.1 709.9 1383 709.9 1369.1 696.1 1355.3 682.2 1355.3 661.6 1355.3 641 1369.2 626.95 1383.2 612.95 1403.1 612.95
M 1305.15 585
L 1326.5 553.15 1312.85 553.15 1294.35 585 1305.15 585
M 1972.65 604.2
L 1972.65 621.35
Q 1967.25 612 1956.1 606.85 1945 601.65 1932.5 601.65 1908.2 601.65 1891.15 618.1 1874.25 634.65 1874.25 661.35 1874.25 687.85 1891.15 704.5 1908.2 721.15 1932.5 721.15 1945 721.15 1956 715.85 1967 710.6 1972.65 701.15
L 1972.65 718.75 1994.85 718.75 1994.85 604.2 1972.65 604.2
M 1972.4 661.1
Q 1972.4 678.75 1961.4 689.05 1950.35 699.35 1934.45 699.35 1918.75 699.35 1907.95 688.55 1897.15 677.75 1897.15 661.1 1897.15 644.35 1907.85 633.9 1918.5 623.5 1934.45 623.5 1949.4 623.5 1960.9 633.55 1972.4 643.6 1972.4 661.1
M 2072.65 621.1
Q 2079.45 621.1 2084.5 624.55 2089.55 627.9 2090.5 634.05
L 2111.8 634.05
Q 2110.4 617.6 2099.25 609.7 2088.1 601.65 2072.15 601.65 2056.6 601.65 2045.05 610.05 2033.55 618.35 2032.35 630.9 2030.8 646.15 2038.7 655 2046.65 663.75 2063.05 668.2
L 2078.75 671.9
Q 2085.8 673.55 2090 677.05 2094.2 680.5 2093.95 686.4 2093.7 692.5 2089.05 696.7 2084.4 700.9 2076.45 701.35 2065.9 702.1 2058.35 697.4 2050.45 693.45 2049.05 684.35
L 2028.65 684.35
Q 2029.15 701.15 2042.1 711.2 2054.9 721.15 2071.3 721.15 2090 721.15 2102.95 711.8 2115.75 702.35 2115.75 686.85 2115.75 660.85 2086.05 653.45
L 2069.15 649.25
Q 2058.35 646.15 2055.6 640.5 2053.95 636.8 2055.4 631.4 2056.6 626.7 2061.35 623.85 2066.15 621.1 2072.65 621.1 Z"/>
</g>
</defs>

<g transform="matrix( 1, 0, 0, 1, 0,0) ">
<use xlink:href="#Layer1_0_FILL"/>
</g>

<g transform="matrix( 1.139129638671875, 0, 0, 1.139129638671875, -149.15,-76) ">
<use xlink:href="#Layer0_0_MEMBER_0_FILL"/>
</g>

<g transform="matrix( 1.139129638671875, 0, 0, 1.139129638671875, -149.15,-76) ">
<use xlink:href="#Layer0_0_MEMBER_1_FILL"/>
</g>

<g transform="matrix( 0.7675933837890625, 0.3037872314453125, -0.303802490234375, 0.767669677734375, -158.45,-84.35) ">
<use xlink:href="#Layer0_0_MEMBER_2_FILL"/>
</g>

<g transform="matrix( 0.48736572265625, -0.3067169189453125, -0.3067169189453125, -0.48736572265625, 143.1,1108.75) ">
<use xlink:href="#Layer0_0_MEMBER_3_FILL"/>
</g>

<g transform="matrix( -0.577392578125, 0.1038360595703125, 0.103851318359375, 0.577484130859375, 1133.2,210.75) ">
<use xlink:href="#Layer0_0_MEMBER_4_FILL"/>
</g>

<g transform="matrix( 1, 0, 0, 1, 0,0) ">
<use xlink:href="#Layer0_0_MEMBER_5_FILL"/>
</g>

<g transform="matrix( 1, 0, 0, 1, 0,0) ">
<use xlink:href="#Layer0_0_MEMBER_6_FILL"/>
</g>

<g transform="matrix( 1, 0, 0, 1, -2.05,0) ">
<use xlink:href="#Layer0_1_MEMBER_0_FILL"/>
</g>

<g transform="matrix( 1, 0, 0, 1, 0,0) ">
<use xlink:href="#Layer0_1_MEMBER_1_FILL"/>
</g>
</svg>
